<?xml version="1.0" encoding="UTF-8"?><svg xmlns="http://www.w3.org/2000/svg" xmlns:xlink="http://www.w3.org/1999/xlink" fill-opacity="1" color-rendering="auto" color-interpolation="auto" text-rendering="auto" stroke="black" stroke-linecap="square" width="573" stroke-miterlimit="10" shape-rendering="auto" stroke-opacity="1" fill="black" stroke-dasharray="none" font-weight="normal" stroke-width="1" height="458" font-family="'Dialog'" font-style="normal" stroke-linejoin="miter" font-size="12px" stroke-dashoffset="0" image-rendering="auto">
  <!--Generated by ySVG 2.5-->
  <defs id="genericDefs"/>
  <g>
    <defs id="defs1">
      <clipPath clipPathUnits="userSpaceOnUse" id="clipPath1">
        <path d="M0 0 L573 0 L573 458 L0 458 L0 0 Z"/>
      </clipPath>
      <clipPath clipPathUnits="userSpaceOnUse" id="clipPath2">
        <path d="M116 60 L689 60 L689 518 L116 518 L116 60 Z"/>
      </clipPath>
    </defs>
    <g fill="white" text-rendering="geometricPrecision" shape-rendering="geometricPrecision" transform="translate(-116,-60)" stroke="white">
      <rect x="116" width="573" height="458" y="60" clip-path="url(#clipPath2)" stroke="none"/>
    </g>
    <g fill="silver" text-rendering="geometricPrecision" shape-rendering="geometricPrecision" transform="matrix(1,0,0,1,-116,-60)" stroke="silver">
      <rect x="367" width="80" height="80" y="233" clip-path="url(#clipPath2)" stroke="none"/>
    </g>
    <g text-rendering="geometricPrecision" stroke-miterlimit="1.45" shape-rendering="geometricPrecision" transform="matrix(1,0,0,1,-116,-60)" stroke-linecap="butt">
      <rect fill="none" x="367" width="80" height="80" y="233" clip-path="url(#clipPath2)"/>
      <text x="386.3713" xml:space="preserve" y="277.6534" clip-path="url(#clipPath2)" font-family="sans-serif" stroke="none">chunk2</text>
    </g>
    <g fill="silver" text-rendering="geometricPrecision" shape-rendering="geometricPrecision" transform="matrix(1,0,0,1,-116,-60)" stroke="silver">
      <rect x="367" width="80" height="80" y="313" clip-path="url(#clipPath2)" stroke="none"/>
    </g>
    <g text-rendering="geometricPrecision" stroke-miterlimit="1.45" shape-rendering="geometricPrecision" transform="matrix(1,0,0,1,-116,-60)" stroke-linecap="butt">
      <rect fill="none" x="367" width="80" height="80" y="313" clip-path="url(#clipPath2)"/>
      <text x="386.3713" xml:space="preserve" y="357.6534" clip-path="url(#clipPath2)" font-family="sans-serif" stroke="none">chunk3</text>
    </g>
    <g fill="white" text-rendering="geometricPrecision" shape-rendering="geometricPrecision" transform="matrix(1,0,0,1,-116,-60)" stroke="white">
      <rect x="480.44" width="80" height="80" y="233" clip-path="url(#clipPath2)" stroke="none"/>
    </g>
    <g text-rendering="geometricPrecision" stroke-miterlimit="1.45" shape-rendering="geometricPrecision" transform="matrix(1,0,0,1,-116,-60)" stroke-linecap="butt">
      <rect fill="none" x="480.44" width="80" height="80" y="233" clip-path="url(#clipPath2)"/>
      <text x="509.1362" xml:space="preserve" y="269.4859" clip-path="url(#clipPath2)" font-family="sans-serif" stroke="none">free</text>
      <text x="504.2549" xml:space="preserve" y="285.821" clip-path="url(#clipPath2)" font-family="sans-serif" stroke="none">space</text>
    </g>
    <g fill="silver" text-rendering="geometricPrecision" shape-rendering="geometricPrecision" transform="matrix(1,0,0,1,-116,-60)" stroke="silver">
      <rect x="253.56" width="80" height="80" y="153" clip-path="url(#clipPath2)" stroke="none"/>
    </g>
    <g text-rendering="geometricPrecision" stroke-miterlimit="1.45" shape-rendering="geometricPrecision" transform="matrix(1,0,0,1,-116,-60)" stroke-linecap="butt">
      <rect fill="none" x="253.56" width="80" height="80" y="153" clip-path="url(#clipPath2)"/>
      <text x="272.9313" xml:space="preserve" y="197.6534" clip-path="url(#clipPath2)" font-family="sans-serif" stroke="none">chunk1</text>
    </g>
    <g fill="white" text-rendering="geometricPrecision" shape-rendering="geometricPrecision" transform="matrix(1,0,0,1,-116,-60)" stroke="white">
      <rect x="253.56" width="80" height="240" y="233" clip-path="url(#clipPath2)" stroke="none"/>
    </g>
    <g text-rendering="geometricPrecision" stroke-miterlimit="1.45" shape-rendering="geometricPrecision" transform="matrix(1,0,0,1,-116,-60)" stroke-linecap="butt">
      <rect fill="none" x="253.56" width="80" height="240" y="233" clip-path="url(#clipPath2)"/>
      <text x="282.2562" xml:space="preserve" y="349.4859" clip-path="url(#clipPath2)" font-family="sans-serif" stroke="none">free</text>
      <text x="277.3749" xml:space="preserve" y="365.821" clip-path="url(#clipPath2)" font-family="sans-serif" stroke="none">space</text>
    </g>
    <g fill="silver" text-rendering="geometricPrecision" shape-rendering="geometricPrecision" transform="matrix(1,0,0,1,-116,-60)" stroke="silver">
      <rect x="367" width="80" height="80" y="153" clip-path="url(#clipPath2)" stroke="none"/>
    </g>
    <g text-rendering="geometricPrecision" stroke-miterlimit="1.45" shape-rendering="geometricPrecision" transform="matrix(1,0,0,1,-116,-60)" stroke-linecap="butt">
      <rect fill="none" x="367" width="80" height="80" y="153" clip-path="url(#clipPath2)"/>
      <text x="386.3713" xml:space="preserve" y="197.6534" clip-path="url(#clipPath2)" font-family="sans-serif" stroke="none">chunk1</text>
    </g>
    <g fill="white" text-rendering="geometricPrecision" shape-rendering="geometricPrecision" transform="matrix(1,0,0,1,-116,-60)" stroke="white">
      <rect x="367" width="80" height="80" y="393" clip-path="url(#clipPath2)" stroke="none"/>
    </g>
    <g text-rendering="geometricPrecision" stroke-miterlimit="1.45" shape-rendering="geometricPrecision" transform="matrix(1,0,0,1,-116,-60)" stroke-linecap="butt">
      <rect fill="none" x="367" width="80" height="80" y="393" clip-path="url(#clipPath2)"/>
      <text x="395.6962" xml:space="preserve" y="429.4859" clip-path="url(#clipPath2)" font-family="sans-serif" stroke="none">free</text>
      <text x="390.8149" xml:space="preserve" y="445.821" clip-path="url(#clipPath2)" font-family="sans-serif" stroke="none">space</text>
    </g>
    <g fill="silver" text-rendering="geometricPrecision" shape-rendering="geometricPrecision" transform="matrix(1,0,0,1,-116,-60)" stroke="silver">
      <rect x="480.44" width="80" height="80" y="313" clip-path="url(#clipPath2)" stroke="none"/>
    </g>
    <g text-rendering="geometricPrecision" stroke-miterlimit="1.45" shape-rendering="geometricPrecision" transform="matrix(1,0,0,1,-116,-60)" stroke-linecap="butt">
      <rect fill="none" x="480.44" width="80" height="80" y="313" clip-path="url(#clipPath2)"/>
      <text x="499.8113" xml:space="preserve" y="357.6534" clip-path="url(#clipPath2)" font-family="sans-serif" stroke="none">chunk3</text>
    </g>
    <g fill="silver" text-rendering="geometricPrecision" shape-rendering="geometricPrecision" transform="matrix(1,0,0,1,-116,-60)" stroke="silver">
      <rect x="480.44" width="80" height="80" y="153" clip-path="url(#clipPath2)" stroke="none"/>
    </g>
    <g text-rendering="geometricPrecision" stroke-miterlimit="1.45" shape-rendering="geometricPrecision" transform="matrix(1,0,0,1,-116,-60)" stroke-linecap="butt">
      <rect fill="none" x="480.44" width="80" height="80" y="153" clip-path="url(#clipPath2)"/>
      <text x="499.8113" xml:space="preserve" y="197.6534" clip-path="url(#clipPath2)" font-family="sans-serif" stroke="none">chunk1</text>
    </g>
    <g fill="white" text-rendering="geometricPrecision" shape-rendering="geometricPrecision" transform="matrix(1,0,0,1,-116,-60)" stroke="white">
      <rect x="480.44" width="80" height="80" y="393" clip-path="url(#clipPath2)" stroke="none"/>
    </g>
    <g text-rendering="geometricPrecision" stroke-miterlimit="1.45" shape-rendering="geometricPrecision" transform="matrix(1,0,0,1,-116,-60)" stroke-linecap="butt">
      <rect fill="none" x="480.44" width="80" height="80" y="393" clip-path="url(#clipPath2)"/>
      <text x="509.1362" xml:space="preserve" y="429.4859" clip-path="url(#clipPath2)" font-family="sans-serif" stroke="none">free</text>
      <text x="504.2549" xml:space="preserve" y="445.821" clip-path="url(#clipPath2)" font-family="sans-serif" stroke="none">space</text>
    </g>
    <g fill="white" text-rendering="geometricPrecision" shape-rendering="geometricPrecision" transform="matrix(1,0,0,1,-116,-60)" stroke="white">
      <rect x="593.88" width="80" height="320" y="153" clip-path="url(#clipPath2)" stroke="none"/>
    </g>
    <g text-rendering="geometricPrecision" stroke-miterlimit="1.45" shape-rendering="geometricPrecision" transform="matrix(1,0,0,1,-116,-60)" stroke-linecap="butt">
      <rect fill="none" x="593.88" width="80" height="320" y="153" clip-path="url(#clipPath2)"/>
      <text x="622.5762" xml:space="preserve" y="309.4859" clip-path="url(#clipPath2)" font-family="sans-serif" stroke="none">free</text>
      <text x="617.6949" xml:space="preserve" y="325.821" clip-path="url(#clipPath2)" font-family="sans-serif" stroke="none">space</text>
    </g>
    <g fill="rgb(255,204,204)" text-rendering="geometricPrecision" shape-rendering="geometricPrecision" transform="matrix(1,0,0,1,-116,-60)" stroke="rgb(255,204,204)">
      <rect x="593.88" width="80" height="6.272" y="473" clip-path="url(#clipPath2)" stroke="none"/>
    </g>
    <g text-rendering="geometricPrecision" stroke-miterlimit="1.45" shape-rendering="geometricPrecision" transform="matrix(1,0,0,1,-116,-60)" stroke-linecap="butt">
      <rect fill="none" x="593.88" width="80" height="6.272" y="473" clip-path="url(#clipPath2)"/>
    </g>
    <g fill="rgb(255,204,204)" text-rendering="geometricPrecision" shape-rendering="geometricPrecision" transform="matrix(1,0,0,1,-116,-60)" stroke="rgb(255,204,204)">
      <rect x="480.44" width="80" height="6.272" y="473" clip-path="url(#clipPath2)" stroke="none"/>
    </g>
    <g text-rendering="geometricPrecision" stroke-miterlimit="1.45" shape-rendering="geometricPrecision" transform="matrix(1,0,0,1,-116,-60)" stroke-linecap="butt">
      <rect fill="none" x="480.44" width="80" height="6.272" y="473" clip-path="url(#clipPath2)"/>
    </g>
    <g fill="rgb(255,204,204)" text-rendering="geometricPrecision" shape-rendering="geometricPrecision" transform="matrix(1,0,0,1,-116,-60)" stroke="rgb(255,204,204)">
      <rect x="367" width="80" height="6.272" y="473" clip-path="url(#clipPath2)" stroke="none"/>
    </g>
    <g text-rendering="geometricPrecision" stroke-miterlimit="1.45" shape-rendering="geometricPrecision" transform="matrix(1,0,0,1,-116,-60)" stroke-linecap="butt">
      <rect fill="none" x="367" width="80" height="6.272" y="473" clip-path="url(#clipPath2)"/>
    </g>
    <g fill="rgb(255,204,204)" text-rendering="geometricPrecision" shape-rendering="geometricPrecision" transform="matrix(1,0,0,1,-116,-60)" stroke="rgb(255,204,204)">
      <rect x="253.56" width="80" height="6.272" y="473" clip-path="url(#clipPath2)" stroke="none"/>
    </g>
    <g text-rendering="geometricPrecision" stroke-miterlimit="1.45" shape-rendering="geometricPrecision" transform="matrix(1,0,0,1,-116,-60)" stroke-linecap="butt">
      <rect fill="none" x="253.56" width="80" height="6.272" y="473" clip-path="url(#clipPath2)"/>
    </g>
    <g fill="white" text-rendering="geometricPrecision" shape-rendering="geometricPrecision" transform="matrix(1,0,0,1,-116,-60)" stroke="white">
      <path d="M156.0146 476.136 Q156.0146 468.636 163.5146 468.636 L204.2757 468.636 Q211.7757 468.636 211.7757 476.136 L211.7757 476.136 Q211.7757 483.636 204.2757 483.636 L163.5146 483.636 Q156.0146 483.636 156.0146 476.136 Z" stroke="none" clip-path="url(#clipPath2)"/>
    </g>
    <g text-rendering="geometricPrecision" stroke-miterlimit="1.45" shape-rendering="geometricPrecision" font-family="sans-serif" transform="matrix(1,0,0,1,-116,-60)" stroke-linecap="butt">
      <text x="169.7549" xml:space="preserve" y="464.4544" clip-path="url(#clipPath2)" stroke="none">heap</text>
      <text x="171.308" xml:space="preserve" y="480.7894" clip-path="url(#clipPath2)" stroke="none">area</text>
      <text x="173.119" xml:space="preserve" y="497.1245" clip-path="url(#clipPath2)" stroke="none">end</text>
    </g>
    <g fill="white" text-rendering="geometricPrecision" shape-rendering="geometricPrecision" transform="matrix(1,0,0,1,-116,-60)" stroke="white">
      <path d="M253.56 115.5 Q253.56 108 261.06 108 L326.06 108 Q333.56 108 333.56 115.5 L333.56 115.5 Q333.56 123 326.06 123 L261.06 123 Q253.56 123 253.56 115.5 Z" stroke="none" clip-path="url(#clipPath2)"/>
    </g>
    <g text-rendering="geometricPrecision" stroke-miterlimit="1.45" shape-rendering="geometricPrecision" font-family="sans-serif" transform="matrix(1,0,0,1,-116,-60)" stroke-linecap="butt">
      <text x="290.1299" xml:space="preserve" y="103.8184" clip-path="url(#clipPath2)" stroke="none">1</text>
      <text x="267.9961" xml:space="preserve" y="120.1534" clip-path="url(#clipPath2)" stroke="none">allocated</text>
      <text x="276.3615" xml:space="preserve" y="136.4885" clip-path="url(#clipPath2)" stroke="none">chunk</text>
    </g>
    <g fill="white" text-rendering="geometricPrecision" shape-rendering="geometricPrecision" transform="matrix(1,0,0,1,-116,-60)" stroke="white">
      <path d="M371.0117 115.5 Q371.0117 108 378.5117 108 L435.4883 108 Q442.9883 108 442.9883 115.5 L442.9883 115.5 Q442.9883 123 435.4883 123 L378.5117 123 Q371.0117 123 371.0117 115.5 Z" stroke="none" clip-path="url(#clipPath2)"/>
    </g>
    <g text-rendering="geometricPrecision" stroke-miterlimit="1.45" shape-rendering="geometricPrecision" font-family="sans-serif" transform="matrix(1,0,0,1,-116,-60)" stroke-linecap="butt">
      <text x="403.5699" xml:space="preserve" y="103.8184" clip-path="url(#clipPath2)" stroke="none">3</text>
      <text x="381.436" xml:space="preserve" y="120.1534" clip-path="url(#clipPath2)" stroke="none">allocated</text>
      <text x="386.929" xml:space="preserve" y="136.4885" clip-path="url(#clipPath2)" stroke="none">chunks</text>
    </g>
    <g fill="white" text-rendering="geometricPrecision" shape-rendering="geometricPrecision" transform="matrix(1,0,0,1,-116,-60)" stroke="white">
      <path d="M480.44 115.5 Q480.44 108 487.94 108 L552.94 108 Q560.44 108 560.44 115.5 L560.44 115.5 Q560.44 123 552.94 123 L487.94 123 Q480.44 123 480.44 115.5 Z" stroke="none" clip-path="url(#clipPath2)"/>
    </g>
    <g text-rendering="geometricPrecision" stroke-miterlimit="1.45" shape-rendering="geometricPrecision" font-family="sans-serif" transform="matrix(1,0,0,1,-116,-60)" stroke-linecap="butt">
      <text x="517.0099" xml:space="preserve" y="103.8184" clip-path="url(#clipPath2)" stroke="none">2</text>
      <text x="494.876" xml:space="preserve" y="120.1534" clip-path="url(#clipPath2)" stroke="none">allocated</text>
      <text x="500.369" xml:space="preserve" y="136.4885" clip-path="url(#clipPath2)" stroke="none">chunks</text>
    </g>
    <g fill="white" text-rendering="geometricPrecision" shape-rendering="geometricPrecision" transform="matrix(1,0,0,1,-116,-60)" stroke="white">
      <path d="M593.88 115.5 Q593.88 108 601.38 108 L666.38 108 Q673.88 108 673.88 115.5 L673.88 115.5 Q673.88 123 666.38 123 L601.38 123 Q593.88 123 593.88 115.5 Z" stroke="none" clip-path="url(#clipPath2)"/>
    </g>
    <g text-rendering="geometricPrecision" stroke-miterlimit="1.45" shape-rendering="geometricPrecision" font-family="sans-serif" transform="matrix(1,0,0,1,-116,-60)" stroke-linecap="butt">
      <text x="626.546" xml:space="preserve" y="103.8184" clip-path="url(#clipPath2)" stroke="none">no</text>
      <text x="608.316" xml:space="preserve" y="120.1534" clip-path="url(#clipPath2)" stroke="none">allocated</text>
      <text x="613.809" xml:space="preserve" y="136.4885" clip-path="url(#clipPath2)" stroke="none">chunks</text>
    </g>
    <g fill="white" text-rendering="geometricPrecision" shape-rendering="geometricPrecision" transform="matrix(1,0,0,1,-116,-60)" stroke="white">
      <path d="M131.7757 115.5 Q131.7757 108 139.2757 108 L204.2757 108 Q211.7757 108 211.7757 115.5 L211.7757 115.5 Q211.7757 123 204.2757 123 L139.2757 123 Q131.7757 123 131.7757 115.5 Z" stroke="none" clip-path="url(#clipPath2)"/>
    </g>
    <g stroke-linecap="butt" transform="matrix(1,0,0,1,-116,-60)" fill="gray" text-rendering="geometricPrecision" shape-rendering="geometricPrecision" stroke="gray" stroke-miterlimit="1.45">
      <path fill="none" d="M211.7665 476.136 L238.5818 476.136" clip-path="url(#clipPath2)"/>
    </g>
    <g stroke-linecap="butt" transform="matrix(1,0,0,1,-116,-60)" fill="white" text-rendering="geometricPrecision" shape-rendering="geometricPrecision" stroke="white" stroke-miterlimit="1.45">
      <path d="M253.5818 476.136 L237.5818 470.136 L237.5818 482.136 Z" stroke="none" clip-path="url(#clipPath2)"/>
      <path fill="none" d="M253.5818 476.136 L237.5818 470.136 L237.5818 482.136 Z" clip-path="url(#clipPath2)" stroke="gray"/>
      <path fill="none" d="M333.5797 115.5 L363.0427 115.5" clip-path="url(#clipPath2)" stroke="gray"/>
      <path fill="gray" d="M371.0427 115.5 L359.0427 110.5 L362.0427 115.5 L359.0427 120.5 Z" clip-path="url(#clipPath2)" stroke="none"/>
      <text x="326.0246" y="93.2979" clip-path="url(#clipPath2)" fill="gray" font-family="sans-serif" stroke="none" xml:space="preserve">malloc(2)</text>
      <text x="326.0246" y="109.6329" clip-path="url(#clipPath2)" fill="gray" font-family="sans-serif" stroke="none" xml:space="preserve">malloc(3)</text>
      <path fill="none" d="M442.9762 115.5 L472.4599 115.5" clip-path="url(#clipPath2)" stroke="gray"/>
      <path fill="gray" d="M480.4599 115.5 L468.4599 110.5 L471.4599 115.5 L468.4599 120.5 Z" clip-path="url(#clipPath2)" stroke="none"/>
      <text x="443.7449" y="106.0734" clip-path="url(#clipPath2)" fill="gray" font-family="sans-serif" stroke="none" xml:space="preserve">free(2)</text>
      <path fill="none" d="M560.4597 115.5 L585.9075 115.5" clip-path="url(#clipPath2)" stroke="gray"/>
      <path fill="gray" d="M593.9075 115.5 L581.9075 110.5 L584.9075 115.5 L581.9075 120.5 Z" clip-path="url(#clipPath2)" stroke="none"/>
      <text x="558.6788" y="90.2259" clip-path="url(#clipPath2)" fill="gray" font-family="sans-serif" stroke="none" xml:space="preserve">free(1)</text>
      <text x="558.6788" y="106.561" clip-path="url(#clipPath2)" fill="gray" font-family="sans-serif" stroke="none" xml:space="preserve">free(3)</text>
      <path fill="none" d="M211.7659 115.5 L245.5815 115.5" clip-path="url(#clipPath2)" stroke="gray"/>
      <path fill="gray" d="M253.5815 115.5 L241.5815 110.5 L244.5815 115.5 L241.5815 120.5 Z" clip-path="url(#clipPath2)" stroke="none"/>
      <text x="207.4306" y="106.0734" clip-path="url(#clipPath2)" fill="gray" font-family="sans-serif" stroke="none" xml:space="preserve">malloc(1)</text>
    </g>
  </g>
</svg>
