<?xml version="1.0" encoding="UTF-8"?><svg xmlns="http://www.w3.org/2000/svg" xmlns:xlink="http://www.w3.org/1999/xlink" fill-opacity="1" color-rendering="auto" color-interpolation="auto" text-rendering="auto" stroke="black" stroke-linecap="square" width="285" stroke-miterlimit="10" shape-rendering="auto" stroke-opacity="1" fill="black" stroke-dasharray="none" font-weight="normal" stroke-width="1" height="190" font-family="'Dialog'" font-style="normal" stroke-linejoin="miter" font-size="12px" stroke-dashoffset="0" image-rendering="auto">
  <!--Generated by ySVG 2.5-->
  <defs id="genericDefs"/>
  <g>
    <defs id="defs1">
      <clipPath clipPathUnits="userSpaceOnUse" id="clipPath1">
        <path d="M0 0 L285 0 L285 190 L0 190 L0 0 Z"/>
      </clipPath>
      <clipPath clipPathUnits="userSpaceOnUse" id="clipPath2">
        <path d="M436 281 L721 281 L721 471 L436 471 L436 281 Z"/>
      </clipPath>
    </defs>
    <g fill="white" text-rendering="geometricPrecision" shape-rendering="geometricPrecision" transform="translate(-436,-281)" stroke="white">
      <rect x="436" width="285" height="190" y="281" clip-path="url(#clipPath2)" stroke="none"/>
    </g>
    <g fill="white" text-rendering="geometricPrecision" shape-rendering="geometricPrecision" transform="matrix(1,0,0,1,-436,-281)" stroke="white">
      <rect x="548.0928" width="60" height="40" y="336.68" clip-path="url(#clipPath2)" stroke="none"/>
    </g>
    <g stroke-linecap="butt" transform="matrix(1,0,0,1,-436,-281)" fill="gray" text-rendering="geometricPrecision" shape-rendering="geometricPrecision" stroke="gray" stroke-miterlimit="1.45">
      <rect fill="none" x="548.0928" width="60" height="40" y="336.68" clip-path="url(#clipPath2)"/>
    </g>
    <g font-size="10px" stroke-linecap="butt" transform="matrix(1,0,0,1,-436,-281)" text-rendering="geometricPrecision" font-family="sans-serif" shape-rendering="geometricPrecision" stroke-miterlimit="1.45">
      <text x="563.2859" xml:space="preserve" y="360.5579" clip-path="url(#clipPath2)" stroke="none">libc.so</text>
    </g>
    <g fill="white" text-rendering="geometricPrecision" shape-rendering="geometricPrecision" transform="matrix(1,0,0,1,-436,-281)" stroke="white">
      <rect x="458.0928" width="60" height="40" y="296.68" clip-path="url(#clipPath2)" stroke="none"/>
    </g>
    <g stroke-linecap="butt" transform="matrix(1,0,0,1,-436,-281)" fill="gray" text-rendering="geometricPrecision" shape-rendering="geometricPrecision" stroke="gray" stroke-miterlimit="1.45">
      <rect fill="none" x="458.0928" width="60" height="40" y="296.68" clip-path="url(#clipPath2)"/>
    </g>
    <g font-size="10px" stroke-linecap="butt" transform="matrix(1,0,0,1,-436,-281)" text-rendering="geometricPrecision" font-family="sans-serif" shape-rendering="geometricPrecision" stroke-miterlimit="1.45">
      <text x="463.8911" xml:space="preserve" y="320.5579" clip-path="url(#clipPath2)" stroke="none">Process#1</text>
    </g>
    <g fill="white" text-rendering="geometricPrecision" shape-rendering="geometricPrecision" transform="matrix(1,0,0,1,-436,-281)" stroke="white">
      <rect x="638.0928" width="60" height="40" y="296.68" clip-path="url(#clipPath2)" stroke="none"/>
    </g>
    <g stroke-linecap="butt" transform="matrix(1,0,0,1,-436,-281)" fill="gray" text-rendering="geometricPrecision" shape-rendering="geometricPrecision" stroke="gray" stroke-miterlimit="1.45">
      <rect fill="none" x="638.0928" width="60" height="40" y="296.68" clip-path="url(#clipPath2)"/>
    </g>
    <g font-size="10px" stroke-linecap="butt" transform="matrix(1,0,0,1,-436,-281)" text-rendering="geometricPrecision" font-family="sans-serif" shape-rendering="geometricPrecision" stroke-miterlimit="1.45">
      <text x="643.8911" xml:space="preserve" y="320.5579" clip-path="url(#clipPath2)" stroke="none">Process#2</text>
    </g>
    <g fill="white" text-rendering="geometricPrecision" shape-rendering="geometricPrecision" transform="matrix(1,0,0,1,-436,-281)" stroke="white">
      <rect x="451.8458" width="253.5181" height="7.4453" y="392.344" clip-path="url(#clipPath2)" stroke="none"/>
    </g>
    <g stroke-linecap="butt" transform="matrix(1,0,0,1,-436,-281)" fill="rgb(204,204,0)" text-rendering="geometricPrecision" shape-rendering="geometricPrecision" stroke-dasharray="6,2" stroke="rgb(204,204,0)" stroke-miterlimit="1.45">
      <rect fill="none" x="451.8458" width="253.5181" height="7.4453" y="392.344" clip-path="url(#clipPath2)"/>
    </g>
    <g fill="white" text-rendering="geometricPrecision" shape-rendering="geometricPrecision" transform="matrix(1,0,0,1,-436,-281)" stroke="white">
      <rect x="548.0928" width="60" height="40" y="415.4533" clip-path="url(#clipPath2)" stroke="none"/>
    </g>
    <g stroke-linecap="butt" transform="matrix(1,0,0,1,-436,-281)" fill="gray" text-rendering="geometricPrecision" shape-rendering="geometricPrecision" stroke="gray" stroke-miterlimit="1.45">
      <rect fill="none" x="548.0928" width="60" height="40" y="415.4533" clip-path="url(#clipPath2)"/>
    </g>
    <g font-size="10px" stroke-linecap="butt" transform="matrix(1,0,0,1,-436,-281)" text-rendering="geometricPrecision" font-family="sans-serif" shape-rendering="geometricPrecision" stroke-miterlimit="1.45">
      <text x="562.9211" xml:space="preserve" y="439.3312" clip-path="url(#clipPath2)" stroke="none">Kernel</text>
    </g>
    <g fill="white" text-rendering="geometricPrecision" shape-rendering="geometricPrecision" transform="matrix(1,0,0,1,-436,-281)" stroke="white">
      <rect x="458.0928" width="60" height="40" y="336.68" clip-path="url(#clipPath2)" stroke="none"/>
    </g>
    <g stroke-linecap="butt" transform="matrix(1,0,0,1,-436,-281)" fill="gray" text-rendering="geometricPrecision" shape-rendering="geometricPrecision" stroke-dasharray="6,2" stroke="gray" stroke-miterlimit="1.45">
      <rect fill="none" x="458.0928" width="60" height="40" y="336.68" clip-path="url(#clipPath2)"/>
    </g>
    <g font-size="10px" stroke-linecap="butt" transform="matrix(1,0,0,1,-436,-281)" text-rendering="geometricPrecision" font-family="sans-serif" shape-rendering="geometricPrecision" stroke-miterlimit="1.45">
      <text x="473.2859" xml:space="preserve" y="360.5579" clip-path="url(#clipPath2)" stroke="none">libc.so</text>
    </g>
    <g fill="white" text-rendering="geometricPrecision" shape-rendering="geometricPrecision" transform="matrix(1,0,0,1,-436,-281)" stroke="white">
      <rect x="638.0928" width="60" height="40" y="336.68" clip-path="url(#clipPath2)" stroke="none"/>
    </g>
    <g stroke-linecap="butt" transform="matrix(1,0,0,1,-436,-281)" fill="gray" text-rendering="geometricPrecision" shape-rendering="geometricPrecision" stroke-dasharray="6,2" stroke="gray" stroke-miterlimit="1.45">
      <rect fill="none" x="638.0928" width="60" height="40" y="336.68" clip-path="url(#clipPath2)"/>
    </g>
    <g font-size="10px" stroke-linecap="butt" transform="matrix(1,0,0,1,-436,-281)" text-rendering="geometricPrecision" font-family="sans-serif" shape-rendering="geometricPrecision" stroke-miterlimit="1.45">
      <text x="653.2859" xml:space="preserve" y="360.5579" clip-path="url(#clipPath2)" stroke="none">libc.so</text>
    </g>
    <g stroke-linecap="butt" transform="matrix(1,0,0,1,-436,-281)" fill="rgb(51,153,102)" text-rendering="geometricPrecision" shape-rendering="geometricPrecision" stroke="rgb(51,153,102)" stroke-miterlimit="1.45">
      <path fill="none" d="M518.1074 356.68 L548.0708 356.68" clip-path="url(#clipPath2)"/>
    </g>
    <g stroke-linecap="butt" transform="matrix(1,0,0,1,-436,-281)" fill="rgb(51,153,102)" text-rendering="geometricPrecision" shape-rendering="geometricPrecision" stroke="rgb(51,153,102)" stroke-miterlimit="1.45">
      <path fill="none" d="M488.0928 376.6426 L488.0928 435.4533 L540.0781 435.4533" clip-path="url(#clipPath2)"/>
      <path d="M548.0781 435.4533 L536.0781 430.4533 L539.0781 435.4533 L536.0781 440.4533 Z" clip-path="url(#clipPath2)" stroke="none"/>
      <path fill="none" d="M608.1074 356.68 L638.0708 356.68" clip-path="url(#clipPath2)"/>
      <path fill="none" d="M668.0928 376.6426 L668.0928 435.4533 L616.1074 435.4533" clip-path="url(#clipPath2)"/>
      <path d="M608.1074 435.4533 L620.1074 440.4533 L617.1074 435.4533 L620.1074 430.4533 Z" clip-path="url(#clipPath2)" stroke="none"/>
    </g>
  </g>
</svg>
