<?xml version="1.0" encoding="UTF-8"?><svg xmlns="http://www.w3.org/2000/svg" xmlns:xlink="http://www.w3.org/1999/xlink" fill-opacity="1" color-rendering="auto" color-interpolation="auto" text-rendering="auto" stroke="black" stroke-linecap="square" width="257" stroke-miterlimit="10" shape-rendering="auto" stroke-opacity="1" fill="black" stroke-dasharray="none" font-weight="normal" stroke-width="1" height="287" font-family="'Dialog'" font-style="normal" stroke-linejoin="miter" font-size="12px" stroke-dashoffset="0" image-rendering="auto">
  <!--Generated by ySVG 2.5-->
  <defs id="genericDefs"/>
  <g>
    <defs id="defs1">
      <clipPath clipPathUnits="userSpaceOnUse" id="clipPath1">
        <path d="M0 0 L257 0 L257 287 L0 287 L0 0 Z"/>
      </clipPath>
      <clipPath clipPathUnits="userSpaceOnUse" id="clipPath2">
        <path d="M466 147 L723 147 L723 434 L466 434 L466 147 Z"/>
      </clipPath>
      <clipPath clipPathUnits="userSpaceOnUse" id="clipPath3">
        <path d="M171.6553 -61.6257 L171.6553 195.3743 L-115.3447 195.3743 L-115.3447 -61.6257 L171.6553 -61.6257 Z"/>
      </clipPath>
      <clipPath clipPathUnits="userSpaceOnUse" id="clipPath4">
        <path d="M171.4203 -196.6113 L171.4203 60.3887 L-115.5797 60.3887 L-115.5797 -196.6113 L171.4203 -196.6113 Z"/>
      </clipPath>
    </defs>
    <g fill="white" text-rendering="geometricPrecision" shape-rendering="geometricPrecision" transform="translate(-466,-147)" stroke="white">
      <rect x="466" width="257" height="287" y="147" clip-path="url(#clipPath2)" stroke="none"/>
    </g>
    <g fill="rgb(104,176,227)" text-rendering="geometricPrecision" shape-rendering="geometricPrecision" transform="matrix(1,0,0,1,-466,-147)" stroke="rgb(104,176,227)">
      <path d="M481.0224 162.8487 L481.0224 290.88 L707.816 290.88 L707.816 162.8487 ZM482.0224 184.8487 L482.0224 289.88 L706.816 289.88 L706.816 184.8487 Z" fill-rule="evenodd" clip-path="url(#clipPath2)" stroke="none"/>
    </g>
    <g stroke-linecap="butt" font-size="10px" transform="matrix(1,0,0,1,-466,-147)" fill="white" text-rendering="geometricPrecision" font-family="sans-serif" shape-rendering="geometricPrecision" stroke="white" stroke-miterlimit="1.45">
      <text x="483.0224" xml:space="preserve" y="175.5328" clip-path="url(#clipPath2)" stroke="none">Process #1</text>
    </g>
    <g fill="white" text-rendering="geometricPrecision" shape-rendering="geometricPrecision" transform="matrix(1,0,0,1,-466,-147)" stroke="white">
      <rect x="563.8048" width="60" height="40" y="235.88" clip-path="url(#clipPath2)" stroke="none"/>
    </g>
    <g stroke-linecap="butt" transform="matrix(1,0,0,1,-466,-147)" fill="gray" text-rendering="geometricPrecision" shape-rendering="geometricPrecision" stroke="gray" stroke-miterlimit="1.45">
      <rect fill="none" x="563.8048" width="60" height="40" y="235.88" clip-path="url(#clipPath2)"/>
    </g>
    <g font-size="10px" stroke-linecap="butt" transform="matrix(1,0,0,1,-466,-147)" text-rendering="geometricPrecision" font-family="sans-serif" shape-rendering="geometricPrecision" stroke-miterlimit="1.45">
      <text x="572.3416" xml:space="preserve" y="252.9516" clip-path="url(#clipPath2)" stroke="none">Listening</text>
      <text x="565.1356" xml:space="preserve" y="266.5641" clip-path="url(#clipPath2)" stroke="none">Named Pipe</text>
    </g>
    <g fill="white" text-rendering="geometricPrecision" shape-rendering="geometricPrecision" transform="matrix(1,0,0,1,-466,-147)" stroke="white">
      <rect x="496.0224" width="60" height="40" y="195.88" clip-path="url(#clipPath2)" stroke="none"/>
    </g>
    <g stroke-linecap="butt" transform="matrix(1,0,0,1,-466,-147)" fill="gray" text-rendering="geometricPrecision" shape-rendering="geometricPrecision" stroke="gray" stroke-miterlimit="1.45">
      <rect fill="none" x="496.0224" width="60" height="40" y="195.88" clip-path="url(#clipPath2)"/>
    </g>
    <g font-size="10px" stroke-linecap="butt" transform="matrix(1,0,0,1,-466,-147)" text-rendering="geometricPrecision" font-family="sans-serif" shape-rendering="geometricPrecision" stroke-miterlimit="1.45">
      <text x="515.818" xml:space="preserve" y="206.1454" clip-path="url(#clipPath2)" stroke="none">Pipe</text>
      <text x="499.2421" xml:space="preserve" y="219.7579" clip-path="url(#clipPath2)" stroke="none">Connection</text>
      <text x="519.9357" xml:space="preserve" y="233.3704" clip-path="url(#clipPath2)" stroke="none">#1</text>
    </g>
    <g fill="white" text-rendering="geometricPrecision" shape-rendering="geometricPrecision" transform="matrix(1,0,0,1,-466,-147)" stroke="white">
      <rect x="632.816" width="60" height="40" y="195.88" clip-path="url(#clipPath2)" stroke="none"/>
    </g>
    <g stroke-linecap="butt" transform="matrix(1,0,0,1,-466,-147)" fill="gray" text-rendering="geometricPrecision" shape-rendering="geometricPrecision" stroke="gray" stroke-miterlimit="1.45">
      <rect fill="none" x="632.816" width="60" height="40" y="195.88" clip-path="url(#clipPath2)"/>
    </g>
    <g font-size="10px" stroke-linecap="butt" transform="matrix(1,0,0,1,-466,-147)" text-rendering="geometricPrecision" font-family="sans-serif" shape-rendering="geometricPrecision" stroke-miterlimit="1.45">
      <text x="652.6116" xml:space="preserve" y="206.1454" clip-path="url(#clipPath2)" stroke="none">Pipe</text>
      <text x="636.0357" xml:space="preserve" y="219.7579" clip-path="url(#clipPath2)" stroke="none">Connection</text>
      <text x="656.7293" xml:space="preserve" y="233.3704" clip-path="url(#clipPath2)" stroke="none">#2</text>
    </g>
    <g stroke-linecap="butt" transform="matrix(1,0,0,1,-466,-147)" fill="rgb(51,102,255)" text-rendering="geometricPrecision" shape-rendering="geometricPrecision" stroke="rgb(51,102,255)" stroke-miterlimit="1.45">
      <path fill="none" d="M583.8048 235.8409 L583.8048 215.88 L564.0139 215.88" clip-path="url(#clipPath2)"/>
    </g>
    <g stroke-linecap="butt" transform="matrix(1,0,0,1,-466,-147)" fill="rgb(51,102,255)" text-rendering="geometricPrecision" shape-rendering="geometricPrecision" stroke="rgb(51,102,255)" stroke-miterlimit="1.45">
      <path d="M556.0139 215.88 L568.0139 220.88 L565.0139 215.88 L568.0139 210.88 Z" stroke="none" clip-path="url(#clipPath2)"/>
      <path fill="none" d="M603.8048 235.8409 L603.8048 215.88 L624.8206 215.88" clip-path="url(#clipPath2)"/>
      <path d="M632.8206 215.88 L620.8206 210.88 L623.8206 215.88 L620.8206 220.88 Z" clip-path="url(#clipPath2)" stroke="none"/>
    </g>
    <g font-size="10px" stroke-linecap="butt" transform="matrix(1,0,0,1,-466,-147)" text-rendering="geometricPrecision" font-family="sans-serif" shape-rendering="geometricPrecision" stroke-miterlimit="1.45">
      <text x="575.6763" xml:space="preserve" y="209.7082" clip-path="url(#clipPath2)" stroke="none">accept()</text>
    </g>
    <g fill="rgb(104,176,227)" text-rendering="geometricPrecision" shape-rendering="geometricPrecision" transform="matrix(1,0,0,1,-466,-147)" stroke="rgb(104,176,227)">
      <path d="M481.0224 325.6936 L481.0224 418.9381 L571.0224 418.9381 L571.0224 325.6936 ZM482.0224 347.6936 L482.0224 417.9381 L570.0224 417.9381 L570.0224 347.6936 Z" fill-rule="evenodd" clip-path="url(#clipPath2)" stroke="none"/>
    </g>
    <g stroke-linecap="butt" font-size="10px" transform="matrix(1,0,0,1,-466,-147)" fill="white" text-rendering="geometricPrecision" font-family="sans-serif" shape-rendering="geometricPrecision" stroke="white" stroke-miterlimit="1.45">
      <text x="483.0224" xml:space="preserve" y="338.3777" clip-path="url(#clipPath2)" stroke="none">Process#2</text>
    </g>
    <g fill="white" text-rendering="geometricPrecision" shape-rendering="geometricPrecision" transform="matrix(1,0,0,1,-466,-147)" stroke="white">
      <rect x="496.0224" width="60" height="40" y="363.9381" clip-path="url(#clipPath2)" stroke="none"/>
    </g>
    <g stroke-linecap="butt" transform="matrix(1,0,0,1,-466,-147)" fill="gray" text-rendering="geometricPrecision" shape-rendering="geometricPrecision" stroke="gray" stroke-miterlimit="1.45">
      <rect fill="none" x="496.0224" width="60" height="40" y="363.9381" clip-path="url(#clipPath2)"/>
    </g>
    <g font-size="10px" stroke-linecap="butt" transform="matrix(1,0,0,1,-466,-147)" text-rendering="geometricPrecision" font-family="sans-serif" shape-rendering="geometricPrecision" stroke-miterlimit="1.45">
      <text x="501.0711" xml:space="preserve" y="387.816" clip-path="url(#clipPath2)" stroke="none">Client Pipe</text>
    </g>
    <g stroke-linecap="butt" transform="matrix(1,0,0,1,-466,-147)" fill="rgb(51,102,255)" text-rendering="geometricPrecision" shape-rendering="geometricPrecision" stroke="rgb(51,102,255)" stroke-miterlimit="1.45">
      <path fill="none" d="M556.0139 383.9381 L583.8048 383.9381 L583.8048 283.8578" clip-path="url(#clipPath2)"/>
      <path d="M583.8048 275.8578 L578.8048 287.8578 L583.8048 284.8578 L588.8048 287.8578 Z" clip-path="url(#clipPath2)" stroke="none"/>
    </g>
    <g font-size="10px" stroke-linecap="butt" transform="matrix(1,0,0,1,-466,-147)" text-rendering="geometricPrecision" font-family="sans-serif" shape-rendering="geometricPrecision" stroke-miterlimit="1.45">
      <text x="571.5227" xml:space="preserve" y="394.4688" clip-path="url(#clipPath2)" stroke="none">connect()</text>
    </g>
    <g stroke-linecap="butt" transform="matrix(1,0,0,1,-466,-147)" fill="rgb(51,153,102)" text-rendering="geometricPrecision" shape-rendering="geometricPrecision" stroke="rgb(51,153,102)" stroke-width="2" stroke-miterlimit="1.45">
      <path fill="none" d="M543.8048 354.9566 L543.8048 244.8718" clip-path="url(#clipPath2)"/>
      <path d="M543.8048 363.9566 L549.4298 350.4566 L543.8048 353.8316 L538.1798 350.4566 Z" clip-path="url(#clipPath2)" stroke="none"/>
      <path d="M543.8048 235.8718 L538.1798 249.3718 L543.8048 245.9968 L549.4298 249.3718 Z" clip-path="url(#clipPath2)" stroke="none"/>
    </g>
    <g font-size="10px" stroke-linecap="butt" transform="matrix(0,-1,1,0,61.6257,171.6553)" text-rendering="geometricPrecision" font-family="sans-serif" shape-rendering="geometricPrecision" stroke-miterlimit="1.45">
      <text x="2" xml:space="preserve" y="12.6841" clip-path="url(#clipPath3)" stroke="none">data</text>
    </g>
    <g fill="rgb(104,176,227)" text-rendering="geometricPrecision" shape-rendering="geometricPrecision" transform="matrix(1,0,0,1,-466,-147)" stroke="rgb(104,176,227)">
      <path d="M617.816 325.6936 L617.816 418.9381 L707.816 418.9381 L707.816 325.6936 ZM618.816 347.6936 L618.816 417.9381 L706.816 417.9381 L706.816 347.6936 Z" fill-rule="evenodd" clip-path="url(#clipPath2)" stroke="none"/>
    </g>
    <g stroke-linecap="butt" font-size="10px" transform="matrix(1,0,0,1,-466,-147)" fill="white" text-rendering="geometricPrecision" font-family="sans-serif" shape-rendering="geometricPrecision" stroke="white" stroke-miterlimit="1.45">
      <text x="619.816" xml:space="preserve" y="338.3777" clip-path="url(#clipPath2)" stroke="none">Process#3</text>
    </g>
    <g fill="white" text-rendering="geometricPrecision" shape-rendering="geometricPrecision" transform="matrix(1,0,0,1,-466,-147)" stroke="white">
      <rect x="632.816" width="60" height="40" y="363.9381" clip-path="url(#clipPath2)" stroke="none"/>
    </g>
    <g stroke-linecap="butt" transform="matrix(1,0,0,1,-466,-147)" fill="gray" text-rendering="geometricPrecision" shape-rendering="geometricPrecision" stroke="gray" stroke-miterlimit="1.45">
      <rect fill="none" x="632.816" width="60" height="40" y="363.9381" clip-path="url(#clipPath2)"/>
    </g>
    <g font-size="10px" stroke-linecap="butt" transform="matrix(1,0,0,1,-466,-147)" text-rendering="geometricPrecision" font-family="sans-serif" shape-rendering="geometricPrecision" stroke-miterlimit="1.45">
      <text x="637.8647" xml:space="preserve" y="387.816" clip-path="url(#clipPath2)" stroke="none">Client Pipe</text>
    </g>
    <g stroke-linecap="butt" transform="matrix(1,0,0,1,-466,-147)" fill="rgb(51,102,255)" text-rendering="geometricPrecision" shape-rendering="geometricPrecision" stroke="rgb(51,102,255)" stroke-miterlimit="1.45">
      <path fill="none" d="M632.8206 383.9381 L603.8048 383.9381 L603.8048 283.8768" clip-path="url(#clipPath2)"/>
      <path d="M603.8048 275.8768 L598.8048 287.8768 L603.8048 284.8768 L608.8048 287.8768 Z" clip-path="url(#clipPath2)" stroke="none"/>
      <path fill="none" d="M678.7904 354.9566 L678.7904 244.8718" stroke-width="2" clip-path="url(#clipPath2)" stroke="rgb(51,153,102)"/>
      <path fill="rgb(51,153,102)" d="M678.7904 363.9566 L684.4154 350.4566 L678.7904 353.8316 L673.1654 350.4566 Z" stroke-width="2" clip-path="url(#clipPath2)" stroke="none"/>
      <path fill="rgb(51,153,102)" d="M678.7904 235.8718 L673.1654 249.3718 L678.7904 245.9968 L684.4154 249.3718 Z" stroke-width="2" clip-path="url(#clipPath2)" stroke="none"/>
    </g>
    <g font-size="10px" stroke-linecap="butt" transform="matrix(0,-1,1,0,196.6113,171.4203)" text-rendering="geometricPrecision" font-family="sans-serif" shape-rendering="geometricPrecision" stroke-miterlimit="1.45">
      <text x="2" xml:space="preserve" y="12.6841" clip-path="url(#clipPath4)" stroke="none">data</text>
    </g>
  </g>
</svg>
