<?xml version="1.0" encoding="UTF-8"?><svg xmlns="http://www.w3.org/2000/svg" xmlns:xlink="http://www.w3.org/1999/xlink" fill-opacity="1" color-rendering="auto" color-interpolation="auto" text-rendering="auto" stroke="black" stroke-linecap="square" width="643" stroke-miterlimit="10" shape-rendering="auto" stroke-opacity="1" fill="black" stroke-dasharray="none" font-weight="normal" stroke-width="1" height="445" font-family="'Dialog'" font-style="normal" stroke-linejoin="miter" font-size="12px" stroke-dashoffset="0" image-rendering="auto">
  <!--Generated by ySVG 2.5-->
  <defs id="genericDefs"/>
  <g>
    <defs id="defs1">
      <clipPath clipPathUnits="userSpaceOnUse" id="clipPath1">
        <path d="M0 0 L643 0 L643 445 L0 445 L0 0 Z"/>
      </clipPath>
      <clipPath clipPathUnits="userSpaceOnUse" id="clipPath2">
        <path d="M279 157 L922 157 L922 602 L279 602 L279 157 Z"/>
      </clipPath>
    </defs>
    <g fill="white" text-rendering="geometricPrecision" shape-rendering="geometricPrecision" transform="translate(-279,-157)" stroke="white">
      <rect x="279" width="643" height="445" y="157" clip-path="url(#clipPath2)" stroke="none"/>
    </g>
    <g fill="rgb(104,176,227)" text-rendering="geometricPrecision" shape-rendering="geometricPrecision" transform="matrix(1,0,0,1,-279,-157)" stroke="rgb(104,176,227)">
      <path d="M354.742 345.2198 L354.742 443.0758 L658.342 443.0758 L658.342 345.2198 ZM355.742 367.2198 L355.742 442.0758 L657.342 442.0758 L657.342 367.2198 Z" fill-rule="evenodd" clip-path="url(#clipPath2)" stroke="none"/>
    </g>
    <g stroke-linecap="butt" font-size="10px" transform="matrix(1,0,0,1,-279,-157)" fill="white" text-rendering="geometricPrecision" font-family="sans-serif" shape-rendering="geometricPrecision" stroke="white" stroke-miterlimit="1.45">
      <text x="356.742" xml:space="preserve" y="357.9039" clip-path="url(#clipPath2)" stroke="none">Processes</text>
    </g>
    <g fill="white" text-rendering="geometricPrecision" shape-rendering="geometricPrecision" transform="matrix(1,0,0,1,-279,-157)" stroke="white">
      <rect x="516.2863" width="60" height="40" y="488.9975" clip-path="url(#clipPath2)" stroke="none"/>
    </g>
    <g stroke-linecap="butt" transform="matrix(1,0,0,1,-279,-157)" fill="gray" text-rendering="geometricPrecision" shape-rendering="geometricPrecision" stroke="gray" stroke-miterlimit="1.45">
      <rect fill="none" x="516.2863" width="60" height="40" y="488.9975" clip-path="url(#clipPath2)"/>
    </g>
    <g font-size="10px" stroke-linecap="butt" transform="matrix(1,0,0,1,-279,-157)" text-rendering="geometricPrecision" font-family="sans-serif" shape-rendering="geometricPrecision" stroke-miterlimit="1.45">
      <text x="533.5933" xml:space="preserve" y="512.8754" clip-path="url(#clipPath2)" stroke="none">CPU0</text>
    </g>
    <g fill="white" text-rendering="geometricPrecision" shape-rendering="geometricPrecision" transform="matrix(1,0,0,1,-279,-157)" stroke="white">
      <rect x="318.118" width="197.824" height="23.36" y="497.3175" clip-path="url(#clipPath2)" stroke="none"/>
    </g>
    <g stroke-linecap="butt" transform="matrix(1,0,0,1,-279,-157)" fill="gray" text-rendering="geometricPrecision" shape-rendering="geometricPrecision" stroke="gray" stroke-miterlimit="1.45">
      <rect fill="none" x="318.118" width="197.824" height="23.36" y="497.3175" clip-path="url(#clipPath2)"/>
    </g>
    <g font-size="10px" stroke-linecap="butt" transform="matrix(1,0,0,1,-279,-157)" text-rendering="geometricPrecision" font-family="sans-serif" shape-rendering="geometricPrecision" stroke-miterlimit="1.45">
      <text x="322.118" xml:space="preserve" y="512.8754" clip-path="url(#clipPath2)" stroke="none">Conveyor</text>
    </g>
    <g fill="white" text-rendering="geometricPrecision" shape-rendering="geometricPrecision" transform="matrix(1,0,0,1,-279,-157)" stroke="white">
      <rect x="374.2463" width="60" height="40" y="490.1154" clip-path="url(#clipPath2)" stroke="none"/>
    </g>
    <g stroke-linecap="butt" transform="matrix(1,0,0,1,-279,-157)" fill="rgb(51,102,255)" text-rendering="geometricPrecision" shape-rendering="geometricPrecision" stroke="rgb(51,102,255)" stroke-miterlimit="1.45">
      <rect fill="none" x="374.2463" width="60" height="40" y="490.1154" clip-path="url(#clipPath2)"/>
    </g>
    <g font-size="10px" stroke-linecap="butt" transform="matrix(1,0,0,1,-279,-157)" text-rendering="geometricPrecision" font-family="sans-serif" shape-rendering="geometricPrecision" stroke-miterlimit="1.45">
      <text x="380.0446" xml:space="preserve" y="507.187" clip-path="url(#clipPath2)" stroke="none">Process#1</text>
      <text x="376.1167" xml:space="preserve" y="520.7995" clip-path="url(#clipPath2)" stroke="none">Instructions</text>
    </g>
    <g fill="white" text-rendering="geometricPrecision" shape-rendering="geometricPrecision" transform="matrix(1,0,0,1,-279,-157)" stroke="white">
      <rect x="516.2863" width="60" height="40" y="546.8535" clip-path="url(#clipPath2)" stroke="none"/>
    </g>
    <g stroke-linecap="butt" transform="matrix(1,0,0,1,-279,-157)" fill="gray" text-rendering="geometricPrecision" shape-rendering="geometricPrecision" stroke="gray" stroke-miterlimit="1.45">
      <rect fill="none" x="516.2863" width="60" height="40" y="546.8535" clip-path="url(#clipPath2)"/>
    </g>
    <g font-size="10px" stroke-linecap="butt" transform="matrix(1,0,0,1,-279,-157)" text-rendering="geometricPrecision" font-family="sans-serif" shape-rendering="geometricPrecision" stroke-miterlimit="1.45">
      <text x="533.5933" xml:space="preserve" y="570.7314" clip-path="url(#clipPath2)" stroke="none">CPU1</text>
    </g>
    <g fill="white" text-rendering="geometricPrecision" shape-rendering="geometricPrecision" transform="matrix(1,0,0,1,-279,-157)" stroke="white">
      <rect x="318.118" width="197.824" height="23.36" y="555.1735" clip-path="url(#clipPath2)" stroke="none"/>
    </g>
    <g stroke-linecap="butt" transform="matrix(1,0,0,1,-279,-157)" fill="gray" text-rendering="geometricPrecision" shape-rendering="geometricPrecision" stroke="gray" stroke-miterlimit="1.45">
      <rect fill="none" x="318.118" width="197.824" height="23.36" y="555.1735" clip-path="url(#clipPath2)"/>
    </g>
    <g font-size="10px" stroke-linecap="butt" transform="matrix(1,0,0,1,-279,-157)" text-rendering="geometricPrecision" font-family="sans-serif" shape-rendering="geometricPrecision" stroke-miterlimit="1.45">
      <text x="322.118" xml:space="preserve" y="569.8577" clip-path="url(#clipPath2)" stroke="none">Conveyor</text>
    </g>
    <g fill="white" text-rendering="geometricPrecision" shape-rendering="geometricPrecision" transform="matrix(1,0,0,1,-279,-157)" stroke="white">
      <rect x="444.0715" width="60" height="40" y="546.8535" clip-path="url(#clipPath2)" stroke="none"/>
    </g>
    <g stroke-linecap="butt" transform="matrix(1,0,0,1,-279,-157)" fill="rgb(51,102,255)" text-rendering="geometricPrecision" shape-rendering="geometricPrecision" stroke="rgb(51,102,255)" stroke-miterlimit="1.45">
      <rect fill="none" x="444.0715" width="60" height="40" y="546.8535" clip-path="url(#clipPath2)"/>
    </g>
    <g font-size="10px" stroke-linecap="butt" transform="matrix(1,0,0,1,-279,-157)" text-rendering="geometricPrecision" font-family="sans-serif" shape-rendering="geometricPrecision" stroke-miterlimit="1.45">
      <text x="449.8698" xml:space="preserve" y="563.9252" clip-path="url(#clipPath2)" stroke="none">Process#3</text>
      <text x="445.942" xml:space="preserve" y="577.5377" clip-path="url(#clipPath2)" stroke="none">Instructions</text>
    </g>
    <g fill="white" text-rendering="geometricPrecision" shape-rendering="geometricPrecision" transform="matrix(1,0,0,1,-279,-157)" stroke="white">
      <rect x="295.4988" width="610.9504" height="7.4453" y="462.5435" clip-path="url(#clipPath2)" stroke="none"/>
    </g>
    <g stroke-linecap="butt" transform="matrix(1,0,0,1,-279,-157)" fill="rgb(204,204,0)" text-rendering="geometricPrecision" shape-rendering="geometricPrecision" stroke-dasharray="6,2" stroke="rgb(204,204,0)" stroke-miterlimit="1.45">
      <rect fill="none" x="295.4988" width="610.9504" height="7.4453" y="462.5435" clip-path="url(#clipPath2)"/>
    </g>
    <g font-size="10px" stroke-linecap="butt" transform="matrix(1,0,0,1,-279,-157)" text-rendering="geometricPrecision" font-family="sans-serif" shape-rendering="geometricPrecision" stroke-miterlimit="1.45">
      <text x="294.9056" xml:space="preserve" y="484.673" clip-path="url(#clipPath2)" stroke="none">Hardware</text>
    </g>
    <g fill="white" text-rendering="geometricPrecision" shape-rendering="geometricPrecision" transform="matrix(1,0,0,1,-279,-157)" stroke="white">
      <rect x="295.4988" width="610.9504" height="7.4453" y="313.2319" clip-path="url(#clipPath2)" stroke="none"/>
    </g>
    <g stroke-linecap="butt" transform="matrix(1,0,0,1,-279,-157)" fill="rgb(204,204,0)" text-rendering="geometricPrecision" shape-rendering="geometricPrecision" stroke-dasharray="6,2" stroke="rgb(204,204,0)" stroke-miterlimit="1.45">
      <rect fill="none" x="295.4988" width="610.9504" height="7.4453" y="313.2319" clip-path="url(#clipPath2)"/>
    </g>
    <g font-size="10px" stroke-linecap="butt" transform="matrix(1,0,0,1,-279,-157)" text-rendering="geometricPrecision" font-family="sans-serif" shape-rendering="geometricPrecision" stroke-miterlimit="1.45">
      <text x="295.1118" xml:space="preserve" y="335.3614" clip-path="url(#clipPath2)" stroke="none">Kernel</text>
    </g>
    <g fill="white" text-rendering="geometricPrecision" shape-rendering="geometricPrecision" transform="matrix(1,0,0,1,-279,-157)" stroke="white">
      <rect x="606.2863" width="60" height="40" y="488.9975" clip-path="url(#clipPath2)" stroke="none"/>
    </g>
    <g stroke-linecap="butt" transform="matrix(1,0,0,1,-279,-157)" fill="rgb(51,102,255)" text-rendering="geometricPrecision" shape-rendering="geometricPrecision" stroke="rgb(51,102,255)" stroke-miterlimit="1.45">
      <rect fill="none" x="606.2863" width="60" height="40" y="488.9975" clip-path="url(#clipPath2)"/>
    </g>
    <g font-size="10px" stroke-linecap="butt" transform="matrix(1,0,0,1,-279,-157)" text-rendering="geometricPrecision" font-family="sans-serif" shape-rendering="geometricPrecision" stroke-miterlimit="1.45">
      <text x="612.0845" xml:space="preserve" y="506.0692" clip-path="url(#clipPath2)" stroke="none">Process#1</text>
      <text x="616.6271" xml:space="preserve" y="519.6817" clip-path="url(#clipPath2)" stroke="none">Memory</text>
    </g>
    <g fill="white" text-rendering="geometricPrecision" shape-rendering="geometricPrecision" transform="matrix(1,0,0,1,-279,-157)" stroke="white">
      <rect x="606.2863" width="60" height="40" y="546.8535" clip-path="url(#clipPath2)" stroke="none"/>
    </g>
    <g stroke-linecap="butt" transform="matrix(1,0,0,1,-279,-157)" fill="rgb(51,102,255)" text-rendering="geometricPrecision" shape-rendering="geometricPrecision" stroke="rgb(51,102,255)" stroke-miterlimit="1.45">
      <rect fill="none" x="606.2863" width="60" height="40" y="546.8535" clip-path="url(#clipPath2)"/>
    </g>
    <g font-size="10px" stroke-linecap="butt" transform="matrix(1,0,0,1,-279,-157)" text-rendering="geometricPrecision" font-family="sans-serif" shape-rendering="geometricPrecision" stroke-miterlimit="1.45">
      <text x="612.0845" xml:space="preserve" y="563.9252" clip-path="url(#clipPath2)" stroke="none">Process#3</text>
      <text x="616.6271" xml:space="preserve" y="577.5377" clip-path="url(#clipPath2)" stroke="none">Memory</text>
    </g>
    <g fill="white" text-rendering="geometricPrecision" shape-rendering="geometricPrecision" transform="matrix(1,0,0,1,-279,-157)" stroke="white">
      <rect x="666.2863" width="60" height="97.856" y="488.9975" clip-path="url(#clipPath2)" stroke="none"/>
    </g>
    <g stroke-linecap="butt" transform="matrix(1,0,0,1,-279,-157)" fill="gray" text-rendering="geometricPrecision" shape-rendering="geometricPrecision" stroke="gray" stroke-miterlimit="1.45">
      <rect fill="none" x="666.2863" width="60" height="97.856" y="488.9975" clip-path="url(#clipPath2)"/>
    </g>
    <g font-size="10px" stroke-linecap="butt" transform="matrix(1,0,0,1,-279,-157)" text-rendering="geometricPrecision" font-family="sans-serif" shape-rendering="geometricPrecision" stroke-miterlimit="1.45">
      <text x="679.3056" xml:space="preserve" y="534.9971" clip-path="url(#clipPath2)" stroke="none">System</text>
      <text x="676.6271" xml:space="preserve" y="548.6097" clip-path="url(#clipPath2)" stroke="none">Memory</text>
    </g>
    <g stroke-linecap="butt" transform="matrix(1,0,0,1,-279,-157)" fill="gray" text-rendering="geometricPrecision" shape-rendering="geometricPrecision" stroke="gray" stroke-miterlimit="1.45">
      <path fill="none" d="M576.3009 508.9976 L598.2643 508.9976" clip-path="url(#clipPath2)"/>
    </g>
    <g stroke-linecap="butt" transform="matrix(1,0,0,1,-279,-157)" fill="gray" text-rendering="geometricPrecision" shape-rendering="geometricPrecision" stroke="gray" stroke-miterlimit="1.45">
      <path d="M606.2643 508.9976 L594.2643 503.9976 L597.2643 508.9976 L594.2643 513.9976 Z" stroke="none" clip-path="url(#clipPath2)"/>
      <path fill="none" d="M576.3009 566.8536 L598.2643 566.8536" clip-path="url(#clipPath2)"/>
      <path d="M606.2643 566.8536 L594.2643 561.8536 L597.2643 566.8536 L594.2643 571.8536 Z" clip-path="url(#clipPath2)" stroke="none"/>
    </g>
    <g fill="rgb(104,176,227)" text-rendering="geometricPrecision" shape-rendering="geometricPrecision" transform="matrix(1,0,0,1,-279,-157)" stroke="rgb(104,176,227)">
      <path d="M364.2891 172.3113 L364.2891 300.8838 L515.942 300.8838 L515.942 172.3113 ZM365.2891 194.3113 L365.2891 299.8838 L514.942 299.8838 L514.942 194.3113 Z" fill-rule="evenodd" clip-path="url(#clipPath2)" stroke="none"/>
    </g>
    <g stroke-linecap="butt" font-size="10px" transform="matrix(1,0,0,1,-279,-157)" fill="white" text-rendering="geometricPrecision" font-family="sans-serif" shape-rendering="geometricPrecision" stroke="white" stroke-miterlimit="1.45">
      <text x="366.2891" xml:space="preserve" y="184.9954" clip-path="url(#clipPath2)" stroke="none">User A</text>
    </g>
    <g fill="white" text-rendering="geometricPrecision" shape-rendering="geometricPrecision" transform="matrix(1,0,0,1,-279,-157)" stroke="white">
      <rect x="379.502" width="121.44" height="80.96" y="204.9238" clip-path="url(#clipPath2)" stroke="none"/>
    </g>
    <g stroke-linecap="butt" transform="matrix(1,0,0,1,-279,-157)" fill="rgb(51,102,255)" text-rendering="geometricPrecision" shape-rendering="geometricPrecision" stroke="rgb(51,102,255)" stroke-miterlimit="1.45">
      <rect fill="none" x="379.502" width="121.44" height="80.96" y="204.9238" clip-path="url(#clipPath2)"/>
    </g>
    <g font-size="10px" stroke-linecap="butt" transform="matrix(1,0,0,1,-279,-157)" text-rendering="geometricPrecision" font-family="sans-serif" shape-rendering="geometricPrecision" stroke-miterlimit="1.45">
      <text x="414.5112" xml:space="preserve" y="216.1876" clip-path="url(#clipPath2)" stroke="none">`qterminal`</text>
      <text x="420.1331" xml:space="preserve" y="229.8001" clip-path="url(#clipPath2)" stroke="none">Instance</text>
    </g>
    <g fill="white" text-rendering="geometricPrecision" shape-rendering="geometricPrecision" transform="matrix(1,0,0,1,-279,-157)" stroke="white">
      <rect x="410.222" width="60" height="40" y="237.5638" clip-path="url(#clipPath2)" stroke="none"/>
    </g>
    <g stroke-linecap="butt" transform="matrix(1,0,0,1,-279,-157)" fill="rgb(51,102,255)" text-rendering="geometricPrecision" shape-rendering="geometricPrecision" stroke="rgb(51,102,255)" stroke-miterlimit="1.45">
      <rect fill="none" x="410.222" width="60" height="40" y="237.5638" clip-path="url(#clipPath2)"/>
    </g>
    <g font-size="10px" stroke-linecap="butt" transform="matrix(1,0,0,1,-279,-157)" text-rendering="geometricPrecision" font-family="sans-serif" shape-rendering="geometricPrecision" stroke-miterlimit="1.45">
      <text x="426.0548" xml:space="preserve" y="254.6354" clip-path="url(#clipPath2)" stroke="none">`bash`</text>
      <text x="420.1331" xml:space="preserve" y="268.2479" clip-path="url(#clipPath2)" stroke="none">Instance</text>
    </g>
    <g fill="gray" text-rendering="geometricPrecision" shape-rendering="geometricPrecision" transform="matrix(1,0,0,1,-279,-157)" stroke="gray">
      <path d="M526.7921 172.3113 L526.7921 300.8838 L678.445 300.8838 L678.445 172.3113 ZM527.7921 194.3113 L527.7921 299.8838 L677.445 299.8838 L677.445 194.3113 Z" fill-rule="evenodd" clip-path="url(#clipPath2)" stroke="none"/>
    </g>
    <g stroke-linecap="butt" font-size="10px" transform="matrix(1,0,0,1,-279,-157)" fill="white" text-rendering="geometricPrecision" font-family="sans-serif" shape-rendering="geometricPrecision" stroke="white" stroke-miterlimit="1.45">
      <text x="528.7921" xml:space="preserve" y="184.9954" clip-path="url(#clipPath2)" stroke="none">User B</text>
    </g>
    <g fill="white" text-rendering="geometricPrecision" shape-rendering="geometricPrecision" transform="matrix(1,0,0,1,-279,-157)" stroke="white">
      <rect x="570.974" width="60" height="40" y="245.8838" clip-path="url(#clipPath2)" stroke="none"/>
    </g>
    <g stroke-linecap="butt" transform="matrix(1,0,0,1,-279,-157)" fill="gray" text-rendering="geometricPrecision" shape-rendering="geometricPrecision" stroke="gray" stroke-miterlimit="1.45">
      <rect fill="none" x="570.974" width="60" height="40" y="245.8838" clip-path="url(#clipPath2)"/>
    </g>
    <g font-size="10px" stroke-linecap="butt" transform="matrix(1,0,0,1,-279,-157)" text-rendering="geometricPrecision" font-family="sans-serif" shape-rendering="geometricPrecision" stroke-miterlimit="1.45">
      <text x="596.9562" xml:space="preserve" y="269.7617" clip-path="url(#clipPath2)" stroke="none">...</text>
    </g>
    <g fill="white" text-rendering="geometricPrecision" shape-rendering="geometricPrecision" transform="matrix(1,0,0,1,-279,-157)" stroke="white">
      <rect x="751.6783" width="80" height="40" y="546.8535" clip-path="url(#clipPath2)" stroke="none"/>
    </g>
    <g stroke-linecap="butt" transform="matrix(1,0,0,1,-279,-157)" fill="gray" text-rendering="geometricPrecision" shape-rendering="geometricPrecision" stroke="gray" stroke-miterlimit="1.45">
      <rect fill="none" x="751.6783" width="80" height="40" y="546.8535" clip-path="url(#clipPath2)"/>
    </g>
    <g font-size="10px" stroke-linecap="butt" transform="matrix(1,0,0,1,-279,-157)" text-rendering="geometricPrecision" font-family="sans-serif" shape-rendering="geometricPrecision" stroke-miterlimit="1.45">
      <text x="769.1506" xml:space="preserve" y="570.7314" clip-path="url(#clipPath2)" stroke="none">/bin/bash</text>
    </g>
    <g fill="white" text-rendering="geometricPrecision" shape-rendering="geometricPrecision" transform="matrix(1,0,0,1,-279,-157)" stroke="white">
      <rect x="751.6783" width="80" height="40" y="488.9975" clip-path="url(#clipPath2)" stroke="none"/>
    </g>
    <g stroke-linecap="butt" transform="matrix(1,0,0,1,-279,-157)" fill="gray" text-rendering="geometricPrecision" shape-rendering="geometricPrecision" stroke="gray" stroke-miterlimit="1.45">
      <rect fill="none" x="751.6783" width="80" height="40" y="488.9975" clip-path="url(#clipPath2)"/>
    </g>
    <g font-size="10px" stroke-linecap="butt" transform="matrix(1,0,0,1,-279,-157)" text-rendering="geometricPrecision" font-family="sans-serif" shape-rendering="geometricPrecision" stroke-miterlimit="1.45">
      <text x="757.607" xml:space="preserve" y="512.8754" clip-path="url(#clipPath2)" stroke="none">/bin/qterminal</text>
    </g>
    <g fill="white" text-rendering="geometricPrecision" shape-rendering="geometricPrecision" transform="matrix(1,0,0,1,-279,-157)" stroke="white">
      <rect x="831.6783" width="60" height="97.856" y="488.9975" clip-path="url(#clipPath2)" stroke="none"/>
    </g>
    <g stroke-linecap="butt" transform="matrix(1,0,0,1,-279,-157)" fill="gray" text-rendering="geometricPrecision" shape-rendering="geometricPrecision" stroke="gray" stroke-miterlimit="1.45">
      <rect fill="none" x="831.6783" width="60" height="97.856" y="488.9975" clip-path="url(#clipPath2)"/>
    </g>
    <g font-size="10px" stroke-linecap="butt" transform="matrix(1,0,0,1,-279,-157)" text-rendering="geometricPrecision" font-family="sans-serif" shape-rendering="geometricPrecision" stroke-miterlimit="1.45">
      <text x="843.3483" xml:space="preserve" y="541.8034" clip-path="url(#clipPath2)" stroke="none">Storage</text>
    </g>
    <g fill="white" text-rendering="geometricPrecision" shape-rendering="geometricPrecision" transform="matrix(1,0,0,1,-279,-157)" stroke="white">
      <rect x="688.342" width="60" height="40" y="377.8323" clip-path="url(#clipPath2)" stroke="none"/>
    </g>
    <g stroke-linecap="butt" transform="matrix(1,0,0,1,-279,-157)" fill="gray" text-rendering="geometricPrecision" shape-rendering="geometricPrecision" stroke="gray" stroke-miterlimit="1.45">
      <rect fill="none" x="688.342" width="60" height="40" y="377.8323" clip-path="url(#clipPath2)"/>
    </g>
    <g font-size="10px" stroke-linecap="butt" transform="matrix(1,0,0,1,-279,-157)" text-rendering="geometricPrecision" font-family="sans-serif" shape-rendering="geometricPrecision" stroke-miterlimit="1.45">
      <text x="701.941" xml:space="preserve" y="401.7102" clip-path="url(#clipPath2)" stroke="none">Loader</text>
    </g>
    <g fill="white" text-rendering="geometricPrecision" shape-rendering="geometricPrecision" transform="matrix(1,0,0,1,-279,-157)" stroke="white">
      <rect x="369.742" width="60" height="40" y="377.8323" clip-path="url(#clipPath2)" stroke="none"/>
    </g>
    <g stroke-linecap="butt" transform="matrix(1,0,0,1,-279,-157)" fill="rgb(51,102,255)" text-rendering="geometricPrecision" shape-rendering="geometricPrecision" stroke="rgb(51,102,255)" stroke-miterlimit="1.45">
      <rect fill="none" x="369.742" width="60" height="40" y="377.8323" clip-path="url(#clipPath2)"/>
    </g>
    <g font-size="10px" stroke-linecap="butt" transform="matrix(1,0,0,1,-279,-157)" text-rendering="geometricPrecision" font-family="sans-serif" shape-rendering="geometricPrecision" stroke-miterlimit="1.45">
      <text x="375.5403" xml:space="preserve" y="401.7102" clip-path="url(#clipPath2)" stroke="none">Process#1</text>
    </g>
    <g fill="white" text-rendering="geometricPrecision" shape-rendering="geometricPrecision" transform="matrix(1,0,0,1,-279,-157)" stroke="white">
      <rect x="441.542" width="60" height="40" y="377.8323" clip-path="url(#clipPath2)" stroke="none"/>
    </g>
    <g stroke-linecap="butt" transform="matrix(1,0,0,1,-279,-157)" fill="gray" text-rendering="geometricPrecision" shape-rendering="geometricPrecision" stroke="gray" stroke-miterlimit="1.45">
      <rect fill="none" x="441.542" width="60" height="40" y="377.8323" clip-path="url(#clipPath2)"/>
    </g>
    <g font-size="10px" stroke-linecap="butt" transform="matrix(1,0,0,1,-279,-157)" text-rendering="geometricPrecision" font-family="sans-serif" shape-rendering="geometricPrecision" stroke-miterlimit="1.45">
      <text x="447.3403" xml:space="preserve" y="401.7102" clip-path="url(#clipPath2)" stroke="none">Process#2</text>
    </g>
    <g fill="white" text-rendering="geometricPrecision" shape-rendering="geometricPrecision" transform="matrix(1,0,0,1,-279,-157)" stroke="white">
      <rect x="513.342" width="60" height="40" y="377.8323" clip-path="url(#clipPath2)" stroke="none"/>
    </g>
    <g stroke-linecap="butt" transform="matrix(1,0,0,1,-279,-157)" fill="rgb(51,102,255)" text-rendering="geometricPrecision" shape-rendering="geometricPrecision" stroke="rgb(51,102,255)" stroke-miterlimit="1.45">
      <rect fill="none" x="513.342" width="60" height="40" y="377.8323" clip-path="url(#clipPath2)"/>
    </g>
    <g font-size="10px" stroke-linecap="butt" transform="matrix(1,0,0,1,-279,-157)" text-rendering="geometricPrecision" font-family="sans-serif" shape-rendering="geometricPrecision" stroke-miterlimit="1.45">
      <text x="519.1403" xml:space="preserve" y="401.7102" clip-path="url(#clipPath2)" stroke="none">Process#3</text>
    </g>
    <g fill="white" text-rendering="geometricPrecision" shape-rendering="geometricPrecision" transform="matrix(1,0,0,1,-279,-157)" stroke="white">
      <rect x="583.342" width="60" height="40" y="377.8323" clip-path="url(#clipPath2)" stroke="none"/>
    </g>
    <g stroke-linecap="butt" transform="matrix(1,0,0,1,-279,-157)" fill="gray" text-rendering="geometricPrecision" shape-rendering="geometricPrecision" stroke="gray" stroke-miterlimit="1.45">
      <rect fill="none" x="583.342" width="60" height="40" y="377.8323" clip-path="url(#clipPath2)"/>
    </g>
    <g font-size="10px" stroke-linecap="butt" transform="matrix(1,0,0,1,-279,-157)" text-rendering="geometricPrecision" font-family="sans-serif" shape-rendering="geometricPrecision" stroke-miterlimit="1.45">
      <text x="589.1403" xml:space="preserve" y="401.7102" clip-path="url(#clipPath2)" stroke="none">Process#4</text>
    </g>
    <g stroke-linecap="butt" transform="matrix(1,0,0,1,-279,-157)" fill="rgb(51,153,102)" text-rendering="geometricPrecision" shape-rendering="geometricPrecision" stroke="rgb(51,153,102)" stroke-miterlimit="1.45">
      <path fill="none" d="M743.6785 566.8536 L732.7858 566.8536 L732.7858 417.8275" clip-path="url(#clipPath2)"/>
      <path d="M751.6785 566.8536 L739.6785 561.8536 L742.6785 566.8536 L739.6785 571.8536 Z" clip-path="url(#clipPath2)" stroke="none"/>
      <path fill="none" d="M732.7858 417.8344 L732.7858 508.9976 L743.6785 508.9976" clip-path="url(#clipPath2)"/>
      <path d="M751.6785 508.9976 L739.6785 503.9976 L742.6785 508.9976 L739.6785 513.9976 Z" clip-path="url(#clipPath2)" stroke="none"/>
      <path fill="none" d="M712.7858 417.8407 L712.7858 480.9945" clip-path="url(#clipPath2)"/>
      <path d="M712.7858 488.9945 L717.7858 476.9945 L712.7858 479.9945 L707.7858 476.9945 Z" clip-path="url(#clipPath2)" stroke="none"/>
      <path fill="none" d="M415.1021 285.8554 L415.1021 377.8481" clip-path="url(#clipPath2)" stroke="rgb(51,102,255)"/>
      <path fill="none" d="M701.2709 417.8314 L701.2709 452.8097 L399.742 452.8097 L399.742 425.8671" clip-path="url(#clipPath2)"/>
      <path d="M399.742 417.8671 L394.742 429.8671 L399.742 426.8671 L404.742 429.8671 Z" clip-path="url(#clipPath2)" stroke="none"/>
      <path fill="none" d="M390.014 417.8271 L390.014 490.0863" clip-path="url(#clipPath2)" stroke="rgb(51,102,255)"/>
      <path fill="none" d="M600.9741 285.9002 L600.9741 336.1988 L486.2877 336.1988 L486.2877 377.8195" clip-path="url(#clipPath2)" stroke="gray"/>
      <path fill="none" d="M440.222 277.5258 L440.222 307.0579 L527.47 307.0579 L527.47 377.8424" clip-path="url(#clipPath2)" stroke="rgb(51,102,255)"/>
      <path fill="none" d="M701.2709 417.8314 L701.2709 452.8097 L563.342 452.8097 L563.342 425.8634" clip-path="url(#clipPath2)"/>
      <path d="M563.342 417.8634 L558.342 429.8634 L563.342 426.8634 L568.342 429.8634 Z" clip-path="url(#clipPath2)" stroke="none"/>
      <path fill="none" d="M415.5285 417.833 L415.5285 435.9134 L526.8873 435.9134 L526.8873 425.833" clip-path="url(#clipPath2)" stroke="rgb(51,102,255)"/>
      <path fill="rgb(51,102,255)" d="M526.8873 417.833 L521.8873 429.833 L526.8873 426.833 L531.8873 429.833 Z" clip-path="url(#clipPath2)" stroke="none"/>
    </g>
    <g font-size="10px" stroke-linecap="butt" transform="matrix(1,0,0,1,-279,-157)" text-rendering="geometricPrecision" font-family="sans-serif" shape-rendering="geometricPrecision" stroke-miterlimit="1.45">
      <text x="438.1521" xml:space="preserve" y="433.3687" clip-path="url(#clipPath2)" stroke="none">parent - child</text>
    </g>
    <g stroke-linecap="butt" transform="matrix(1,0,0,1,-279,-157)" fill="rgb(51,102,255)" text-rendering="geometricPrecision" shape-rendering="geometricPrecision" stroke="rgb(51,102,255)" stroke-miterlimit="1.45">
      <path fill="none" d="M540.9868 417.8259 L540.9868 478.2601 L474.0715 478.2601 L474.0715 546.825" clip-path="url(#clipPath2)"/>
    </g>
  </g>
</svg>
