<?xml version="1.0" encoding="UTF-8"?><svg xmlns="http://www.w3.org/2000/svg" xmlns:xlink="http://www.w3.org/1999/xlink" fill-opacity="1" color-rendering="auto" color-interpolation="auto" text-rendering="auto" stroke="black" stroke-linecap="square" width="274" stroke-miterlimit="10" shape-rendering="auto" stroke-opacity="1" fill="black" stroke-dasharray="none" font-weight="normal" stroke-width="1" height="283" font-family="'Dialog'" font-style="normal" stroke-linejoin="miter" font-size="12px" stroke-dashoffset="0" image-rendering="auto">
  <!--Generated by ySVG 2.5-->
  <defs id="genericDefs"/>
  <g>
    <defs id="defs1">
      <clipPath clipPathUnits="userSpaceOnUse" id="clipPath1">
        <path d="M0 0 L274 0 L274 283 L0 283 L0 0 Z"/>
      </clipPath>
      <clipPath clipPathUnits="userSpaceOnUse" id="clipPath2">
        <path d="M408 241 L682 241 L682 524 L408 524 L408 241 Z"/>
      </clipPath>
    </defs>
    <g fill="white" text-rendering="geometricPrecision" shape-rendering="geometricPrecision" transform="translate(-408,-241)" stroke="white">
      <rect x="408" width="274" height="283" y="241" clip-path="url(#clipPath2)" stroke="none"/>
    </g>
    <g fill="white" text-rendering="geometricPrecision" shape-rendering="geometricPrecision" transform="matrix(1,0,0,1,-408,-241)" stroke="white">
      <rect x="579.6496" width="60" height="40" y="256.704" clip-path="url(#clipPath2)" stroke="none"/>
    </g>
    <g stroke-linecap="butt" transform="matrix(1,0,0,1,-408,-241)" fill="gray" text-rendering="geometricPrecision" shape-rendering="geometricPrecision" stroke="gray" stroke-miterlimit="1.45">
      <rect fill="none" x="579.6496" width="60" height="40" y="256.704" clip-path="url(#clipPath2)"/>
    </g>
    <g font-size="10px" stroke-linecap="butt" transform="matrix(1,0,0,1,-408,-241)" text-rendering="geometricPrecision" font-family="sans-serif" shape-rendering="geometricPrecision" stroke-miterlimit="1.45">
      <text x="585.4479" xml:space="preserve" y="280.5819" clip-path="url(#clipPath2)" stroke="none">Process#3</text>
    </g>
    <g fill="rgb(104,176,227)" text-rendering="geometricPrecision" shape-rendering="geometricPrecision" transform="matrix(1,0,0,1,-408,-241)" stroke="rgb(104,176,227)">
      <path d="M444.3024 354.1445 L444.3024 438.9603 L657.592 438.9603 L657.592 354.1445 ZM445.3024 376.1445 L445.3024 437.9603 L656.592 437.9603 L656.592 376.1445 Z" fill-rule="evenodd" clip-path="url(#clipPath2)" stroke="none"/>
    </g>
    <g stroke-linecap="butt" font-size="10px" transform="matrix(1,0,0,1,-408,-241)" fill="white" text-rendering="geometricPrecision" font-family="sans-serif" shape-rendering="geometricPrecision" stroke="white" stroke-miterlimit="1.45">
      <text x="446.3024" xml:space="preserve" y="366.8287" clip-path="url(#clipPath2)" stroke="none">Semaphore</text>
    </g>
    <g fill="white" text-rendering="geometricPrecision" shape-rendering="geometricPrecision" transform="matrix(1,0,0,1,-408,-241)" stroke="white">
      <rect x="579.3024" width="60" height="20" y="403.9603" clip-path="url(#clipPath2)" stroke="none"/>
    </g>
    <g font-size="10px" stroke-linecap="butt" transform="matrix(1,0,0,1,-408,-241)" text-rendering="geometricPrecision" font-family="sans-serif" shape-rendering="geometricPrecision" stroke-miterlimit="1.45">
      <text x="584.541" xml:space="preserve" y="417.8381" clip-path="url(#clipPath2)" stroke="none">Counter=0</text>
    </g>
    <g fill="white" text-rendering="geometricPrecision" shape-rendering="geometricPrecision" transform="matrix(1,0,0,1,-408,-241)" stroke="white">
      <rect x="459.3024" width="60" height="20" y="389.2147" clip-path="url(#clipPath2)" stroke="none"/>
    </g>
    <g font-size="10px" stroke-linecap="butt" transform="matrix(1,0,0,1,-408,-241)" text-rendering="geometricPrecision" font-family="sans-serif" shape-rendering="geometricPrecision" stroke-miterlimit="1.45">
      <text x="464.541" xml:space="preserve" y="403.0925" clip-path="url(#clipPath2)" stroke="none">Counter=2</text>
    </g>
    <g fill="white" text-rendering="geometricPrecision" shape-rendering="geometricPrecision" transform="matrix(1,0,0,1,-408,-241)" stroke="white">
      <rect x="519.3024" width="60" height="20" y="397.4067" clip-path="url(#clipPath2)" stroke="none"/>
    </g>
    <g font-size="10px" stroke-linecap="butt" transform="matrix(1,0,0,1,-408,-241)" text-rendering="geometricPrecision" font-family="sans-serif" shape-rendering="geometricPrecision" stroke-miterlimit="1.45">
      <text x="524.541" xml:space="preserve" y="411.2845" clip-path="url(#clipPath2)" stroke="none">Counter=1</text>
    </g>
    <g fill="white" text-rendering="geometricPrecision" shape-rendering="geometricPrecision" transform="matrix(1,0,0,1,-408,-241)" stroke="white">
      <rect x="459.3024" width="120" height="40" y="468.9603" clip-path="url(#clipPath2)" stroke="none"/>
    </g>
    <g stroke-linecap="butt" transform="matrix(1,0,0,1,-408,-241)" fill="gray" text-rendering="geometricPrecision" shape-rendering="geometricPrecision" stroke="gray" stroke-miterlimit="1.45">
      <rect fill="none" x="459.3024" width="120" height="40" y="468.9603" clip-path="url(#clipPath2)"/>
    </g>
    <g font-size="10px" stroke-linecap="butt" transform="matrix(1,0,0,1,-408,-241)" text-rendering="geometricPrecision" font-family="sans-serif" shape-rendering="geometricPrecision" stroke-miterlimit="1.45">
      <text x="502.7115" xml:space="preserve" y="486.0319" clip-path="url(#clipPath2)" stroke="none">Shared</text>
      <text x="497.5893" xml:space="preserve" y="499.6444" clip-path="url(#clipPath2)" stroke="none">Resource</text>
    </g>
    <g fill="white" text-rendering="geometricPrecision" shape-rendering="geometricPrecision" transform="matrix(1,0,0,1,-408,-241)" stroke="white">
      <rect x="459.3024" width="60" height="40" y="256.704" clip-path="url(#clipPath2)" stroke="none"/>
    </g>
    <g stroke-linecap="butt" transform="matrix(1,0,0,1,-408,-241)" fill="gray" text-rendering="geometricPrecision" shape-rendering="geometricPrecision" stroke="gray" stroke-miterlimit="1.45">
      <rect fill="none" x="459.3024" width="60" height="40" y="256.704" clip-path="url(#clipPath2)"/>
    </g>
    <g font-size="10px" stroke-linecap="butt" transform="matrix(1,0,0,1,-408,-241)" text-rendering="geometricPrecision" font-family="sans-serif" shape-rendering="geometricPrecision" stroke-miterlimit="1.45">
      <text x="465.1007" xml:space="preserve" y="280.5819" clip-path="url(#clipPath2)" stroke="none">Process#1</text>
    </g>
    <g fill="white" text-rendering="geometricPrecision" shape-rendering="geometricPrecision" transform="matrix(1,0,0,1,-408,-241)" stroke="white">
      <rect x="519.3024" width="60" height="40" y="256.704" clip-path="url(#clipPath2)" stroke="none"/>
    </g>
    <g stroke-linecap="butt" transform="matrix(1,0,0,1,-408,-241)" fill="gray" text-rendering="geometricPrecision" shape-rendering="geometricPrecision" stroke="gray" stroke-miterlimit="1.45">
      <rect fill="none" x="519.3024" width="60" height="40" y="256.704" clip-path="url(#clipPath2)"/>
    </g>
    <g font-size="10px" stroke-linecap="butt" transform="matrix(1,0,0,1,-408,-241)" text-rendering="geometricPrecision" font-family="sans-serif" shape-rendering="geometricPrecision" stroke-miterlimit="1.45">
      <text x="525.1007" xml:space="preserve" y="280.5819" clip-path="url(#clipPath2)" stroke="none">Process#2</text>
    </g>
    <g fill="white" text-rendering="geometricPrecision" shape-rendering="geometricPrecision" transform="matrix(1,0,0,1,-408,-241)" stroke="white">
      <rect x="426.5843" width="240.2061" height="7.4453" y="326.704" clip-path="url(#clipPath2)" stroke="none"/>
    </g>
    <g stroke-linecap="butt" transform="matrix(1,0,0,1,-408,-241)" fill="rgb(204,204,0)" text-rendering="geometricPrecision" shape-rendering="geometricPrecision" stroke-dasharray="6,2" stroke="rgb(204,204,0)" stroke-miterlimit="1.45">
      <rect fill="none" x="426.5843" width="240.2061" height="7.4453" y="326.704" clip-path="url(#clipPath2)"/>
    </g>
    <g font-size="10px" stroke-linecap="butt" transform="matrix(1,0,0,1,-408,-241)" text-rendering="geometricPrecision" font-family="sans-serif" shape-rendering="geometricPrecision" stroke-miterlimit="1.45">
      <text x="425.6218" xml:space="preserve" y="347.2793" clip-path="url(#clipPath2)" stroke="none">Kernel</text>
    </g>
    <g fill="white" text-rendering="geometricPrecision" shape-rendering="geometricPrecision" transform="matrix(1,0,0,1,-408,-241)" stroke="white">
      <rect x="426.5843" width="240.2061" height="7.4453" y="446.8336" clip-path="url(#clipPath2)" stroke="none"/>
    </g>
    <g stroke-linecap="butt" transform="matrix(1,0,0,1,-408,-241)" fill="rgb(204,204,0)" text-rendering="geometricPrecision" shape-rendering="geometricPrecision" stroke-dasharray="6,2" stroke="rgb(204,204,0)" stroke-miterlimit="1.45">
      <rect fill="none" x="426.5843" width="240.2061" height="7.4453" y="446.8336" clip-path="url(#clipPath2)"/>
    </g>
    <g stroke-linecap="butt" transform="matrix(1,0,0,1,-408,-241)" fill="red" text-rendering="geometricPrecision" shape-rendering="geometricPrecision" stroke="red" stroke-miterlimit="1.45">
      <path fill="none" d="M609.6331 296.7003 L609.551 395.9667" clip-path="url(#clipPath2)"/>
    </g>
    <g stroke-linecap="butt" transform="matrix(1,0,0,1,-408,-241)" fill="red" text-rendering="geometricPrecision" shape-rendering="geometricPrecision" stroke="red" stroke-miterlimit="1.45">
      <path d="M609.5444 403.9667 L614.5543 391.9708 L609.5519 394.9667 L604.5544 391.9625 Z" stroke="none" clip-path="url(#clipPath2)"/>
      <path fill="none" d="M489.3024 409.2497 L489.3024 460.9937" clip-path="url(#clipPath2)" stroke="rgb(51,153,102)"/>
      <path fill="rgb(51,153,102)" d="M489.3024 468.9937 L494.3024 456.9937 L489.3024 459.9937 L484.3024 456.9937 Z" clip-path="url(#clipPath2)" stroke="none"/>
      <path fill="none" d="M549.3024 417.4018 L549.3024 460.9392" clip-path="url(#clipPath2)" stroke="rgb(51,153,102)"/>
      <path fill="rgb(51,153,102)" d="M549.3024 468.9392 L554.3024 456.9392 L549.3024 459.9392 L544.3024 456.9392 Z" clip-path="url(#clipPath2)" stroke="none"/>
      <path fill="none" d="M489.3024 296.7137 L489.3024 381.2298" clip-path="url(#clipPath2)" stroke="rgb(51,153,102)"/>
      <path fill="rgb(51,153,102)" d="M489.3024 389.2298 L494.3024 377.2298 L489.3024 380.2298 L484.3024 377.2298 Z" clip-path="url(#clipPath2)" stroke="none"/>
      <path fill="none" d="M549.3024 296.7115 L549.3024 389.3803" clip-path="url(#clipPath2)" stroke="rgb(51,153,102)"/>
      <path fill="rgb(51,153,102)" d="M549.3024 397.3803 L554.3024 385.3803 L549.3024 388.3803 L544.3024 385.3803 Z" clip-path="url(#clipPath2)" stroke="none"/>
    </g>
    <g font-size="10px" stroke-linecap="butt" transform="matrix(1,0,0,1,-408,-241)" text-rendering="geometricPrecision" font-family="sans-serif" shape-rendering="geometricPrecision" stroke-miterlimit="1.45">
      <text x="437.4211" xml:space="preserve" y="310.7277" clip-path="url(#clipPath2)" stroke="none">sem_wait()</text>
    </g>
  </g>
</svg>
