<?xml version="1.0" encoding="UTF-8"?><svg xmlns="http://www.w3.org/2000/svg" xmlns:xlink="http://www.w3.org/1999/xlink" fill-opacity="1" color-rendering="auto" color-interpolation="auto" text-rendering="auto" stroke="black" stroke-linecap="square" width="381" stroke-miterlimit="10" shape-rendering="auto" stroke-opacity="1" fill="black" stroke-dasharray="none" font-weight="normal" stroke-width="1" height="218" font-family="'Dialog'" font-style="normal" stroke-linejoin="miter" font-size="12px" stroke-dashoffset="0" image-rendering="auto">
  <!--Generated by ySVG 2.5-->
  <defs id="genericDefs"/>
  <g>
    <defs id="defs1">
      <clipPath clipPathUnits="userSpaceOnUse" id="clipPath1">
        <path d="M0 0 L381 0 L381 218 L0 218 L0 0 Z"/>
      </clipPath>
      <clipPath clipPathUnits="userSpaceOnUse" id="clipPath2">
        <path d="M428 206 L809 206 L809 424 L428 424 L428 206 Z"/>
      </clipPath>
    </defs>
    <g fill="white" text-rendering="geometricPrecision" shape-rendering="geometricPrecision" transform="translate(-428,-206)" stroke="white">
      <rect x="428" width="381" height="218" y="206" clip-path="url(#clipPath2)" stroke="none"/>
    </g>
    <g fill="white" text-rendering="geometricPrecision" shape-rendering="geometricPrecision" transform="matrix(1,0,0,1,-428,-206)" stroke="white">
      <rect x="615.6201" width="60" height="40" y="231.9676" clip-path="url(#clipPath2)" stroke="none"/>
    </g>
    <g stroke-linecap="butt" transform="matrix(1,0,0,1,-428,-206)" fill="gray" text-rendering="geometricPrecision" shape-rendering="geometricPrecision" stroke="gray" stroke-miterlimit="1.45">
      <rect fill="none" x="615.6201" width="60" height="40" y="231.9676" clip-path="url(#clipPath2)"/>
    </g>
    <g font-size="10px" stroke-linecap="butt" transform="matrix(1,0,0,1,-428,-206)" text-rendering="geometricPrecision" font-family="sans-serif" shape-rendering="geometricPrecision" stroke-miterlimit="1.45">
      <text x="619.9842" xml:space="preserve" y="242.2329" clip-path="url(#clipPath2)" stroke="none">OS-specific</text>
      <text x="631.3329" xml:space="preserve" y="255.8454" clip-path="url(#clipPath2)" stroke="none">Signal</text>
      <text x="626.7805" xml:space="preserve" y="269.4579" clip-path="url(#clipPath2)" stroke="none">Handler</text>
    </g>
    <g fill="white" text-rendering="geometricPrecision" shape-rendering="geometricPrecision" transform="matrix(1,0,0,1,-428,-206)" stroke="white">
      <rect x="524.9961" width="60" height="40" y="311.9676" clip-path="url(#clipPath2)" stroke="none"/>
    </g>
    <g stroke-linecap="butt" transform="matrix(1,0,0,1,-428,-206)" fill="gray" text-rendering="geometricPrecision" shape-rendering="geometricPrecision" stroke="gray" stroke-miterlimit="1.45">
      <rect fill="none" x="524.9961" width="60" height="40" y="311.9676" clip-path="url(#clipPath2)"/>
    </g>
    <g font-size="10px" stroke-linecap="butt" transform="matrix(1,0,0,1,-428,-206)" text-rendering="geometricPrecision" font-family="sans-serif" shape-rendering="geometricPrecision" stroke-miterlimit="1.45">
      <text x="539.8244" xml:space="preserve" y="335.8454" clip-path="url(#clipPath2)" stroke="none">Kernel</text>
    </g>
    <g fill="white" text-rendering="geometricPrecision" shape-rendering="geometricPrecision" transform="matrix(1,0,0,1,-428,-206)" stroke="white">
      <rect x="515.4724" width="277.9712" height="7.4453" y="288.5439" clip-path="url(#clipPath2)" stroke="none"/>
    </g>
    <g stroke-linecap="butt" transform="matrix(1,0,0,1,-428,-206)" fill="rgb(204,204,0)" text-rendering="geometricPrecision" shape-rendering="geometricPrecision" stroke-dasharray="6,2" stroke="rgb(204,204,0)" stroke-miterlimit="1.45">
      <rect fill="none" x="515.4724" width="277.9712" height="7.4453" y="288.5439" clip-path="url(#clipPath2)"/>
    </g>
    <g fill="white" text-rendering="geometricPrecision" shape-rendering="geometricPrecision" transform="matrix(1,0,0,1,-428,-206)" stroke="white">
      <rect x="512.9042" width="80" height="60" y="221.9676" clip-path="url(#clipPath2)" stroke="none"/>
    </g>
    <g font-size="10px" stroke-linecap="butt" transform="matrix(1,0,0,1,-428,-206)" text-rendering="geometricPrecision" font-family="sans-serif" shape-rendering="geometricPrecision" stroke-miterlimit="1.45">
      <text x="543.5643" xml:space="preserve" y="235.4267" clip-path="url(#clipPath2)" stroke="none">App</text>
      <text x="531.1411" xml:space="preserve" y="249.0392" clip-path="url(#clipPath2)" stroke="none">Registers</text>
      <text x="519.9872" xml:space="preserve" y="262.6517" clip-path="url(#clipPath2)" stroke="none">Signal (Ctrl+C)</text>
      <text x="534.0645" xml:space="preserve" y="276.2642" clip-path="url(#clipPath2)" stroke="none">Handler</text>
    </g>
    <g fill="white" text-rendering="geometricPrecision" shape-rendering="geometricPrecision" transform="matrix(1,0,0,1,-428,-206)" stroke="white">
      <rect x="443.1881" width="60" height="40" y="311.9676" clip-path="url(#clipPath2)" stroke="none"/>
    </g>
    <g font-size="10px" stroke-linecap="butt" transform="matrix(1,0,0,1,-428,-206)" text-rendering="geometricPrecision" font-family="sans-serif" shape-rendering="geometricPrecision" stroke-miterlimit="1.45">
      <text x="462.2591" xml:space="preserve" y="322.2329" clip-path="url(#clipPath2)" stroke="none">User</text>
      <text x="455.233" xml:space="preserve" y="335.8454" clip-path="url(#clipPath2)" stroke="none">presses</text>
      <text x="458.856" xml:space="preserve" y="349.4579" clip-path="url(#clipPath2)" stroke="none">Ctrl+C</text>
    </g>
    <g fill="white" text-rendering="geometricPrecision" shape-rendering="geometricPrecision" transform="matrix(1,0,0,1,-428,-206)" stroke="white">
      <rect x="703.3001" width="80" height="40" y="231.9676" clip-path="url(#clipPath2)" stroke="none"/>
    </g>
    <g stroke-linecap="butt" transform="matrix(1,0,0,1,-428,-206)" fill="gray" text-rendering="geometricPrecision" shape-rendering="geometricPrecision" stroke="gray" stroke-miterlimit="1.45">
      <rect fill="none" x="703.3001" width="80" height="40" y="231.9676" clip-path="url(#clipPath2)"/>
    </g>
    <g font-size="10px" stroke-linecap="butt" transform="matrix(1,0,0,1,-428,-206)" text-rendering="geometricPrecision" font-family="sans-serif" shape-rendering="geometricPrecision" stroke-miterlimit="1.45">
      <text x="708.2593" xml:space="preserve" y="242.2329" clip-path="url(#clipPath2)" stroke="none">Cross-Platform</text>
      <text x="729.0129" xml:space="preserve" y="255.8454" clip-path="url(#clipPath2)" stroke="none">Signal</text>
      <text x="724.4604" xml:space="preserve" y="269.4579" clip-path="url(#clipPath2)" stroke="none">Handler</text>
    </g>
    <g fill="white" text-rendering="geometricPrecision" shape-rendering="geometricPrecision" transform="matrix(1,0,0,1,-428,-206)" stroke="white">
      <rect x="619.072" width="60" height="40" y="367.9459" clip-path="url(#clipPath2)" stroke="none"/>
    </g>
    <g stroke-linecap="butt" transform="matrix(1,0,0,1,-428,-206)" fill="gray" text-rendering="geometricPrecision" shape-rendering="geometricPrecision" stroke="gray" stroke-miterlimit="1.45">
      <rect fill="none" x="619.072" width="60" height="40" y="367.9459" clip-path="url(#clipPath2)"/>
    </g>
    <g font-size="10px" stroke-linecap="butt" transform="matrix(1,0,0,1,-428,-206)" text-rendering="geometricPrecision" font-family="sans-serif" shape-rendering="geometricPrecision" stroke-miterlimit="1.45">
      <text x="631.9014" xml:space="preserve" y="378.2112" clip-path="url(#clipPath2)" stroke="none">Default</text>
      <text x="634.7849" xml:space="preserve" y="391.8238" clip-path="url(#clipPath2)" stroke="none">Signal</text>
      <text x="630.2324" xml:space="preserve" y="405.4363" clip-path="url(#clipPath2)" stroke="none">Handler</text>
    </g>
    <g stroke-linecap="butt" transform="matrix(1,0,0,1,-428,-206)" fill="red" text-rendering="geometricPrecision" shape-rendering="geometricPrecision" stroke="red" stroke-miterlimit="1.45">
      <path fill="none" d="M584.9919 321.304 L649.072 321.304 L649.072 279.9763" clip-path="url(#clipPath2)"/>
    </g>
    <g stroke-linecap="butt" transform="matrix(1,0,0,1,-428,-206)" fill="red" text-rendering="geometricPrecision" shape-rendering="geometricPrecision" stroke="red" stroke-miterlimit="1.45">
      <path d="M649.072 271.9763 L644.072 283.9763 L649.072 280.9763 L654.072 283.9763 Z" stroke="none" clip-path="url(#clipPath2)"/>
      <path fill="none" d="M592.927 251.9676 L615.6458 251.9676" clip-path="url(#clipPath2)" stroke="rgb(51,102,255)"/>
      <path fill="none" d="M554.9961 281.9613 L554.9961 303.9944" clip-path="url(#clipPath2)" stroke="rgb(51,102,255)"/>
      <path fill="rgb(51,102,255)" d="M554.9961 311.9944 L559.9961 299.9944 L554.9961 302.9944 L549.9961 299.9944 Z" clip-path="url(#clipPath2)" stroke="none"/>
      <path fill="none" d="M503.187 331.9676 L517.0187 331.9676" clip-path="url(#clipPath2)"/>
      <path d="M525.0187 331.9676 L513.0187 326.9676 L516.0187 331.9676 L513.0187 336.9676 Z" clip-path="url(#clipPath2)" stroke="none"/>
      <path fill="none" d="M675.6204 251.9676 L695.2805 251.9676" clip-path="url(#clipPath2)"/>
      <path d="M703.2805 251.9676 L691.2805 246.9676 L694.2805 251.9676 L691.2805 256.9676 Z" clip-path="url(#clipPath2)" stroke="none"/>
      <path fill="none" d="M584.9919 341.304 L649.072 341.304 L649.072 363.95" clip-path="url(#clipPath2)" stroke="gray"/>
      <path fill="black" d="M653.072 359.95 L645.072 367.95 ZM653.072 367.95 L645.072 359.95 Z" clip-path="url(#clipPath2)" stroke="none"/>
    </g>
    <g fill="gray" text-rendering="geometricPrecision" shape-rendering="geometricPrecision" transform="matrix(1,0,0,1,-428,-206)" stroke="gray">
      <path fill="none" d="M653.072 359.95 L645.072 367.95 ZM653.072 367.95 L645.072 359.95 Z" clip-path="url(#clipPath2)"/>
    </g>
  </g>
</svg>
