<?xml version="1.0" encoding="UTF-8"?><svg xmlns="http://www.w3.org/2000/svg" xmlns:xlink="http://www.w3.org/1999/xlink" fill-opacity="1" color-rendering="auto" color-interpolation="auto" text-rendering="auto" stroke="black" stroke-linecap="square" width="560" stroke-miterlimit="10" shape-rendering="auto" stroke-opacity="1" fill="black" stroke-dasharray="none" font-weight="normal" stroke-width="1" height="315" font-family="'Dialog'" font-style="normal" stroke-linejoin="miter" font-size="12px" stroke-dashoffset="0" image-rendering="auto">
  <!--Generated by ySVG 2.5-->
  <defs id="genericDefs"/>
  <g>
    <defs id="defs1">
      <clipPath clipPathUnits="userSpaceOnUse" id="clipPath1">
        <path d="M0 0 L560 0 L560 315 L0 315 L0 0 Z"/>
      </clipPath>
      <clipPath clipPathUnits="userSpaceOnUse" id="clipPath2">
        <path d="M171 213 L731 213 L731 528 L171 528 L171 213 Z"/>
      </clipPath>
    </defs>
    <g fill="white" text-rendering="geometricPrecision" shape-rendering="geometricPrecision" transform="translate(-171,-213)" stroke="white">
      <rect x="171" width="560" height="315" y="213" clip-path="url(#clipPath2)" stroke="none"/>
    </g>
    <g fill="silver" text-rendering="geometricPrecision" shape-rendering="geometricPrecision" transform="matrix(1,0,0,1,-171,-213)" stroke="silver">
      <rect x="275.7993" width="70.4178" height="66.296" y="276.356" clip-path="url(#clipPath2)" stroke="none"/>
    </g>
    <g text-rendering="geometricPrecision" stroke-miterlimit="1.45" shape-rendering="geometricPrecision" transform="matrix(1,0,0,1,-171,-213)" stroke-linecap="butt">
      <rect fill="none" x="275.7993" width="70.4178" height="66.296" y="276.356" clip-path="url(#clipPath2)"/>
      <text x="282.3799" xml:space="preserve" y="297.8224" clip-path="url(#clipPath2)" font-family="sans-serif" stroke="none">stack area</text>
      <text x="286.3017" xml:space="preserve" y="314.1574" clip-path="url(#clipPath2)" font-family="sans-serif" stroke="none">reserved</text>
      <text x="284.8805" xml:space="preserve" y="330.4925" clip-path="url(#clipPath2)" font-family="sans-serif" stroke="none">by main()</text>
    </g>
    <g fill="white" text-rendering="geometricPrecision" shape-rendering="geometricPrecision" transform="matrix(1,0,0,1,-171,-213)" stroke="white">
      <path d="M284.1397 252.784 Q284.1397 245.284 291.6397 245.284 L321.6726 245.284 Q329.1726 245.284 329.1726 252.784 L329.1726 252.784 Q329.1726 260.284 321.6726 260.284 L291.6397 260.284 Q284.1397 260.284 284.1397 252.784 Z" stroke="none" clip-path="url(#clipPath2)"/>
    </g>
    <g text-rendering="geometricPrecision" stroke-miterlimit="1.45" shape-rendering="geometricPrecision" font-family="sans-serif" transform="matrix(1,0,0,1,-171,-213)" stroke-linecap="butt">
      <text x="288.0364" xml:space="preserve" y="249.2699" clip-path="url(#clipPath2)" stroke="none">before</text>
      <text x="293.7393" xml:space="preserve" y="265.6049" clip-path="url(#clipPath2)" stroke="none">foo()</text>
    </g>
    <g fill="white" text-rendering="geometricPrecision" shape-rendering="geometricPrecision" transform="matrix(1,0,0,1,-171,-213)" stroke="white">
      <path d="M376.217 252.784 Q376.217 245.284 383.717 245.284 L410.6217 245.284 Q418.1217 245.284 418.1217 252.784 L418.1217 252.784 Q418.1217 260.284 410.6217 260.284 L383.717 260.284 Q376.217 260.284 376.217 252.784 Z" stroke="none" clip-path="url(#clipPath2)"/>
    </g>
    <g text-rendering="geometricPrecision" stroke-miterlimit="1.45" shape-rendering="geometricPrecision" font-family="sans-serif" transform="matrix(1,0,0,1,-171,-213)" stroke-linecap="butt">
      <text x="380.4266" xml:space="preserve" y="249.2699" clip-path="url(#clipPath2)" stroke="none">inside</text>
      <text x="384.2525" xml:space="preserve" y="265.6049" clip-path="url(#clipPath2)" stroke="none">foo()</text>
    </g>
    <g fill="white" text-rendering="geometricPrecision" shape-rendering="geometricPrecision" transform="matrix(1,0,0,1,-171,-213)" stroke="white">
      <path d="M657.779 252.784 Q657.779 245.284 665.279 245.284 L686.6967 245.284 Q694.1967 245.284 694.1967 252.784 L694.1967 252.784 Q694.1967 260.284 686.6967 260.284 L665.279 260.284 Q657.779 260.284 657.779 252.784 Z" stroke="none" clip-path="url(#clipPath2)"/>
    </g>
    <g text-rendering="geometricPrecision" stroke-miterlimit="1.45" shape-rendering="geometricPrecision" font-family="sans-serif" transform="matrix(1,0,0,1,-171,-213)" stroke-linecap="butt">
      <text x="662.5372" xml:space="preserve" y="249.2699" clip-path="url(#clipPath2)" stroke="none">after</text>
      <text x="663.0709" xml:space="preserve" y="265.6049" clip-path="url(#clipPath2)" stroke="none">foo()</text>
    </g>
    <g fill="white" text-rendering="geometricPrecision" shape-rendering="geometricPrecision" transform="matrix(1,0,0,1,-171,-213)" stroke="white">
      <rect x="275.7993" width="70.4178" height="148.2" y="342.652" clip-path="url(#clipPath2)" stroke="none"/>
    </g>
    <g text-rendering="geometricPrecision" stroke-miterlimit="1.45" shape-rendering="geometricPrecision" transform="matrix(1,0,0,1,-171,-213)" stroke-linecap="butt">
      <rect fill="none" x="275.7993" width="70.4178" height="148.2" y="342.652" clip-path="url(#clipPath2)"/>
      <text x="299.7044" xml:space="preserve" y="413.2379" clip-path="url(#clipPath2)" font-family="sans-serif" stroke="none">free</text>
      <text x="294.8231" xml:space="preserve" y="429.573" clip-path="url(#clipPath2)" font-family="sans-serif" stroke="none">space</text>
    </g>
    <g fill="white" text-rendering="geometricPrecision" shape-rendering="geometricPrecision" transform="matrix(1,0,0,1,-171,-213)" stroke="white">
      <rect x="645.1309" width="70.4178" height="148.2" y="342.652" clip-path="url(#clipPath2)" stroke="none"/>
    </g>
    <g text-rendering="geometricPrecision" stroke-miterlimit="1.45" shape-rendering="geometricPrecision" transform="matrix(1,0,0,1,-171,-213)" stroke-linecap="butt">
      <rect fill="none" x="645.1309" width="70.4178" height="148.2" y="342.652" clip-path="url(#clipPath2)"/>
      <text x="669.036" xml:space="preserve" y="413.2379" clip-path="url(#clipPath2)" font-family="sans-serif" stroke="none">free</text>
      <text x="664.1547" xml:space="preserve" y="429.573" clip-path="url(#clipPath2)" font-family="sans-serif" stroke="none">space</text>
    </g>
    <g fill="white" text-rendering="geometricPrecision" shape-rendering="geometricPrecision" transform="matrix(1,0,0,1,-171,-213)" stroke="white">
      <rect x="366.3125" width="70.4178" height="94.704" y="396.148" clip-path="url(#clipPath2)" stroke="none"/>
    </g>
    <g text-rendering="geometricPrecision" stroke-miterlimit="1.45" shape-rendering="geometricPrecision" transform="matrix(1,0,0,1,-171,-213)" stroke-linecap="butt">
      <rect fill="none" x="366.3125" width="70.4178" height="94.704" y="396.148" clip-path="url(#clipPath2)"/>
      <text x="390.2176" xml:space="preserve" y="439.9859" clip-path="url(#clipPath2)" font-family="sans-serif" stroke="none">free</text>
      <text x="385.3363" xml:space="preserve" y="456.321" clip-path="url(#clipPath2)" font-family="sans-serif" stroke="none">space</text>
    </g>
    <g fill="silver" text-rendering="geometricPrecision" shape-rendering="geometricPrecision" transform="matrix(1,0,0,1,-171,-213)" stroke="silver">
      <rect x="366.3125" width="70.4178" height="53.496" y="342.652" clip-path="url(#clipPath2)" stroke="none"/>
    </g>
    <g text-rendering="geometricPrecision" stroke-miterlimit="1.45" shape-rendering="geometricPrecision" transform="matrix(1,0,0,1,-171,-213)" stroke-linecap="butt">
      <rect fill="none" x="366.3125" width="70.4178" height="53.496" y="342.652" clip-path="url(#clipPath2)"/>
      <text x="372.8931" xml:space="preserve" y="357.7184" clip-path="url(#clipPath2)" font-family="sans-serif" stroke="none">stack area</text>
      <text x="376.8149" xml:space="preserve" y="374.0534" clip-path="url(#clipPath2)" font-family="sans-serif" stroke="none">reserved</text>
      <text x="380.299" xml:space="preserve" y="390.3885" clip-path="url(#clipPath2)" font-family="sans-serif" stroke="none">by foo()</text>
    </g>
    <g fill="white" text-rendering="geometricPrecision" shape-rendering="geometricPrecision" transform="matrix(1,0,0,1,-171,-213)" stroke="white">
      <path d="M466.7303 252.784 Q466.7303 245.284 474.2303 245.284 L501.1349 245.284 Q508.6349 245.284 508.6349 252.784 L508.6349 252.784 Q508.6349 260.284 501.1349 260.284 L474.2303 260.284 Q466.7303 260.284 466.7303 252.784 Z" stroke="none" clip-path="url(#clipPath2)"/>
    </g>
    <g text-rendering="geometricPrecision" stroke-miterlimit="1.45" shape-rendering="geometricPrecision" font-family="sans-serif" transform="matrix(1,0,0,1,-171,-213)" stroke-linecap="butt">
      <text x="470.9398" xml:space="preserve" y="249.2699" clip-path="url(#clipPath2)" stroke="none">inside</text>
      <text x="474.5558" xml:space="preserve" y="265.6049" clip-path="url(#clipPath2)" stroke="none">bar()</text>
    </g>
    <g fill="white" text-rendering="geometricPrecision" shape-rendering="geometricPrecision" transform="matrix(1,0,0,1,-171,-213)" stroke="white">
      <rect x="456.8257" width="70.4178" height="37.112" y="453.74" clip-path="url(#clipPath2)" stroke="none"/>
    </g>
    <g text-rendering="geometricPrecision" stroke-miterlimit="1.45" shape-rendering="geometricPrecision" transform="matrix(1,0,0,1,-171,-213)" stroke-linecap="butt">
      <rect fill="none" x="456.8257" width="70.4178" height="37.112" y="453.74" clip-path="url(#clipPath2)"/>
      <text x="480.7308" xml:space="preserve" y="468.7819" clip-path="url(#clipPath2)" font-family="sans-serif" stroke="none">free</text>
      <text x="475.8495" xml:space="preserve" y="485.1169" clip-path="url(#clipPath2)" font-family="sans-serif" stroke="none">space</text>
    </g>
    <g fill="silver" text-rendering="geometricPrecision" shape-rendering="geometricPrecision" transform="matrix(1,0,0,1,-171,-213)" stroke="silver">
      <rect x="456.8257" width="70.4178" height="53.496" y="342.652" clip-path="url(#clipPath2)" stroke="none"/>
    </g>
    <g text-rendering="geometricPrecision" stroke-miterlimit="1.45" shape-rendering="geometricPrecision" transform="matrix(1,0,0,1,-171,-213)" stroke-linecap="butt">
      <rect fill="none" x="456.8257" width="70.4178" height="53.496" y="342.652" clip-path="url(#clipPath2)"/>
      <text x="463.4063" xml:space="preserve" y="357.7184" clip-path="url(#clipPath2)" font-family="sans-serif" stroke="none">stack area</text>
      <text x="467.3282" xml:space="preserve" y="374.0534" clip-path="url(#clipPath2)" font-family="sans-serif" stroke="none">reserved</text>
      <text x="470.8123" xml:space="preserve" y="390.3885" clip-path="url(#clipPath2)" font-family="sans-serif" stroke="none">by foo()</text>
    </g>
    <g fill="silver" text-rendering="geometricPrecision" shape-rendering="geometricPrecision" transform="matrix(1,0,0,1,-171,-213)" stroke="silver">
      <rect x="456.8257" width="70.4178" height="53.496" y="396.148" clip-path="url(#clipPath2)" stroke="none"/>
    </g>
    <g text-rendering="geometricPrecision" stroke-miterlimit="1.45" shape-rendering="geometricPrecision" transform="matrix(1,0,0,1,-171,-213)" stroke-linecap="butt">
      <rect fill="none" x="456.8257" width="70.4178" height="53.496" y="396.148" clip-path="url(#clipPath2)"/>
      <text x="463.4063" xml:space="preserve" y="411.2144" clip-path="url(#clipPath2)" font-family="sans-serif" stroke="none">stack area</text>
      <text x="467.3282" xml:space="preserve" y="427.5494" clip-path="url(#clipPath2)" font-family="sans-serif" stroke="none">reserved</text>
      <text x="470.6024" xml:space="preserve" y="443.8845" clip-path="url(#clipPath2)" font-family="sans-serif" stroke="none">by bar()</text>
    </g>
    <g fill="white" text-rendering="geometricPrecision" shape-rendering="geometricPrecision" transform="matrix(1,0,0,1,-171,-213)" stroke="white">
      <path d="M562.2546 252.784 Q562.2546 245.284 569.7546 245.284 L596.6593 245.284 Q604.1593 245.284 604.1593 252.784 L604.1593 252.784 Q604.1593 260.284 596.6593 260.284 L569.7546 260.284 Q562.2546 260.284 562.2546 252.784 Z" stroke="none" clip-path="url(#clipPath2)"/>
    </g>
    <g text-rendering="geometricPrecision" stroke-miterlimit="1.45" shape-rendering="geometricPrecision" font-family="sans-serif" transform="matrix(1,0,0,1,-171,-213)" stroke-linecap="butt">
      <text x="566.4642" xml:space="preserve" y="249.2699" clip-path="url(#clipPath2)" stroke="none">inside</text>
      <text x="570.29" xml:space="preserve" y="265.6049" clip-path="url(#clipPath2)" stroke="none">foo()</text>
    </g>
    <g fill="white" text-rendering="geometricPrecision" shape-rendering="geometricPrecision" transform="matrix(1,0,0,1,-171,-213)" stroke="white">
      <rect x="552.3501" width="70.4178" height="94.704" y="396.148" clip-path="url(#clipPath2)" stroke="none"/>
    </g>
    <g text-rendering="geometricPrecision" stroke-miterlimit="1.45" shape-rendering="geometricPrecision" transform="matrix(1,0,0,1,-171,-213)" stroke-linecap="butt">
      <rect fill="none" x="552.3501" width="70.4178" height="94.704" y="396.148" clip-path="url(#clipPath2)"/>
      <text x="576.2551" xml:space="preserve" y="439.9859" clip-path="url(#clipPath2)" font-family="sans-serif" stroke="none">free</text>
      <text x="571.3738" xml:space="preserve" y="456.321" clip-path="url(#clipPath2)" font-family="sans-serif" stroke="none">space</text>
    </g>
    <g fill="silver" text-rendering="geometricPrecision" shape-rendering="geometricPrecision" transform="matrix(1,0,0,1,-171,-213)" stroke="silver">
      <rect x="552.3501" width="70.4178" height="53.496" y="342.652" clip-path="url(#clipPath2)" stroke="none"/>
    </g>
    <g text-rendering="geometricPrecision" stroke-miterlimit="1.45" shape-rendering="geometricPrecision" transform="matrix(1,0,0,1,-171,-213)" stroke-linecap="butt">
      <rect fill="none" x="552.3501" width="70.4178" height="53.496" y="342.652" clip-path="url(#clipPath2)"/>
      <text x="558.9307" xml:space="preserve" y="357.7184" clip-path="url(#clipPath2)" font-family="sans-serif" stroke="none">stack area</text>
      <text x="562.8525" xml:space="preserve" y="374.0534" clip-path="url(#clipPath2)" font-family="sans-serif" stroke="none">reserved</text>
      <text x="566.3366" xml:space="preserve" y="390.3885" clip-path="url(#clipPath2)" font-family="sans-serif" stroke="none">by foo()</text>
    </g>
    <g fill="rgb(255,204,204)" text-rendering="geometricPrecision" shape-rendering="geometricPrecision" transform="matrix(1,0,0,1,-171,-213)" stroke="rgb(255,204,204)">
      <rect x="645.1309" width="70.4178" height="6.272" y="490.852" clip-path="url(#clipPath2)" stroke="none"/>
    </g>
    <g text-rendering="geometricPrecision" stroke-miterlimit="1.45" shape-rendering="geometricPrecision" transform="matrix(1,0,0,1,-171,-213)" stroke-linecap="butt">
      <rect fill="none" x="645.1309" width="70.4178" height="6.272" y="490.852" clip-path="url(#clipPath2)"/>
    </g>
    <g fill="rgb(255,204,204)" text-rendering="geometricPrecision" shape-rendering="geometricPrecision" transform="matrix(1,0,0,1,-171,-213)" stroke="rgb(255,204,204)">
      <rect x="552.3501" width="70.4178" height="6.272" y="490.852" clip-path="url(#clipPath2)" stroke="none"/>
    </g>
    <g text-rendering="geometricPrecision" stroke-miterlimit="1.45" shape-rendering="geometricPrecision" transform="matrix(1,0,0,1,-171,-213)" stroke-linecap="butt">
      <rect fill="none" x="552.3501" width="70.4178" height="6.272" y="490.852" clip-path="url(#clipPath2)"/>
    </g>
    <g fill="rgb(255,204,204)" text-rendering="geometricPrecision" shape-rendering="geometricPrecision" transform="matrix(1,0,0,1,-171,-213)" stroke="rgb(255,204,204)">
      <rect x="456.8257" width="70.4178" height="6.272" y="490.852" clip-path="url(#clipPath2)" stroke="none"/>
    </g>
    <g text-rendering="geometricPrecision" stroke-miterlimit="1.45" shape-rendering="geometricPrecision" transform="matrix(1,0,0,1,-171,-213)" stroke-linecap="butt">
      <rect fill="none" x="456.8257" width="70.4178" height="6.272" y="490.852" clip-path="url(#clipPath2)"/>
    </g>
    <g fill="rgb(255,204,204)" text-rendering="geometricPrecision" shape-rendering="geometricPrecision" transform="matrix(1,0,0,1,-171,-213)" stroke="rgb(255,204,204)">
      <rect x="366.3125" width="70.4178" height="6.272" y="490.852" clip-path="url(#clipPath2)" stroke="none"/>
    </g>
    <g text-rendering="geometricPrecision" stroke-miterlimit="1.45" shape-rendering="geometricPrecision" transform="matrix(1,0,0,1,-171,-213)" stroke-linecap="butt">
      <rect fill="none" x="366.3125" width="70.4178" height="6.272" y="490.852" clip-path="url(#clipPath2)"/>
    </g>
    <g fill="rgb(255,204,204)" text-rendering="geometricPrecision" shape-rendering="geometricPrecision" transform="matrix(1,0,0,1,-171,-213)" stroke="rgb(255,204,204)">
      <rect x="275.7993" width="70.4178" height="6.272" y="490.852" clip-path="url(#clipPath2)" stroke="none"/>
    </g>
    <g text-rendering="geometricPrecision" stroke-miterlimit="1.45" shape-rendering="geometricPrecision" transform="matrix(1,0,0,1,-171,-213)" stroke-linecap="butt">
      <rect fill="none" x="275.7993" width="70.4178" height="6.272" y="490.852" clip-path="url(#clipPath2)"/>
    </g>
    <g fill="rgb(204,255,204)" text-rendering="geometricPrecision" shape-rendering="geometricPrecision" transform="matrix(1,0,0,1,-171,-213)" stroke="rgb(204,255,204)">
      <rect x="645.1309" width="70.4178" height="6.272" y="342.652" clip-path="url(#clipPath2)" stroke="none"/>
    </g>
    <g text-rendering="geometricPrecision" stroke-miterlimit="1.45" shape-rendering="geometricPrecision" transform="matrix(1,0,0,1,-171,-213)" stroke-linecap="butt">
      <rect fill="none" x="645.1309" width="70.4178" height="6.272" y="342.652" clip-path="url(#clipPath2)"/>
    </g>
    <g fill="rgb(204,255,204)" text-rendering="geometricPrecision" shape-rendering="geometricPrecision" transform="matrix(1,0,0,1,-171,-213)" stroke="rgb(204,255,204)">
      <rect x="275.7993" width="70.4178" height="6.272" y="342.652" clip-path="url(#clipPath2)" stroke="none"/>
    </g>
    <g text-rendering="geometricPrecision" stroke-miterlimit="1.45" shape-rendering="geometricPrecision" transform="matrix(1,0,0,1,-171,-213)" stroke-linecap="butt">
      <rect fill="none" x="275.7993" width="70.4178" height="6.272" y="342.652" clip-path="url(#clipPath2)"/>
    </g>
    <g fill="rgb(204,255,204)" text-rendering="geometricPrecision" shape-rendering="geometricPrecision" transform="matrix(1,0,0,1,-171,-213)" stroke="rgb(204,255,204)">
      <rect x="366.3125" width="70.4178" height="6.272" y="396.148" clip-path="url(#clipPath2)" stroke="none"/>
    </g>
    <g text-rendering="geometricPrecision" stroke-miterlimit="1.45" shape-rendering="geometricPrecision" transform="matrix(1,0,0,1,-171,-213)" stroke-linecap="butt">
      <rect fill="none" x="366.3125" width="70.4178" height="6.272" y="396.148" clip-path="url(#clipPath2)"/>
    </g>
    <g fill="rgb(204,255,204)" text-rendering="geometricPrecision" shape-rendering="geometricPrecision" transform="matrix(1,0,0,1,-171,-213)" stroke="rgb(204,255,204)">
      <rect x="552.3501" width="70.4178" height="6.272" y="396.148" clip-path="url(#clipPath2)" stroke="none"/>
    </g>
    <g text-rendering="geometricPrecision" stroke-miterlimit="1.45" shape-rendering="geometricPrecision" transform="matrix(1,0,0,1,-171,-213)" stroke-linecap="butt">
      <rect fill="none" x="552.3501" width="70.4178" height="6.272" y="396.148" clip-path="url(#clipPath2)"/>
    </g>
    <g fill="rgb(204,255,204)" text-rendering="geometricPrecision" shape-rendering="geometricPrecision" transform="matrix(1,0,0,1,-171,-213)" stroke="rgb(204,255,204)">
      <rect x="456.8257" width="70.4178" height="6.272" y="448.556" clip-path="url(#clipPath2)" stroke="none"/>
    </g>
    <g text-rendering="geometricPrecision" stroke-miterlimit="1.45" shape-rendering="geometricPrecision" transform="matrix(1,0,0,1,-171,-213)" stroke-linecap="butt">
      <rect fill="none" x="456.8257" width="70.4178" height="6.272" y="448.556" clip-path="url(#clipPath2)"/>
    </g>
    <g fill="white" text-rendering="geometricPrecision" shape-rendering="geometricPrecision" transform="matrix(1,0,0,1,-171,-213)" stroke="white">
      <path d="M186.9551 345.788 Q186.9551 338.288 194.4551 338.288 L234.6405 338.288 Q242.1405 338.288 242.1405 345.788 L242.1405 345.788 Q242.1405 353.288 234.6405 353.288 L194.4551 353.288 Q186.9551 353.288 186.9551 345.788 Z" stroke="none" clip-path="url(#clipPath2)"/>
    </g>
    <g text-rendering="geometricPrecision" stroke-miterlimit="1.45" shape-rendering="geometricPrecision" font-family="sans-serif" transform="matrix(1,0,0,1,-171,-213)" stroke-linecap="butt">
      <text x="200.0658" xml:space="preserve" y="342.2739" clip-path="url(#clipPath2)" stroke="none">stack</text>
      <text x="193.9551" xml:space="preserve" y="358.6089" clip-path="url(#clipPath2)" stroke="none">pointer</text>
    </g>
    <g fill="white" text-rendering="geometricPrecision" shape-rendering="geometricPrecision" transform="matrix(1,0,0,1,-171,-213)" stroke="white">
      <path d="M186.6673 493.988 Q186.6673 486.488 194.1673 486.488 L234.9283 486.488 Q242.4283 486.488 242.4283 493.988 L242.4283 493.988 Q242.4283 501.488 234.9283 501.488 L194.1673 501.488 Q186.6673 501.488 186.6673 493.988 Z" stroke="none" clip-path="url(#clipPath2)"/>
    </g>
    <g text-rendering="geometricPrecision" stroke-miterlimit="1.45" shape-rendering="geometricPrecision" font-family="sans-serif" transform="matrix(1,0,0,1,-171,-213)" stroke-linecap="butt">
      <text x="200.0658" xml:space="preserve" y="490.4739" clip-path="url(#clipPath2)" stroke="none">stack</text>
      <text x="193.6673" xml:space="preserve" y="506.809" clip-path="url(#clipPath2)" stroke="none">bottom</text>
    </g>
    <g fill="silver" text-rendering="geometricPrecision" shape-rendering="geometricPrecision" transform="matrix(1,0,0,1,-171,-213)" stroke="silver">
      <rect x="366.3125" width="70.4178" height="66.296" y="276.356" clip-path="url(#clipPath2)" stroke="none"/>
    </g>
    <g text-rendering="geometricPrecision" stroke-miterlimit="1.45" shape-rendering="geometricPrecision" transform="matrix(1,0,0,1,-171,-213)" stroke-linecap="butt">
      <rect fill="none" x="366.3125" width="70.4178" height="66.296" y="276.356" clip-path="url(#clipPath2)"/>
      <text x="372.8931" xml:space="preserve" y="297.8224" clip-path="url(#clipPath2)" font-family="sans-serif" stroke="none">stack area</text>
      <text x="376.8149" xml:space="preserve" y="314.1574" clip-path="url(#clipPath2)" font-family="sans-serif" stroke="none">reserved</text>
      <text x="375.3937" xml:space="preserve" y="330.4925" clip-path="url(#clipPath2)" font-family="sans-serif" stroke="none">by main()</text>
    </g>
    <g fill="silver" text-rendering="geometricPrecision" shape-rendering="geometricPrecision" transform="matrix(1,0,0,1,-171,-213)" stroke="silver">
      <rect x="456.8257" width="70.4178" height="66.296" y="276.356" clip-path="url(#clipPath2)" stroke="none"/>
    </g>
    <g text-rendering="geometricPrecision" stroke-miterlimit="1.45" shape-rendering="geometricPrecision" transform="matrix(1,0,0,1,-171,-213)" stroke-linecap="butt">
      <rect fill="none" x="456.8257" width="70.4178" height="66.296" y="276.356" clip-path="url(#clipPath2)"/>
      <text x="463.4063" xml:space="preserve" y="297.8224" clip-path="url(#clipPath2)" font-family="sans-serif" stroke="none">stack area</text>
      <text x="467.3282" xml:space="preserve" y="314.1574" clip-path="url(#clipPath2)" font-family="sans-serif" stroke="none">reserved</text>
      <text x="465.907" xml:space="preserve" y="330.4925" clip-path="url(#clipPath2)" font-family="sans-serif" stroke="none">by main()</text>
    </g>
    <g fill="silver" text-rendering="geometricPrecision" shape-rendering="geometricPrecision" transform="matrix(1,0,0,1,-171,-213)" stroke="silver">
      <rect x="552.3501" width="70.4178" height="66.296" y="276.356" clip-path="url(#clipPath2)" stroke="none"/>
    </g>
    <g text-rendering="geometricPrecision" stroke-miterlimit="1.45" shape-rendering="geometricPrecision" transform="matrix(1,0,0,1,-171,-213)" stroke-linecap="butt">
      <rect fill="none" x="552.3501" width="70.4178" height="66.296" y="276.356" clip-path="url(#clipPath2)"/>
      <text x="558.9307" xml:space="preserve" y="297.8224" clip-path="url(#clipPath2)" font-family="sans-serif" stroke="none">stack area</text>
      <text x="562.8525" xml:space="preserve" y="314.1574" clip-path="url(#clipPath2)" font-family="sans-serif" stroke="none">reserved</text>
      <text x="561.4313" xml:space="preserve" y="330.4925" clip-path="url(#clipPath2)" font-family="sans-serif" stroke="none">by main()</text>
    </g>
    <g fill="silver" text-rendering="geometricPrecision" shape-rendering="geometricPrecision" transform="matrix(1,0,0,1,-171,-213)" stroke="silver">
      <rect x="645.1309" width="70.4178" height="66.296" y="276.356" clip-path="url(#clipPath2)" stroke="none"/>
    </g>
    <g text-rendering="geometricPrecision" stroke-miterlimit="1.45" shape-rendering="geometricPrecision" transform="matrix(1,0,0,1,-171,-213)" stroke-linecap="butt">
      <rect fill="none" x="645.1309" width="70.4178" height="66.296" y="276.356" clip-path="url(#clipPath2)"/>
      <text x="651.7115" xml:space="preserve" y="297.8224" clip-path="url(#clipPath2)" font-family="sans-serif" stroke="none">stack area</text>
      <text x="655.6334" xml:space="preserve" y="314.1574" clip-path="url(#clipPath2)" font-family="sans-serif" stroke="none">reserved</text>
      <text x="654.2122" xml:space="preserve" y="330.4925" clip-path="url(#clipPath2)" font-family="sans-serif" stroke="none">by main()</text>
    </g>
    <g stroke-linecap="butt" transform="matrix(1,0,0,1,-171,-213)" fill="gray" text-rendering="geometricPrecision" shape-rendering="geometricPrecision" stroke="gray" stroke-miterlimit="1.45">
      <path fill="none" d="M329.1519 252.784 L368.2128 252.784" clip-path="url(#clipPath2)"/>
    </g>
    <g stroke-linecap="butt" transform="matrix(1,0,0,1,-171,-213)" fill="gray" text-rendering="geometricPrecision" shape-rendering="geometricPrecision" stroke="gray" stroke-miterlimit="1.45">
      <path d="M376.2128 252.784 L364.2128 247.784 L367.2128 252.784 L364.2128 257.784 Z" stroke="none" clip-path="url(#clipPath2)"/>
      <text x="337.622" xml:space="preserve" y="243.3574" clip-path="url(#clipPath2)" font-family="sans-serif" stroke="none">foo();</text>
      <path fill="none" d="M418.1624 252.784 L458.7383 252.784" clip-path="url(#clipPath2)"/>
      <path d="M466.7383 252.784 L454.7383 247.784 L457.7383 252.784 L454.7383 257.784 Z" clip-path="url(#clipPath2)" stroke="none"/>
      <text x="426.9861" xml:space="preserve" y="243.3574" clip-path="url(#clipPath2)" font-family="sans-serif" stroke="none">bar();</text>
      <path fill="none" d="M508.6252 252.784 L554.2672 252.784" clip-path="url(#clipPath2)"/>
      <path d="M562.2672 252.784 L550.2672 247.784 L553.2672 252.784 L550.2672 257.784 Z" clip-path="url(#clipPath2)" stroke="none"/>
      <text x="515.8457" xml:space="preserve" y="243.3574" clip-path="url(#clipPath2)" font-family="sans-serif" stroke="none">return;</text>
      <path fill="none" d="M604.1823 252.784 L649.791 252.784" clip-path="url(#clipPath2)"/>
      <path d="M657.791 252.784 L645.791 247.784 L648.791 252.784 L645.791 257.784 Z" clip-path="url(#clipPath2)" stroke="none"/>
      <text x="611.3701" xml:space="preserve" y="243.3574" clip-path="url(#clipPath2)" font-family="sans-serif" stroke="none">return;</text>
      <path fill="none" d="M242.1012 345.788 L260.7808 345.788" clip-path="url(#clipPath2)"/>
      <path fill="white" d="M275.7808 345.788 L259.7808 339.788 L259.7808 351.788 Z" clip-path="url(#clipPath2)" stroke="none"/>
      <path fill="none" d="M275.7808 345.788 L259.7808 339.788 L259.7808 351.788 Z" clip-path="url(#clipPath2)"/>
      <path fill="none" d="M242.3838 493.988 L260.7913 493.988" clip-path="url(#clipPath2)"/>
      <path fill="white" d="M275.7913 493.988 L259.7913 487.988 L259.7913 499.988 Z" clip-path="url(#clipPath2)" stroke="none"/>
      <path fill="none" d="M275.7913 493.988 L259.7913 487.988 L259.7913 499.988 Z" clip-path="url(#clipPath2)"/>
    </g>
  </g>
</svg>
