<?xml version="1.0" encoding="UTF-8"?><svg xmlns="http://www.w3.org/2000/svg" xmlns:xlink="http://www.w3.org/1999/xlink" fill-opacity="1" color-rendering="auto" color-interpolation="auto" text-rendering="auto" stroke="black" stroke-linecap="square" width="529" stroke-miterlimit="10" shape-rendering="auto" stroke-opacity="1" fill="black" stroke-dasharray="none" font-weight="normal" stroke-width="1" height="509" font-family="'Dialog'" font-style="normal" stroke-linejoin="miter" font-size="12px" stroke-dashoffset="0" image-rendering="auto">
  <!--Generated by ySVG 2.5-->
  <defs id="genericDefs"/>
  <g>
    <defs id="defs1">
      <clipPath clipPathUnits="userSpaceOnUse" id="clipPath1">
        <path d="M0 0 L529 0 L529 509 L0 509 L0 0 Z"/>
      </clipPath>
      <clipPath clipPathUnits="userSpaceOnUse" id="clipPath2">
        <path d="M243 204 L772 204 L772 713 L243 713 L243 204 Z"/>
      </clipPath>
    </defs>
    <g fill="white" text-rendering="geometricPrecision" shape-rendering="geometricPrecision" transform="translate(-243,-204)" stroke="white">
      <rect x="243" width="529" height="509" y="204" clip-path="url(#clipPath2)" stroke="none"/>
    </g>
    <g fill="rgb(204,255,204)" text-rendering="geometricPrecision" shape-rendering="geometricPrecision" transform="matrix(1,0,0,1,-243,-204)" stroke="rgb(204,255,204)">
      <rect x="405.3611" width="100" height="20" y="415.0598" clip-path="url(#clipPath2)" stroke="none"/>
    </g>
    <g stroke-linecap="butt" transform="matrix(1,0,0,1,-243,-204)" fill="gray" text-rendering="geometricPrecision" shape-rendering="geometricPrecision" stroke="gray" stroke-miterlimit="1.45">
      <rect fill="none" x="405.3611" width="100" height="20" y="415.0598" clip-path="url(#clipPath2)"/>
    </g>
    <g font-size="10px" stroke-linecap="butt" transform="matrix(1,0,0,1,-243,-204)" text-rendering="geometricPrecision" font-family="sans-serif" shape-rendering="geometricPrecision" stroke-miterlimit="1.45">
      <text x="422.6941" xml:space="preserve" y="428.9377" clip-path="url(#clipPath2)" stroke="none">frame0 (4096)</text>
    </g>
    <g fill="rgb(255,204,204)" text-rendering="geometricPrecision" shape-rendering="geometricPrecision" transform="matrix(1,0,0,1,-243,-204)" stroke="rgb(255,204,204)">
      <rect x="405.3611" width="100" height="20" y="435.0598" clip-path="url(#clipPath2)" stroke="none"/>
    </g>
    <g stroke-linecap="butt" transform="matrix(1,0,0,1,-243,-204)" fill="gray" text-rendering="geometricPrecision" shape-rendering="geometricPrecision" stroke="gray" stroke-miterlimit="1.45">
      <rect fill="none" x="405.3611" width="100" height="20" y="435.0598" clip-path="url(#clipPath2)"/>
    </g>
    <g font-size="10px" stroke-linecap="butt" transform="matrix(1,0,0,1,-243,-204)" text-rendering="geometricPrecision" font-family="sans-serif" shape-rendering="geometricPrecision" stroke-miterlimit="1.45">
      <text x="422.6941" xml:space="preserve" y="448.9377" clip-path="url(#clipPath2)" stroke="none">frame1 (4096)</text>
    </g>
    <g fill="white" text-rendering="geometricPrecision" shape-rendering="geometricPrecision" transform="matrix(1,0,0,1,-243,-204)" stroke="white">
      <rect x="405.3611" width="100" height="20" y="475.0598" clip-path="url(#clipPath2)" stroke="none"/>
    </g>
    <g stroke-linecap="butt" transform="matrix(1,0,0,1,-243,-204)" fill="gray" text-rendering="geometricPrecision" shape-rendering="geometricPrecision" stroke="gray" stroke-miterlimit="1.45">
      <rect fill="none" x="405.3611" width="100" height="20" y="475.0598" clip-path="url(#clipPath2)"/>
    </g>
    <g font-size="10px" stroke-linecap="butt" transform="matrix(1,0,0,1,-243,-204)" text-rendering="geometricPrecision" font-family="sans-serif" shape-rendering="geometricPrecision" stroke-miterlimit="1.45">
      <text x="451.3434" xml:space="preserve" y="488.9377" clip-path="url(#clipPath2)" stroke="none">...</text>
    </g>
    <g fill="rgb(204,255,204)" text-rendering="geometricPrecision" shape-rendering="geometricPrecision" transform="matrix(1,0,0,1,-243,-204)" stroke="rgb(204,255,204)">
      <rect x="405.3611" width="100" height="20" y="455.0598" clip-path="url(#clipPath2)" stroke="none"/>
    </g>
    <g stroke-linecap="butt" transform="matrix(1,0,0,1,-243,-204)" fill="gray" text-rendering="geometricPrecision" shape-rendering="geometricPrecision" stroke="gray" stroke-miterlimit="1.45">
      <rect fill="none" x="405.3611" width="100" height="20" y="455.0598" clip-path="url(#clipPath2)"/>
    </g>
    <g font-size="10px" stroke-linecap="butt" transform="matrix(1,0,0,1,-243,-204)" text-rendering="geometricPrecision" font-family="sans-serif" shape-rendering="geometricPrecision" stroke-miterlimit="1.45">
      <text x="422.6941" xml:space="preserve" y="468.9377" clip-path="url(#clipPath2)" stroke="none">frame2 (4096)</text>
    </g>
    <g fill="white" text-rendering="geometricPrecision" shape-rendering="geometricPrecision" transform="matrix(1,0,0,1,-243,-204)" stroke="white">
      <path d="M266.8193 348.5598 Q266.8193 336.5598 278.8193 336.5598 L394.8193 336.5598 Q406.8193 336.5598 406.8193 348.5598 L406.8193 364.5598 Q406.8193 376.5598 394.8193 376.5598 L278.8193 376.5598 Q266.8193 376.5598 266.8193 364.5598 Z" stroke="none" clip-path="url(#clipPath2)"/>
    </g>
    <g stroke-linecap="butt" transform="matrix(1,0,0,1,-243,-204)" fill="gray" text-rendering="geometricPrecision" shape-rendering="geometricPrecision" stroke="gray" stroke-miterlimit="1.45">
      <path fill="none" d="M266.8193 348.5598 Q266.8193 336.5598 278.8193 336.5598 L394.8193 336.5598 Q406.8193 336.5598 406.8193 348.5598 L406.8193 364.5598 Q406.8193 376.5598 394.8193 376.5598 L278.8193 376.5598 Q266.8193 376.5598 266.8193 364.5598 Z" clip-path="url(#clipPath2)"/>
    </g>
    <g stroke-linecap="butt" font-size="10px" transform="matrix(1,0,0,1,-243,-204)" fill="rgb(0,170,0)" text-rendering="geometricPrecision" font-family="sans-serif" shape-rendering="geometricPrecision" stroke="rgb(0,170,0)" stroke-miterlimit="1.45">
      <text x="278.9761" xml:space="preserve" y="346.8252" clip-path="url(#clipPath2)" stroke="none">xsk_ring_prod__reserve()</text>
      <text x="278.9761" xml:space="preserve" y="360.4377" clip-path="url(#clipPath2)" stroke="none">...</text>
      <text x="278.9761" xml:space="preserve" y="374.0502" clip-path="url(#clipPath2)" stroke="none">xsk_ring_prod__submit()</text>
    </g>
    <g fill="white" text-rendering="geometricPrecision" shape-rendering="geometricPrecision" transform="matrix(1,0,0,1,-243,-204)" stroke="white">
      <path d="M503.9029 348.5598 Q503.9029 336.5598 515.9029 336.5598 L631.9029 336.5598 Q643.9029 336.5598 643.9029 348.5598 L643.9029 364.5598 Q643.9029 376.5598 631.9029 376.5598 L515.9029 376.5598 Q503.9029 376.5598 503.9029 364.5598 Z" stroke="none" clip-path="url(#clipPath2)"/>
    </g>
    <g stroke-linecap="butt" transform="matrix(1,0,0,1,-243,-204)" fill="gray" text-rendering="geometricPrecision" shape-rendering="geometricPrecision" stroke="gray" stroke-miterlimit="1.45">
      <path fill="none" d="M503.9029 348.5598 Q503.9029 336.5598 515.9029 336.5598 L631.9029 336.5598 Q643.9029 336.5598 643.9029 348.5598 L643.9029 364.5598 Q643.9029 376.5598 631.9029 376.5598 L515.9029 376.5598 Q503.9029 376.5598 503.9029 364.5598 Z" clip-path="url(#clipPath2)"/>
    </g>
    <g stroke-linecap="butt" font-size="10px" transform="matrix(1,0,0,1,-243,-204)" fill="rgb(0,170,0)" text-rendering="geometricPrecision" font-family="sans-serif" shape-rendering="geometricPrecision" stroke="rgb(0,170,0)" stroke-miterlimit="1.45">
      <text x="516.8992" xml:space="preserve" y="346.8252" clip-path="url(#clipPath2)" stroke="none">xsk_ring_cons__peek()</text>
      <text x="516.8992" xml:space="preserve" y="360.4377" clip-path="url(#clipPath2)" stroke="none">...</text>
      <text x="516.8992" xml:space="preserve" y="374.0502" clip-path="url(#clipPath2)" stroke="none">xsk_ring_cons__release()</text>
    </g>
    <g fill="rgb(255,255,204)" text-rendering="geometricPrecision" shape-rendering="geometricPrecision" transform="matrix(1,0,0,1,-243,-204)" stroke="rgb(255,255,204)">
      <rect x="666.3976" width="90" height="60" y="400.0598" clip-path="url(#clipPath2)" stroke="none"/>
    </g>
    <g stroke-linecap="butt" transform="matrix(1,0,0,1,-243,-204)" fill="gray" text-rendering="geometricPrecision" shape-rendering="geometricPrecision" stroke-dasharray="6,2" stroke="gray" stroke-miterlimit="1.45">
      <rect fill="none" x="666.3976" width="90" height="60" y="400.0598" clip-path="url(#clipPath2)"/>
    </g>
    <g font-size="10px" stroke-linecap="butt" transform="matrix(1,0,0,1,-243,-204)" text-rendering="geometricPrecision" font-family="sans-serif" shape-rendering="geometricPrecision" stroke-miterlimit="1.45">
      <text x="671.6545" xml:space="preserve" y="413.5189" clip-path="url(#clipPath2)" stroke="none">struct xdp_desc {</text>
      <text x="671.6545" xml:space="preserve" y="427.1314" clip-path="url(#clipPath2)" stroke="none">    offset</text>
      <text x="671.6545" xml:space="preserve" y="440.7439" clip-path="url(#clipPath2)" stroke="none">    length</text>
      <text x="671.6545" xml:space="preserve" y="454.3564" clip-path="url(#clipPath2)" stroke="none">}</text>
    </g>
    <g fill="white" text-rendering="geometricPrecision" shape-rendering="geometricPrecision" transform="matrix(1,0,0,1,-243,-204)" stroke="white">
      <rect x="298.8467" width="60" height="40" y="657.6818" clip-path="url(#clipPath2)" stroke="none"/>
    </g>
    <g stroke-linecap="butt" transform="matrix(1,0,0,1,-243,-204)" fill="gray" text-rendering="geometricPrecision" shape-rendering="geometricPrecision" stroke="gray" stroke-miterlimit="1.45">
      <rect fill="none" x="298.8467" width="60" height="40" y="657.6818" clip-path="url(#clipPath2)"/>
    </g>
    <g stroke-linecap="butt" font-size="10px" transform="matrix(1,0,0,1,-243,-204)" fill="rgb(102,102,255)" text-rendering="geometricPrecision" font-family="sans-serif" shape-rendering="geometricPrecision" stroke="rgb(102,102,255)" stroke-miterlimit="1.45">
      <text x="308.7427" xml:space="preserve" y="674.7535" clip-path="url(#clipPath2)" stroke="none">Network</text>
      <text x="317.7478" xml:space="preserve" y="688.366" clip-path="url(#clipPath2)" stroke="none">Card</text>
    </g>
    <g fill="white" text-rendering="geometricPrecision" shape-rendering="geometricPrecision" transform="matrix(1,0,0,1,-243,-204)" stroke="white">
      <rect x="425.3611" width="60" height="20" y="302.9368" clip-path="url(#clipPath2)" stroke="none"/>
    </g>
    <g stroke-linecap="butt" transform="matrix(1,0,0,1,-243,-204)" fill="gray" text-rendering="geometricPrecision" shape-rendering="geometricPrecision" stroke="gray" stroke-miterlimit="1.45">
      <rect fill="none" x="425.3611" width="60" height="20" y="302.9368" clip-path="url(#clipPath2)"/>
    </g>
    <g font-size="10px" stroke-linecap="butt" transform="matrix(1,0,0,1,-243,-204)" text-rendering="geometricPrecision" font-family="sans-serif" shape-rendering="geometricPrecision" stroke-miterlimit="1.45">
      <text x="436.0218" xml:space="preserve" y="316.8147" clip-path="url(#clipPath2)" stroke="none">ctrl data</text>
    </g>
    <g fill="white" text-rendering="geometricPrecision" shape-rendering="geometricPrecision" transform="matrix(1,0,0,1,-243,-204)" stroke="white">
      <rect x="425.3611" width="60" height="20" y="322.9368" clip-path="url(#clipPath2)" stroke="none"/>
    </g>
    <g stroke-linecap="butt" transform="matrix(1,0,0,1,-243,-204)" fill="gray" text-rendering="geometricPrecision" shape-rendering="geometricPrecision" stroke="gray" stroke-miterlimit="1.45">
      <rect fill="none" x="425.3611" width="60" height="20" y="322.9368" clip-path="url(#clipPath2)"/>
    </g>
    <g font-size="10px" stroke-linecap="butt" transform="matrix(1,0,0,1,-243,-204)" text-rendering="geometricPrecision" font-family="sans-serif" shape-rendering="geometricPrecision" stroke-miterlimit="1.45">
      <text x="436.0218" xml:space="preserve" y="336.8147" clip-path="url(#clipPath2)" stroke="none">ctrl data</text>
    </g>
    <g fill="white" text-rendering="geometricPrecision" shape-rendering="geometricPrecision" transform="matrix(1,0,0,1,-243,-204)" stroke="white">
      <rect x="425.3611" width="60" height="20" y="342.9368" clip-path="url(#clipPath2)" stroke="none"/>
    </g>
    <g stroke-linecap="butt" transform="matrix(1,0,0,1,-243,-204)" fill="gray" text-rendering="geometricPrecision" shape-rendering="geometricPrecision" stroke="gray" stroke-miterlimit="1.45">
      <rect fill="none" x="425.3611" width="60" height="20" y="342.9368" clip-path="url(#clipPath2)"/>
    </g>
    <g font-size="10px" stroke-linecap="butt" transform="matrix(1,0,0,1,-243,-204)" text-rendering="geometricPrecision" font-family="sans-serif" shape-rendering="geometricPrecision" stroke-miterlimit="1.45">
      <text x="436.0218" xml:space="preserve" y="356.8147" clip-path="url(#clipPath2)" stroke="none">ctrl data</text>
    </g>
    <g fill="white" text-rendering="geometricPrecision" shape-rendering="geometricPrecision" transform="matrix(1,0,0,1,-243,-204)" stroke="white">
      <rect x="558.8386" width="60" height="40" y="587.6818" clip-path="url(#clipPath2)" stroke="none"/>
    </g>
    <g stroke-linecap="butt" transform="matrix(1,0,0,1,-243,-204)" fill="gray" text-rendering="geometricPrecision" shape-rendering="geometricPrecision" stroke="gray" stroke-miterlimit="1.45">
      <rect fill="none" x="558.8386" width="60" height="40" y="587.6818" clip-path="url(#clipPath2)"/>
    </g>
    <g stroke-linecap="butt" font-size="10px" transform="matrix(1,0,0,1,-243,-204)" fill="rgb(102,102,255)" text-rendering="geometricPrecision" font-family="sans-serif" shape-rendering="geometricPrecision" stroke="rgb(102,102,255)" stroke-miterlimit="1.45">
      <text x="571.2333" xml:space="preserve" y="611.5597" clip-path="url(#clipPath2)" stroke="none">AF_XDP</text>
    </g>
    <g fill="white" text-rendering="geometricPrecision" shape-rendering="geometricPrecision" transform="matrix(1,0,0,1,-243,-204)" stroke="white">
      <rect x="306.8193" width="60" height="40" y="415.0598" clip-path="url(#clipPath2)" stroke="none"/>
    </g>
    <g stroke-linecap="butt" transform="matrix(1,0,0,1,-243,-204)" fill="gray" text-rendering="geometricPrecision" shape-rendering="geometricPrecision" stroke="gray" stroke-miterlimit="1.45">
      <rect fill="none" x="306.8193" width="60" height="40" y="415.0598" clip-path="url(#clipPath2)"/>
    </g>
    <g stroke-linecap="butt" font-size="10px" transform="matrix(1,0,0,1,-243,-204)" fill="rgb(102,102,255)" text-rendering="geometricPrecision" font-family="sans-serif" shape-rendering="geometricPrecision" stroke="rgb(102,102,255)" stroke-miterlimit="1.45">
      <text x="314.7365" xml:space="preserve" y="408.1314" clip-path="url(#clipPath2)" stroke="none">fill-queue</text>
    </g>
    <g fill="white" text-rendering="geometricPrecision" shape-rendering="geometricPrecision" transform="matrix(1,0,0,1,-243,-204)" stroke="white">
      <rect x="306.8193" width="60" height="10" y="415.0598" clip-path="url(#clipPath2)" stroke="none"/>
    </g>
    <g stroke-linecap="butt" transform="matrix(1,0,0,1,-243,-204)" fill="gray" text-rendering="geometricPrecision" shape-rendering="geometricPrecision" stroke="gray" stroke-miterlimit="1.45">
      <rect fill="none" x="306.8193" width="60" height="10" y="415.0598" clip-path="url(#clipPath2)"/>
    </g>
    <g font-size="10px" stroke-linecap="butt" transform="matrix(1,0,0,1,-243,-204)" text-rendering="geometricPrecision" font-family="sans-serif" shape-rendering="geometricPrecision" stroke-miterlimit="1.45">
      <text x="325.3856" xml:space="preserve" y="423.9377" clip-path="url(#clipPath2)" stroke="none">8192</text>
    </g>
    <g fill="white" text-rendering="geometricPrecision" shape-rendering="geometricPrecision" transform="matrix(1,0,0,1,-243,-204)" stroke="white">
      <rect x="306.8193" width="60" height="10" y="425.0598" clip-path="url(#clipPath2)" stroke="none"/>
    </g>
    <g stroke-linecap="butt" transform="matrix(1,0,0,1,-243,-204)" fill="gray" text-rendering="geometricPrecision" shape-rendering="geometricPrecision" stroke="gray" stroke-miterlimit="1.45">
      <rect fill="none" x="306.8193" width="60" height="10" y="425.0598" clip-path="url(#clipPath2)"/>
    </g>
    <g font-size="10px" stroke-linecap="butt" transform="matrix(1,0,0,1,-243,-204)" text-rendering="geometricPrecision" font-family="sans-serif" shape-rendering="geometricPrecision" stroke-miterlimit="1.45">
      <text x="333.9609" xml:space="preserve" y="433.9377" clip-path="url(#clipPath2)" stroke="none">0</text>
    </g>
    <g fill="white" text-rendering="geometricPrecision" shape-rendering="geometricPrecision" transform="matrix(1,0,0,1,-243,-204)" stroke="white">
      <rect x="306.8193" width="60" height="10" y="435.0598" clip-path="url(#clipPath2)" stroke="none"/>
    </g>
    <g stroke-linecap="butt" transform="matrix(1,0,0,1,-243,-204)" fill="gray" text-rendering="geometricPrecision" shape-rendering="geometricPrecision" stroke="gray" stroke-miterlimit="1.45">
      <rect fill="none" x="306.8193" width="60" height="10" y="435.0598" clip-path="url(#clipPath2)"/>
    </g>
    <g font-size="10px" stroke-linecap="butt" transform="matrix(1,0,0,1,-243,-204)" text-rendering="geometricPrecision" font-family="sans-serif" shape-rendering="geometricPrecision" stroke-miterlimit="1.45">
      <text x="325.3856" xml:space="preserve" y="443.9377" clip-path="url(#clipPath2)" stroke="none">4096</text>
    </g>
    <g fill="white" text-rendering="geometricPrecision" shape-rendering="geometricPrecision" transform="matrix(1,0,0,1,-243,-204)" stroke="white">
      <rect x="425.3611" width="60" height="40" y="230.8138" clip-path="url(#clipPath2)" stroke="none"/>
    </g>
    <g stroke-linecap="butt" transform="matrix(1,0,0,1,-243,-204)" fill="gray" text-rendering="geometricPrecision" shape-rendering="geometricPrecision" stroke="gray" stroke-miterlimit="1.45">
      <rect fill="none" x="425.3611" width="60" height="40" y="230.8138" clip-path="url(#clipPath2)"/>
    </g>
    <g stroke-linecap="butt" font-size="10px" transform="matrix(1,0,0,1,-243,-204)" fill="rgb(102,102,255)" text-rendering="geometricPrecision" font-family="sans-serif" shape-rendering="geometricPrecision" stroke="rgb(102,102,255)" stroke-miterlimit="1.45">
      <text x="446.411" xml:space="preserve" y="254.6917" clip-path="url(#clipPath2)" stroke="none">app</text>
    </g>
    <g fill="white" text-rendering="geometricPrecision" shape-rendering="geometricPrecision" transform="matrix(1,0,0,1,-243,-204)" stroke="white">
      <rect x="543.9029" width="60" height="40" y="415.0598" clip-path="url(#clipPath2)" stroke="none"/>
    </g>
    <g stroke-linecap="butt" transform="matrix(1,0,0,1,-243,-204)" fill="gray" text-rendering="geometricPrecision" shape-rendering="geometricPrecision" stroke="gray" stroke-miterlimit="1.45">
      <rect fill="none" x="543.9029" width="60" height="40" y="415.0598" clip-path="url(#clipPath2)"/>
    </g>
    <g stroke-linecap="butt" font-size="10px" transform="matrix(1,0,0,1,-243,-204)" fill="rgb(102,102,255)" text-rendering="geometricPrecision" font-family="sans-serif" shape-rendering="geometricPrecision" stroke="rgb(102,102,255)" stroke-miterlimit="1.45">
      <text x="552.6996" xml:space="preserve" y="408.1314" clip-path="url(#clipPath2)" stroke="none">rx-queue</text>
    </g>
    <g fill="white" text-rendering="geometricPrecision" shape-rendering="geometricPrecision" transform="matrix(1,0,0,1,-243,-204)" stroke="white">
      <rect x="543.9029" width="60" height="10" y="415.0598" clip-path="url(#clipPath2)" stroke="none"/>
    </g>
    <g stroke-linecap="butt" transform="matrix(1,0,0,1,-243,-204)" fill="gray" text-rendering="geometricPrecision" shape-rendering="geometricPrecision" stroke="gray" stroke-miterlimit="1.45">
      <rect fill="none" x="543.9029" width="60" height="10" y="415.0598" clip-path="url(#clipPath2)"/>
    </g>
    <g font-size="10px" stroke-linecap="butt" transform="matrix(1,0,0,1,-243,-204)" text-rendering="geometricPrecision" font-family="sans-serif" shape-rendering="geometricPrecision" stroke-miterlimit="1.45">
      <text x="553.1743" xml:space="preserve" y="423.9377" clip-path="url(#clipPath2)" stroke="none">{0, 1500}</text>
    </g>
    <g fill="white" text-rendering="geometricPrecision" shape-rendering="geometricPrecision" transform="matrix(1,0,0,1,-243,-204)" stroke="white">
      <rect x="543.9029" width="60" height="10" y="425.0598" clip-path="url(#clipPath2)" stroke="none"/>
    </g>
    <g stroke-linecap="butt" transform="matrix(1,0,0,1,-243,-204)" fill="gray" text-rendering="geometricPrecision" shape-rendering="geometricPrecision" stroke="gray" stroke-miterlimit="1.45">
      <rect fill="none" x="543.9029" width="60" height="10" y="425.0598" clip-path="url(#clipPath2)"/>
    </g>
    <g font-size="10px" stroke-linecap="butt" transform="matrix(1,0,0,1,-243,-204)" text-rendering="geometricPrecision" font-family="sans-serif" shape-rendering="geometricPrecision" stroke-miterlimit="1.45">
      <text x="544.599" xml:space="preserve" y="433.9377" clip-path="url(#clipPath2)" stroke="none">{8192, 1500}</text>
    </g>
    <g fill="white" text-rendering="geometricPrecision" shape-rendering="geometricPrecision" transform="matrix(1,0,0,1,-243,-204)" stroke="white">
      <rect x="543.9029" width="60" height="10" y="435.0598" clip-path="url(#clipPath2)" stroke="none"/>
    </g>
    <g stroke-linecap="butt" transform="matrix(1,0,0,1,-243,-204)" fill="gray" text-rendering="geometricPrecision" shape-rendering="geometricPrecision" stroke="gray" stroke-miterlimit="1.45">
      <rect fill="none" x="543.9029" width="60" height="10" y="435.0598" clip-path="url(#clipPath2)"/>
    </g>
    <g fill="white" text-rendering="geometricPrecision" shape-rendering="geometricPrecision" transform="matrix(1,0,0,1,-243,-204)" stroke="white">
      <path d="M558.8386 505.0598 Q558.8386 495.0598 568.8386 495.0598 L608.8386 495.0598 Q618.8386 495.0598 618.8386 505.0598 L618.8386 505.0598 Q618.8386 515.0598 608.8386 515.0598 L568.8386 515.0598 Q558.8386 515.0598 558.8386 505.0598 Z" stroke="none" clip-path="url(#clipPath2)"/>
    </g>
    <g stroke-linecap="butt" transform="matrix(1,0,0,1,-243,-204)" fill="gray" text-rendering="geometricPrecision" shape-rendering="geometricPrecision" stroke="gray" stroke-miterlimit="1.45">
      <path fill="none" d="M558.8386 505.0598 Q558.8386 495.0598 568.8386 495.0598 L608.8386 495.0598 Q618.8386 495.0598 618.8386 505.0598 L618.8386 505.0598 Q618.8386 515.0598 608.8386 515.0598 L568.8386 515.0598 Q558.8386 515.0598 558.8386 505.0598 Z" clip-path="url(#clipPath2)"/>
    </g>
    <g stroke-linecap="butt" font-size="10px" transform="matrix(1,0,0,1,-243,-204)" fill="rgb(0,170,0)" text-rendering="geometricPrecision" font-family="sans-serif" shape-rendering="geometricPrecision" stroke="rgb(0,170,0)" stroke-miterlimit="1.45">
      <text x="577.165" xml:space="preserve" y="508.9377" clip-path="url(#clipPath2)" stroke="none">poll()</text>
    </g>
    <g fill="white" text-rendering="geometricPrecision" shape-rendering="geometricPrecision" transform="matrix(1,0,0,1,-243,-204)" stroke="white">
      <rect x="485.3611" width="40" height="20" y="230.8138" clip-path="url(#clipPath2)" stroke="none"/>
    </g>
    <g stroke-linecap="butt" transform="matrix(1,0,0,1,-243,-204)" fill="gray" text-rendering="geometricPrecision" shape-rendering="geometricPrecision" stroke="gray" stroke-miterlimit="1.45">
      <rect fill="none" x="485.3611" width="40" height="20" y="230.8138" clip-path="url(#clipPath2)"/>
    </g>
    <g font-size="10px" stroke-linecap="butt" transform="matrix(1,0,0,1,-243,-204)" text-rendering="geometricPrecision" font-family="sans-serif" shape-rendering="geometricPrecision" stroke-miterlimit="1.45">
      <text x="496.5959" xml:space="preserve" y="244.6917" clip-path="url(#clipPath2)" stroke="none">XSK</text>
    </g>
    <g fill="white" text-rendering="geometricPrecision" shape-rendering="geometricPrecision" transform="matrix(1,0,0,1,-243,-204)" stroke="white">
      <rect x="258.2266" width="393.9963" height="7.4453" y="535.3602" clip-path="url(#clipPath2)" stroke="none"/>
    </g>
    <g stroke-linecap="butt" transform="matrix(1,0,0,1,-243,-204)" fill="rgb(204,204,0)" text-rendering="geometricPrecision" shape-rendering="geometricPrecision" stroke-dasharray="6,2" stroke="rgb(204,204,0)" stroke-miterlimit="1.45">
      <rect fill="none" x="258.2266" width="393.9963" height="7.4453" y="535.3602" clip-path="url(#clipPath2)"/>
    </g>
    <g fill="white" text-rendering="geometricPrecision" shape-rendering="geometricPrecision" transform="matrix(1,0,0,1,-243,-204)" stroke="white">
      <rect x="425.3611" width="60" height="20" y="362.9368" clip-path="url(#clipPath2)" stroke="none"/>
    </g>
    <g stroke-linecap="butt" transform="matrix(1,0,0,1,-243,-204)" fill="gray" text-rendering="geometricPrecision" shape-rendering="geometricPrecision" stroke="gray" stroke-miterlimit="1.45">
      <rect fill="none" x="425.3611" width="60" height="20" y="362.9368" clip-path="url(#clipPath2)"/>
    </g>
    <g font-size="10px" stroke-linecap="butt" transform="matrix(1,0,0,1,-243,-204)" text-rendering="geometricPrecision" font-family="sans-serif" shape-rendering="geometricPrecision" stroke-miterlimit="1.45">
      <text x="451.3434" xml:space="preserve" y="376.8147" clip-path="url(#clipPath2)" stroke="none">...</text>
    </g>
    <g fill="white" text-rendering="geometricPrecision" shape-rendering="geometricPrecision" transform="matrix(1,0,0,1,-243,-204)" stroke="white">
      <rect x="298.8467" width="60" height="40" y="587.6818" clip-path="url(#clipPath2)" stroke="none"/>
    </g>
    <g stroke-linecap="butt" transform="matrix(1,0,0,1,-243,-204)" fill="gray" text-rendering="geometricPrecision" shape-rendering="geometricPrecision" stroke="gray" stroke-miterlimit="1.45">
      <rect fill="none" x="298.8467" width="60" height="40" y="587.6818" clip-path="url(#clipPath2)"/>
    </g>
    <g stroke-linecap="butt" font-size="10px" transform="matrix(1,0,0,1,-243,-204)" fill="rgb(102,102,255)" text-rendering="geometricPrecision" font-family="sans-serif" shape-rendering="geometricPrecision" stroke="rgb(102,102,255)" stroke-miterlimit="1.45">
      <text x="314.4246" xml:space="preserve" y="611.5597" clip-path="url(#clipPath2)" stroke="none">Driver</text>
    </g>
    <g stroke-linecap="butt" transform="matrix(1,0,0,1,-243,-204)" fill="rgb(102,153,255)" text-rendering="geometricPrecision" shape-rendering="geometricPrecision" stroke-dasharray="6,2" stroke="rgb(102,153,255)" stroke-miterlimit="1.45">
      <path fill="none" d="M405.3892 485.0598 L310.7073 485.0598 L310.7073 649.6953" clip-path="url(#clipPath2)"/>
    </g>
    <g stroke-linecap="butt" transform="matrix(1,0,0,1,-243,-204)" fill="rgb(102,153,255)" text-rendering="geometricPrecision" shape-rendering="geometricPrecision" stroke-dasharray="6,2" stroke="rgb(102,153,255)" stroke-miterlimit="1.45">
      <path d="M310.7073 657.6953 L315.7073 645.6953 L310.7073 648.6953 L305.7073 645.6953 Z" stroke="none" clip-path="url(#clipPath2)"/>
    </g>
    <g stroke-linecap="butt" transform="matrix(1,0,0,1,-243,-204)" fill="rgb(255,153,153)" text-rendering="geometricPrecision" shape-rendering="geometricPrecision" stroke="rgb(255,153,153)" stroke-width="2" stroke-miterlimit="1.45">
      <path fill="none" d="M358.8467 677.6818 L480.9612 677.6818 L480.9612 504.0598" clip-path="url(#clipPath2)"/>
      <path d="M480.9612 495.0598 L475.3362 508.5598 L480.9612 505.1848 L486.5862 508.5598 Z" clip-path="url(#clipPath2)" stroke="none"/>
    </g>
    <g font-size="10px" stroke-linecap="butt" transform="matrix(1,0,0,1,-243,-204)" text-rendering="geometricPrecision" font-family="sans-serif" shape-rendering="geometricPrecision" stroke-miterlimit="1.45">
      <text x="365.8467" xml:space="preserve" y="667.4797" clip-path="url(#clipPath2)" stroke="none">#4</text>
    </g>
    <g stroke-linecap="butt" transform="matrix(1,0,0,1,-243,-204)" fill="rgb(102,153,255)" text-rendering="geometricPrecision" shape-rendering="geometricPrecision" stroke-dasharray="6,2" stroke="rgb(102,153,255)" stroke-miterlimit="1.45">
      <path fill="none" d="M310.7073 455.0845 L310.7073 649.6819" clip-path="url(#clipPath2)"/>
      <path d="M310.7073 657.6819 L315.7073 645.6819 L310.7073 648.6819 L305.7073 645.6819 Z" clip-path="url(#clipPath2)" stroke="none"/>
    </g>
    <g font-size="10px" stroke-linecap="butt" transform="matrix(1,0,0,1,-243,-204)" text-rendering="geometricPrecision" font-family="sans-serif" shape-rendering="geometricPrecision" stroke-miterlimit="1.45">
      <text x="316.4594" xml:space="preserve" y="472.7439" clip-path="url(#clipPath2)" stroke="none">#2</text>
    </g>
    <g stroke-linecap="round" transform="matrix(1,0,0,1,-243,-204)" fill="rgb(102,153,255)" text-rendering="geometricPrecision" shape-rendering="geometricPrecision" stroke-dasharray="4,3,0,3" stroke="rgb(102,153,255)" stroke-miterlimit="1.45">
      <path fill="none" d="M366.8193 420.0598 L386.0902 420.0598 L386.0902 461.5598 L397.3235 461.5598" clip-path="url(#clipPath2)"/>
      <path d="M405.3235 461.5598 L393.3235 456.5598 L396.3235 461.5598 L393.3235 466.5598 Z" clip-path="url(#clipPath2)" stroke="none"/>
    </g>
    <g stroke-linecap="butt" transform="matrix(1,0,0,1,-243,-204)" fill="gray" text-rendering="geometricPrecision" shape-rendering="geometricPrecision" stroke-dasharray="6,2" stroke="gray" stroke-miterlimit="1.45">
      <path fill="none" d="M336.8193 415.0658 L336.8193 376.5548" clip-path="url(#clipPath2)"/>
      <path fill="none" d="M366.8193 430.0598 L397.3235 430.0598" clip-path="url(#clipPath2)" stroke="rgb(102,153,255)"/>
      <path fill="rgb(102,153,255)" d="M405.3235 430.0598 L393.3235 425.0598 L396.3235 430.0598 L393.3235 435.0598 Z" clip-path="url(#clipPath2)" stroke="none"/>
      <path fill="none" d="M366.831 440.0598 L397.3468 440.0598" clip-path="url(#clipPath2)" stroke="rgb(102,153,255)"/>
      <path fill="rgb(102,153,255)" d="M405.3468 440.0598 L393.3468 435.0598 L396.3468 440.0598 L393.3468 445.0598 Z" clip-path="url(#clipPath2)" stroke="none"/>
      <path fill="none" stroke-dasharray="none" d="M425.3255 264.217 L279.3969 264.217 L279.3969 328.562" clip-path="url(#clipPath2)" stroke="rgb(102,153,255)"/>
      <path fill="rgb(102,153,255)" stroke-dasharray="none" d="M279.3969 336.562 L284.3969 324.562 L279.3969 327.562 L274.3969 324.562 Z" clip-path="url(#clipPath2)" stroke="none"/>
    </g>
    <g font-size="10px" stroke-linecap="butt" transform="matrix(1,0,0,1,-243,-204)" text-rendering="geometricPrecision" font-family="sans-serif" shape-rendering="geometricPrecision" stroke-miterlimit="1.45">
      <text x="411.6653" xml:space="preserve" y="258.0161" clip-path="url(#clipPath2)" stroke="none">#1</text>
    </g>
    <g stroke-linecap="butt" transform="matrix(1,0,0,1,-243,-204)" fill="rgb(102,153,255)" text-rendering="geometricPrecision" shape-rendering="geometricPrecision" stroke="rgb(102,153,255)" stroke-miterlimit="1.45">
      <path fill="none" d="M485.3611 260.6201 L576.6622 260.6201 L576.6622 328.5683" clip-path="url(#clipPath2)"/>
      <path d="M576.6622 336.5683 L581.6622 324.5683 L576.6622 327.5683 L571.6622 324.5683 Z" clip-path="url(#clipPath2)" stroke="none"/>
    </g>
    <g font-size="10px" stroke-linecap="butt" transform="matrix(1,0,0,1,-243,-204)" text-rendering="geometricPrecision" font-family="sans-serif" shape-rendering="geometricPrecision" stroke-miterlimit="1.45">
      <text x="489.4037" xml:space="preserve" y="272.482" clip-path="url(#clipPath2)" stroke="none">#9</text>
    </g>
    <g stroke-linecap="butt" transform="matrix(1,0,0,1,-243,-204)" fill="rgb(102,153,255)" text-rendering="geometricPrecision" shape-rendering="geometricPrecision" stroke="rgb(102,153,255)" stroke-miterlimit="1.45">
      <path fill="none" d="M485.3429 260.6201 L509.6331 260.6201 L509.6331 282.9368 L455.3611 282.9368 L455.3611 294.9466" clip-path="url(#clipPath2)"/>
      <path d="M455.3611 302.9466 L460.3611 290.9466 L455.3611 293.9466 L450.3611 290.9466 Z" clip-path="url(#clipPath2)" stroke="none"/>
      <path fill="none" d="M569.36 587.6465 L569.36 525.21 L552.7786 525.21 L552.7786 463.0598" clip-path="url(#clipPath2)" stroke="rgb(255,153,153)"/>
      <path fill="rgb(255,153,153)" d="M552.7786 455.0598 L547.7786 467.0598 L552.7786 464.0598 L557.7786 467.0598 Z" clip-path="url(#clipPath2)" stroke="none"/>
    </g>
    <g font-size="10px" stroke-linecap="butt" transform="matrix(1,0,0,1,-243,-204)" text-rendering="geometricPrecision" font-family="sans-serif" shape-rendering="geometricPrecision" stroke-miterlimit="1.45">
      <text x="553.7405" xml:space="preserve" y="582.4165" clip-path="url(#clipPath2)" stroke="none">#7</text>
    </g>
    <g stroke-linecap="butt" transform="matrix(1,0,0,1,-243,-204)" fill="gray" text-rendering="geometricPrecision" shape-rendering="geometricPrecision" stroke-dasharray="6,2" stroke="gray" stroke-miterlimit="1.45">
      <path fill="none" d="M661.3976 421.5598 L603.9029 421.5598" clip-path="url(#clipPath2)"/>
      <path fill="none" d="M573.9029 376.5598 L573.9029 415.0222" clip-path="url(#clipPath2)"/>
      <path fill="none" d="M543.8724 420.0598 L528.3013 420.0598 L528.3013 425.4931 L513.3933 425.4931" clip-path="url(#clipPath2)" stroke="rgb(255,153,153)"/>
      <path fill="rgb(255,153,153)" d="M505.3933 425.4931 L517.3933 430.4931 L514.3933 425.4931 L517.3933 420.4931 Z" clip-path="url(#clipPath2)" stroke="none"/>
      <path fill="none" d="M543.8682 430.0598 L526.114 430.0598 L526.114 464.9171 L513.3874 464.9171" clip-path="url(#clipPath2)" stroke="rgb(255,153,153)"/>
      <path fill="rgb(255,153,153)" d="M505.3874 464.9171 L517.3874 469.9171 L514.3874 464.9171 L517.3874 459.9171 Z" clip-path="url(#clipPath2)" stroke="none"/>
      <path fill="none" stroke-dasharray="none" d="M598.3978 587.6464 L598.3978 523.0598" clip-path="url(#clipPath2)" stroke="rgb(255,153,153)"/>
      <path fill="rgb(255,153,153)" stroke-dasharray="none" d="M598.3978 515.0598 L593.3978 527.0598 L598.3978 524.0598 L603.3978 527.0598 Z" clip-path="url(#clipPath2)" stroke="none"/>
    </g>
    <g font-size="10px" stroke-linecap="butt" transform="matrix(1,0,0,1,-243,-204)" text-rendering="geometricPrecision" font-family="sans-serif" shape-rendering="geometricPrecision" stroke-miterlimit="1.45">
      <text x="602.6711" xml:space="preserve" y="582.3853" clip-path="url(#clipPath2)" stroke="none">#8</text>
    </g>
    <g stroke-linecap="butt" transform="matrix(1,0,0,1,-243,-204)" fill="rgb(102,153,255)" text-rendering="geometricPrecision" shape-rendering="geometricPrecision" stroke="rgb(102,153,255)" stroke-miterlimit="1.45">
      <path fill="none" d="M525.3331 240.8138 L652.7576 240.8138 L652.7576 505.0598 L626.8681 505.0598" clip-path="url(#clipPath2)"/>
      <path d="M618.8681 505.0598 L630.8681 510.0598 L627.8681 505.0598 L630.8681 500.0598 Z" clip-path="url(#clipPath2)" stroke="none"/>
    </g>
    <g font-size="10px" stroke-linecap="butt" transform="matrix(1,0,0,1,-243,-204)" text-rendering="geometricPrecision" font-family="sans-serif" shape-rendering="geometricPrecision" stroke-miterlimit="1.45">
      <text x="529.6754" xml:space="preserve" y="232.1957" clip-path="url(#clipPath2)" stroke="none">#3</text>
    </g>
    <g stroke-linecap="butt" transform="matrix(1,0,0,1,-243,-204)" fill="gray" text-rendering="geometricPrecision" shape-rendering="geometricPrecision" stroke-dasharray="6,2" stroke="gray" stroke-miterlimit="1.45">
      <path fill="none" d="M455.3611 382.9368 L455.3611 407.0284" clip-path="url(#clipPath2)"/>
      <path d="M455.3611 415.0284 L460.3611 403.0284 L455.3611 406.0284 L450.3611 403.0284 Z" clip-path="url(#clipPath2)" stroke="none"/>
      <path fill="none" stroke-dasharray="none" d="M279.5668 376.5598 L279.5668 525.21 L302.8118 525.21 L302.8118 579.709" clip-path="url(#clipPath2)" stroke="rgb(102,153,255)"/>
      <path fill="rgb(102,153,255)" stroke-dasharray="none" d="M302.8118 587.709 L307.8118 575.709 L302.8118 578.709 L297.8118 575.709 Z" clip-path="url(#clipPath2)" stroke="none"/>
      <path fill="none" stroke-dasharray="none" d="M341.1347 657.6525 L341.1347 635.6818" clip-path="url(#clipPath2)" stroke="rgb(255,153,153)"/>
      <path fill="rgb(255,153,153)" stroke-dasharray="none" d="M341.1347 627.6818 L336.1347 639.6818 L341.1347 636.6818 L346.1347 639.6818 Z" clip-path="url(#clipPath2)" stroke="none"/>
    </g>
    <g fill="rgb(104,176,227)" text-rendering="geometricPrecision" shape-rendering="geometricPrecision" transform="matrix(1,0,0,1,-243,-204)" stroke="rgb(104,176,227)">
      <path d="M379.9907 554.6506 L379.9907 643.1006 L473.5747 643.1006 L473.5747 554.6506 ZM380.9907 576.6506 L380.9907 642.1006 L472.5747 642.1006 L472.5747 576.6506 Z" fill-rule="evenodd" clip-path="url(#clipPath2)" stroke="none"/>
    </g>
    <g stroke-linecap="butt" font-size="10px" transform="matrix(1,0,0,1,-243,-204)" fill="white" text-rendering="geometricPrecision" font-family="sans-serif" shape-rendering="geometricPrecision" stroke="white" stroke-miterlimit="1.45">
      <text x="381.9907" xml:space="preserve" y="567.3347" clip-path="url(#clipPath2)" stroke="none">eBPF Processor</text>
    </g>
    <g fill="white" text-rendering="geometricPrecision" shape-rendering="geometricPrecision" transform="matrix(1,0,0,1,-243,-204)" stroke="white">
      <rect x="394.9907" width="60" height="40" y="587.6818" clip-path="url(#clipPath2)" stroke="none"/>
    </g>
    <g stroke-linecap="butt" transform="matrix(1,0,0,1,-243,-204)" fill="gray" text-rendering="geometricPrecision" shape-rendering="geometricPrecision" stroke="gray" stroke-miterlimit="1.45">
      <rect fill="none" x="394.9907" width="60" height="40" y="587.6818" clip-path="url(#clipPath2)"/>
    </g>
    <g stroke-linecap="butt" font-size="10px" transform="matrix(1,0,0,1,-243,-204)" fill="rgb(102,102,255)" text-rendering="geometricPrecision" font-family="sans-serif" shape-rendering="geometricPrecision" stroke="rgb(102,102,255)" stroke-miterlimit="1.45">
      <text x="413.3071" xml:space="preserve" y="597.9472" clip-path="url(#clipPath2)" stroke="none">eBPF</text>
      <text x="404.2671" xml:space="preserve" y="611.5597" clip-path="url(#clipPath2)" stroke="none">Program</text>
      <text x="404.9017" xml:space="preserve" y="625.1722" clip-path="url(#clipPath2)" stroke="none">Instance</text>
    </g>
    <g stroke-linecap="butt" transform="matrix(1,0,0,1,-243,-204)" fill="rgb(255,153,153)" text-rendering="geometricPrecision" shape-rendering="geometricPrecision" stroke="rgb(255,153,153)" stroke-miterlimit="1.45">
      <path fill="none" d="M358.8334 608.8864 L372.0073 608.8864" clip-path="url(#clipPath2)"/>
      <path d="M380.0073 608.8864 L368.0073 603.8864 L371.0073 608.8864 L368.0073 613.8864 Z" clip-path="url(#clipPath2)" stroke="none"/>
    </g>
    <g font-size="10px" stroke-linecap="butt" transform="matrix(1,0,0,1,-243,-204)" text-rendering="geometricPrecision" font-family="sans-serif" shape-rendering="geometricPrecision" stroke-miterlimit="1.45">
      <text x="363.332" xml:space="preserve" y="600.7803" clip-path="url(#clipPath2)" stroke="none">#5</text>
    </g>
    <g stroke-linecap="butt" transform="matrix(1,0,0,1,-243,-204)" fill="rgb(255,153,153)" text-rendering="geometricPrecision" shape-rendering="geometricPrecision" stroke="rgb(255,153,153)" stroke-miterlimit="1.45">
      <path fill="none" d="M454.9907 619.0152 L550.8132 619.0152" clip-path="url(#clipPath2)"/>
      <path d="M558.8132 619.0152 L546.8132 614.0152 L549.8132 619.0152 L546.8132 624.0152 Z" clip-path="url(#clipPath2)" stroke="none"/>
    </g>
    <g stroke-linecap="butt" font-size="10px" transform="matrix(1,0,0,1,-243,-204)" fill="rgb(0,170,0)" text-rendering="geometricPrecision" font-family="sans-serif" shape-rendering="geometricPrecision" stroke="rgb(0,170,0)" stroke-miterlimit="1.45">
      <text x="462.3188" xml:space="preserve" y="612.4004" clip-path="url(#clipPath2)" stroke="none">bpf_redirect_map()</text>
    </g>
    <g stroke-linecap="butt" transform="matrix(1,0,0,1,-243,-204)" fill="rgb(255,153,153)" text-rendering="geometricPrecision" shape-rendering="geometricPrecision" stroke="rgb(255,153,153)" stroke-miterlimit="1.45">
      <path fill="none" d="M424.9907 587.654 L424.9907 503.0537" clip-path="url(#clipPath2)"/>
      <path d="M424.9907 495.0537 L419.9907 507.0537 L424.9907 504.0537 L429.9907 507.0537 Z" clip-path="url(#clipPath2)" stroke="none"/>
    </g>
    <g font-size="10px" stroke-linecap="butt" transform="matrix(1,0,0,1,-243,-204)" text-rendering="geometricPrecision" font-family="sans-serif" shape-rendering="geometricPrecision" stroke-miterlimit="1.45">
      <text x="430.472" xml:space="preserve" y="582.8851" clip-path="url(#clipPath2)" stroke="none">#6</text>
    </g>
  </g>
</svg>
