<?xml version="1.0" encoding="UTF-8"?><svg xmlns="http://www.w3.org/2000/svg" xmlns:xlink="http://www.w3.org/1999/xlink" fill-opacity="1" color-rendering="auto" color-interpolation="auto" text-rendering="auto" stroke="black" stroke-linecap="square" width="507" stroke-miterlimit="10" shape-rendering="auto" stroke-opacity="1" fill="black" stroke-dasharray="none" font-weight="normal" stroke-width="1" height="485" font-family="'Dialog'" font-style="normal" stroke-linejoin="miter" font-size="12px" stroke-dashoffset="0" image-rendering="auto">
  <!--Generated by ySVG 2.5-->
  <defs id="genericDefs"/>
  <g>
    <defs id="defs1">
      <clipPath clipPathUnits="userSpaceOnUse" id="clipPath1">
        <path d="M0 0 L507 0 L507 485 L0 485 L0 0 Z"/>
      </clipPath>
      <clipPath clipPathUnits="userSpaceOnUse" id="clipPath2">
        <path d="M299 146 L806 146 L806 631 L299 631 L299 146 Z"/>
      </clipPath>
    </defs>
    <g fill="white" text-rendering="geometricPrecision" shape-rendering="geometricPrecision" transform="translate(-299,-146)" stroke="white">
      <rect x="299" width="507" height="485" y="146" clip-path="url(#clipPath2)" stroke="none"/>
    </g>
    <g fill="white" text-rendering="geometricPrecision" shape-rendering="geometricPrecision" transform="matrix(1,0,0,1,-299,-146)" stroke="white">
      <rect x="538.6198" width="100" height="20" y="357.1536" clip-path="url(#clipPath2)" stroke="none"/>
    </g>
    <g stroke-linecap="butt" transform="matrix(1,0,0,1,-299,-146)" fill="gray" text-rendering="geometricPrecision" shape-rendering="geometricPrecision" stroke="gray" stroke-miterlimit="1.45">
      <rect fill="none" x="538.6198" width="100" height="20" y="357.1536" clip-path="url(#clipPath2)"/>
    </g>
    <g font-size="10px" stroke-linecap="butt" transform="matrix(1,0,0,1,-299,-146)" text-rendering="geometricPrecision" font-family="sans-serif" shape-rendering="geometricPrecision" stroke-miterlimit="1.45">
      <text x="555.9527" xml:space="preserve" y="371.0315" clip-path="url(#clipPath2)" stroke="none">frame0 (4096)</text>
    </g>
    <g fill="rgb(255,204,204)" text-rendering="geometricPrecision" shape-rendering="geometricPrecision" transform="matrix(1,0,0,1,-299,-146)" stroke="rgb(255,204,204)">
      <rect x="538.6198" width="100" height="20" y="377.1536" clip-path="url(#clipPath2)" stroke="none"/>
    </g>
    <g stroke-linecap="butt" transform="matrix(1,0,0,1,-299,-146)" fill="gray" text-rendering="geometricPrecision" shape-rendering="geometricPrecision" stroke="gray" stroke-miterlimit="1.45">
      <rect fill="none" x="538.6198" width="100" height="20" y="377.1536" clip-path="url(#clipPath2)"/>
    </g>
    <g font-size="10px" stroke-linecap="butt" transform="matrix(1,0,0,1,-299,-146)" text-rendering="geometricPrecision" font-family="sans-serif" shape-rendering="geometricPrecision" stroke-miterlimit="1.45">
      <text x="555.9527" xml:space="preserve" y="391.0315" clip-path="url(#clipPath2)" stroke="none">frame1 (4096)</text>
    </g>
    <g fill="white" text-rendering="geometricPrecision" shape-rendering="geometricPrecision" transform="matrix(1,0,0,1,-299,-146)" stroke="white">
      <rect x="538.6198" width="100" height="20" y="417.1536" clip-path="url(#clipPath2)" stroke="none"/>
    </g>
    <g stroke-linecap="butt" transform="matrix(1,0,0,1,-299,-146)" fill="gray" text-rendering="geometricPrecision" shape-rendering="geometricPrecision" stroke="gray" stroke-miterlimit="1.45">
      <rect fill="none" x="538.6198" width="100" height="20" y="417.1536" clip-path="url(#clipPath2)"/>
    </g>
    <g font-size="10px" stroke-linecap="butt" transform="matrix(1,0,0,1,-299,-146)" text-rendering="geometricPrecision" font-family="sans-serif" shape-rendering="geometricPrecision" stroke-miterlimit="1.45">
      <text x="584.602" xml:space="preserve" y="431.0315" clip-path="url(#clipPath2)" stroke="none">...</text>
    </g>
    <g fill="white" text-rendering="geometricPrecision" shape-rendering="geometricPrecision" transform="matrix(1,0,0,1,-299,-146)" stroke="white">
      <rect x="538.6198" width="100" height="20" y="397.1536" clip-path="url(#clipPath2)" stroke="none"/>
    </g>
    <g stroke-linecap="butt" transform="matrix(1,0,0,1,-299,-146)" fill="gray" text-rendering="geometricPrecision" shape-rendering="geometricPrecision" stroke="gray" stroke-miterlimit="1.45">
      <rect fill="none" x="538.6198" width="100" height="20" y="397.1536" clip-path="url(#clipPath2)"/>
    </g>
    <g font-size="10px" stroke-linecap="butt" transform="matrix(1,0,0,1,-299,-146)" text-rendering="geometricPrecision" font-family="sans-serif" shape-rendering="geometricPrecision" stroke-miterlimit="1.45">
      <text x="555.9527" xml:space="preserve" y="411.0315" clip-path="url(#clipPath2)" stroke="none">frame2 (4096)</text>
    </g>
    <g fill="white" text-rendering="geometricPrecision" shape-rendering="geometricPrecision" transform="matrix(1,0,0,1,-299,-146)" stroke="white">
      <path d="M400.078 290.6537 Q400.078 278.6537 412.078 278.6537 L528.078 278.6537 Q540.078 278.6537 540.078 290.6537 L540.078 306.6537 Q540.078 318.6537 528.078 318.6537 L412.078 318.6537 Q400.078 318.6537 400.078 306.6537 Z" stroke="none" clip-path="url(#clipPath2)"/>
    </g>
    <g stroke-linecap="butt" transform="matrix(1,0,0,1,-299,-146)" fill="gray" text-rendering="geometricPrecision" shape-rendering="geometricPrecision" stroke="gray" stroke-miterlimit="1.45">
      <path fill="none" d="M400.078 290.6537 Q400.078 278.6537 412.078 278.6537 L528.078 278.6537 Q540.078 278.6537 540.078 290.6537 L540.078 306.6537 Q540.078 318.6537 528.078 318.6537 L412.078 318.6537 Q400.078 318.6537 400.078 306.6537 Z" clip-path="url(#clipPath2)"/>
    </g>
    <g stroke-linecap="butt" font-size="10px" transform="matrix(1,0,0,1,-299,-146)" fill="rgb(0,170,0)" text-rendering="geometricPrecision" font-family="sans-serif" shape-rendering="geometricPrecision" stroke="rgb(0,170,0)" stroke-miterlimit="1.45">
      <text x="412.2348" xml:space="preserve" y="288.919" clip-path="url(#clipPath2)" stroke="none">xsk_ring_prod__reserve()</text>
      <text x="412.2348" xml:space="preserve" y="302.5315" clip-path="url(#clipPath2)" stroke="none">...</text>
      <text x="412.2348" xml:space="preserve" y="316.144" clip-path="url(#clipPath2)" stroke="none">xsk_ring_prod__submit()</text>
    </g>
    <g fill="white" text-rendering="geometricPrecision" shape-rendering="geometricPrecision" transform="matrix(1,0,0,1,-299,-146)" stroke="white">
      <path d="M637.1616 290.6537 Q637.1616 278.6537 649.1616 278.6537 L765.1616 278.6537 Q777.1616 278.6537 777.1616 290.6537 L777.1616 306.6537 Q777.1616 318.6537 765.1616 318.6537 L649.1616 318.6537 Q637.1616 318.6537 637.1616 306.6537 Z" stroke="none" clip-path="url(#clipPath2)"/>
    </g>
    <g stroke-linecap="butt" transform="matrix(1,0,0,1,-299,-146)" fill="gray" text-rendering="geometricPrecision" shape-rendering="geometricPrecision" stroke="gray" stroke-miterlimit="1.45">
      <path fill="none" d="M637.1616 290.6537 Q637.1616 278.6537 649.1616 278.6537 L765.1616 278.6537 Q777.1616 278.6537 777.1616 290.6537 L777.1616 306.6537 Q777.1616 318.6537 765.1616 318.6537 L649.1616 318.6537 Q637.1616 318.6537 637.1616 306.6537 Z" clip-path="url(#clipPath2)"/>
    </g>
    <g stroke-linecap="butt" font-size="10px" transform="matrix(1,0,0,1,-299,-146)" fill="rgb(0,170,0)" text-rendering="geometricPrecision" font-family="sans-serif" shape-rendering="geometricPrecision" stroke="rgb(0,170,0)" stroke-miterlimit="1.45">
      <text x="650.1579" xml:space="preserve" y="288.919" clip-path="url(#clipPath2)" stroke="none">xsk_ring_cons__peek()</text>
      <text x="650.1579" xml:space="preserve" y="302.5315" clip-path="url(#clipPath2)" stroke="none">...</text>
      <text x="650.1579" xml:space="preserve" y="316.144" clip-path="url(#clipPath2)" stroke="none">xsk_ring_cons__release()</text>
    </g>
    <g fill="rgb(255,255,204)" text-rendering="geometricPrecision" shape-rendering="geometricPrecision" transform="matrix(1,0,0,1,-299,-146)" stroke="rgb(255,255,204)">
      <rect x="314.3436" width="90" height="60" y="345.6536" clip-path="url(#clipPath2)" stroke="none"/>
    </g>
    <g stroke-linecap="butt" transform="matrix(1,0,0,1,-299,-146)" fill="gray" text-rendering="geometricPrecision" shape-rendering="geometricPrecision" stroke-dasharray="6,2" stroke="gray" stroke-miterlimit="1.45">
      <rect fill="none" x="314.3436" width="90" height="60" y="345.6536" clip-path="url(#clipPath2)"/>
    </g>
    <g font-size="10px" stroke-linecap="butt" transform="matrix(1,0,0,1,-299,-146)" text-rendering="geometricPrecision" font-family="sans-serif" shape-rendering="geometricPrecision" stroke-miterlimit="1.45">
      <text x="319.6004" xml:space="preserve" y="359.1127" clip-path="url(#clipPath2)" stroke="none">struct xdp_desc {</text>
      <text x="319.6004" xml:space="preserve" y="372.7253" clip-path="url(#clipPath2)" stroke="none">    offset</text>
      <text x="319.6004" xml:space="preserve" y="386.3378" clip-path="url(#clipPath2)" stroke="none">    length</text>
      <text x="319.6004" xml:space="preserve" y="399.9503" clip-path="url(#clipPath2)" stroke="none">}</text>
    </g>
    <g fill="white" text-rendering="geometricPrecision" shape-rendering="geometricPrecision" transform="matrix(1,0,0,1,-299,-146)" stroke="white">
      <rect x="432.1053" width="60" height="40" y="575.1997" clip-path="url(#clipPath2)" stroke="none"/>
    </g>
    <g stroke-linecap="butt" transform="matrix(1,0,0,1,-299,-146)" fill="gray" text-rendering="geometricPrecision" shape-rendering="geometricPrecision" stroke="gray" stroke-miterlimit="1.45">
      <rect fill="none" x="432.1053" width="60" height="40" y="575.1997" clip-path="url(#clipPath2)"/>
    </g>
    <g stroke-linecap="butt" font-size="10px" transform="matrix(1,0,0,1,-299,-146)" fill="rgb(102,102,255)" text-rendering="geometricPrecision" font-family="sans-serif" shape-rendering="geometricPrecision" stroke="rgb(102,102,255)" stroke-miterlimit="1.45">
      <text x="442.0013" xml:space="preserve" y="592.2713" clip-path="url(#clipPath2)" stroke="none">Network</text>
      <text x="451.0064" xml:space="preserve" y="605.8839" clip-path="url(#clipPath2)" stroke="none">Card</text>
    </g>
    <g fill="white" text-rendering="geometricPrecision" shape-rendering="geometricPrecision" transform="matrix(1,0,0,1,-299,-146)" stroke="white">
      <rect x="558.6198" width="60" height="20" y="245.0307" clip-path="url(#clipPath2)" stroke="none"/>
    </g>
    <g stroke-linecap="butt" transform="matrix(1,0,0,1,-299,-146)" fill="gray" text-rendering="geometricPrecision" shape-rendering="geometricPrecision" stroke="gray" stroke-miterlimit="1.45">
      <rect fill="none" x="558.6198" width="60" height="20" y="245.0307" clip-path="url(#clipPath2)"/>
    </g>
    <g font-size="10px" stroke-linecap="butt" transform="matrix(1,0,0,1,-299,-146)" text-rendering="geometricPrecision" font-family="sans-serif" shape-rendering="geometricPrecision" stroke-miterlimit="1.45">
      <text x="569.2804" xml:space="preserve" y="258.9085" clip-path="url(#clipPath2)" stroke="none">ctrl data</text>
    </g>
    <g fill="white" text-rendering="geometricPrecision" shape-rendering="geometricPrecision" transform="matrix(1,0,0,1,-299,-146)" stroke="white">
      <rect x="558.6198" width="60" height="20" y="265.0307" clip-path="url(#clipPath2)" stroke="none"/>
    </g>
    <g stroke-linecap="butt" transform="matrix(1,0,0,1,-299,-146)" fill="gray" text-rendering="geometricPrecision" shape-rendering="geometricPrecision" stroke="gray" stroke-miterlimit="1.45">
      <rect fill="none" x="558.6198" width="60" height="20" y="265.0307" clip-path="url(#clipPath2)"/>
    </g>
    <g font-size="10px" stroke-linecap="butt" transform="matrix(1,0,0,1,-299,-146)" text-rendering="geometricPrecision" font-family="sans-serif" shape-rendering="geometricPrecision" stroke-miterlimit="1.45">
      <text x="569.2804" xml:space="preserve" y="278.9085" clip-path="url(#clipPath2)" stroke="none">ctrl data</text>
    </g>
    <g fill="white" text-rendering="geometricPrecision" shape-rendering="geometricPrecision" transform="matrix(1,0,0,1,-299,-146)" stroke="white">
      <rect x="558.6198" width="60" height="20" y="285.0307" clip-path="url(#clipPath2)" stroke="none"/>
    </g>
    <g stroke-linecap="butt" transform="matrix(1,0,0,1,-299,-146)" fill="gray" text-rendering="geometricPrecision" shape-rendering="geometricPrecision" stroke="gray" stroke-miterlimit="1.45">
      <rect fill="none" x="558.6198" width="60" height="20" y="285.0307" clip-path="url(#clipPath2)"/>
    </g>
    <g font-size="10px" stroke-linecap="butt" transform="matrix(1,0,0,1,-299,-146)" text-rendering="geometricPrecision" font-family="sans-serif" shape-rendering="geometricPrecision" stroke-miterlimit="1.45">
      <text x="569.2804" xml:space="preserve" y="298.9085" clip-path="url(#clipPath2)" stroke="none">ctrl data</text>
    </g>
    <g fill="white" text-rendering="geometricPrecision" shape-rendering="geometricPrecision" transform="matrix(1,0,0,1,-299,-146)" stroke="white">
      <rect x="692.0972" width="60" height="40" y="505.1997" clip-path="url(#clipPath2)" stroke="none"/>
    </g>
    <g stroke-linecap="butt" transform="matrix(1,0,0,1,-299,-146)" fill="gray" text-rendering="geometricPrecision" shape-rendering="geometricPrecision" stroke="gray" stroke-miterlimit="1.45">
      <rect fill="none" x="692.0972" width="60" height="40" y="505.1997" clip-path="url(#clipPath2)"/>
    </g>
    <g stroke-linecap="butt" font-size="10px" transform="matrix(1,0,0,1,-299,-146)" fill="rgb(102,102,255)" text-rendering="geometricPrecision" font-family="sans-serif" shape-rendering="geometricPrecision" stroke="rgb(102,102,255)" stroke-miterlimit="1.45">
      <text x="704.4919" xml:space="preserve" y="529.0776" clip-path="url(#clipPath2)" stroke="none">AF_XDP</text>
    </g>
    <g fill="white" text-rendering="geometricPrecision" shape-rendering="geometricPrecision" transform="matrix(1,0,0,1,-299,-146)" stroke="white">
      <rect x="440.078" width="60" height="40" y="357.1536" clip-path="url(#clipPath2)" stroke="none"/>
    </g>
    <g stroke-linecap="butt" transform="matrix(1,0,0,1,-299,-146)" fill="gray" text-rendering="geometricPrecision" shape-rendering="geometricPrecision" stroke="gray" stroke-miterlimit="1.45">
      <rect fill="none" x="440.078" width="60" height="40" y="357.1536" clip-path="url(#clipPath2)"/>
    </g>
    <g stroke-linecap="butt" font-size="10px" transform="matrix(1,0,0,1,-299,-146)" fill="rgb(102,102,255)" text-rendering="geometricPrecision" font-family="sans-serif" shape-rendering="geometricPrecision" stroke="rgb(102,102,255)" stroke-miterlimit="1.45">
      <text x="449.1345" xml:space="preserve" y="350.2253" clip-path="url(#clipPath2)" stroke="none">tx-queue</text>
    </g>
    <g fill="white" text-rendering="geometricPrecision" shape-rendering="geometricPrecision" transform="matrix(1,0,0,1,-299,-146)" stroke="white">
      <rect x="440.078" width="60" height="10" y="357.1536" clip-path="url(#clipPath2)" stroke="none"/>
    </g>
    <g stroke-linecap="butt" transform="matrix(1,0,0,1,-299,-146)" fill="gray" text-rendering="geometricPrecision" shape-rendering="geometricPrecision" stroke="gray" stroke-miterlimit="1.45">
      <rect fill="none" x="440.078" width="60" height="10" y="357.1536" clip-path="url(#clipPath2)"/>
    </g>
    <g font-size="10px" stroke-linecap="butt" transform="matrix(1,0,0,1,-299,-146)" text-rendering="geometricPrecision" font-family="sans-serif" shape-rendering="geometricPrecision" stroke-miterlimit="1.45">
      <text x="440.7741" xml:space="preserve" y="366.0315" clip-path="url(#clipPath2)" stroke="none">{8192, 1500}</text>
    </g>
    <g fill="white" text-rendering="geometricPrecision" shape-rendering="geometricPrecision" transform="matrix(1,0,0,1,-299,-146)" stroke="white">
      <rect x="440.078" width="60" height="10" y="367.1536" clip-path="url(#clipPath2)" stroke="none"/>
    </g>
    <g stroke-linecap="butt" transform="matrix(1,0,0,1,-299,-146)" fill="gray" text-rendering="geometricPrecision" shape-rendering="geometricPrecision" stroke="gray" stroke-miterlimit="1.45">
      <rect fill="none" x="440.078" width="60" height="10" y="367.1536" clip-path="url(#clipPath2)"/>
    </g>
    <g font-size="10px" stroke-linecap="butt" transform="matrix(1,0,0,1,-299,-146)" text-rendering="geometricPrecision" font-family="sans-serif" shape-rendering="geometricPrecision" stroke-miterlimit="1.45">
      <text x="449.3494" xml:space="preserve" y="376.0315" clip-path="url(#clipPath2)" stroke="none">{0, 1500}</text>
    </g>
    <g fill="white" text-rendering="geometricPrecision" shape-rendering="geometricPrecision" transform="matrix(1,0,0,1,-299,-146)" stroke="white">
      <rect x="440.078" width="60" height="10" y="377.1536" clip-path="url(#clipPath2)" stroke="none"/>
    </g>
    <g stroke-linecap="butt" transform="matrix(1,0,0,1,-299,-146)" fill="gray" text-rendering="geometricPrecision" shape-rendering="geometricPrecision" stroke="gray" stroke-miterlimit="1.45">
      <rect fill="none" x="440.078" width="60" height="10" y="377.1536" clip-path="url(#clipPath2)"/>
    </g>
    <g font-size="10px" stroke-linecap="butt" transform="matrix(1,0,0,1,-299,-146)" text-rendering="geometricPrecision" font-family="sans-serif" shape-rendering="geometricPrecision" stroke-miterlimit="1.45">
      <text x="440.7741" xml:space="preserve" y="386.0315" clip-path="url(#clipPath2)" stroke="none">{4096, 1500}</text>
    </g>
    <g fill="white" text-rendering="geometricPrecision" shape-rendering="geometricPrecision" transform="matrix(1,0,0,1,-299,-146)" stroke="white">
      <rect x="558.6198" width="60" height="40" y="172.9077" clip-path="url(#clipPath2)" stroke="none"/>
    </g>
    <g stroke-linecap="butt" transform="matrix(1,0,0,1,-299,-146)" fill="gray" text-rendering="geometricPrecision" shape-rendering="geometricPrecision" stroke="gray" stroke-miterlimit="1.45">
      <rect fill="none" x="558.6198" width="60" height="40" y="172.9077" clip-path="url(#clipPath2)"/>
    </g>
    <g stroke-linecap="butt" font-size="10px" transform="matrix(1,0,0,1,-299,-146)" fill="rgb(102,102,255)" text-rendering="geometricPrecision" font-family="sans-serif" shape-rendering="geometricPrecision" stroke="rgb(102,102,255)" stroke-miterlimit="1.45">
      <text x="579.6697" xml:space="preserve" y="196.7856" clip-path="url(#clipPath2)" stroke="none">app</text>
    </g>
    <g fill="white" text-rendering="geometricPrecision" shape-rendering="geometricPrecision" transform="matrix(1,0,0,1,-299,-146)" stroke="white">
      <rect x="677.1616" width="60" height="40" y="357.1536" clip-path="url(#clipPath2)" stroke="none"/>
    </g>
    <g stroke-linecap="butt" transform="matrix(1,0,0,1,-299,-146)" fill="gray" text-rendering="geometricPrecision" shape-rendering="geometricPrecision" stroke="gray" stroke-miterlimit="1.45">
      <rect fill="none" x="677.1616" width="60" height="40" y="357.1536" clip-path="url(#clipPath2)"/>
    </g>
    <g stroke-linecap="butt" font-size="10px" transform="matrix(1,0,0,1,-299,-146)" fill="rgb(102,102,255)" text-rendering="geometricPrecision" font-family="sans-serif" shape-rendering="geometricPrecision" stroke="rgb(102,102,255)" stroke-miterlimit="1.45">
      <text x="664.1852" xml:space="preserve" y="350.2253" clip-path="url(#clipPath2)" stroke="none">completion-queue</text>
    </g>
    <g fill="white" text-rendering="geometricPrecision" shape-rendering="geometricPrecision" transform="matrix(1,0,0,1,-299,-146)" stroke="white">
      <rect x="677.1616" width="60" height="10" y="357.1536" clip-path="url(#clipPath2)" stroke="none"/>
    </g>
    <g stroke-linecap="butt" transform="matrix(1,0,0,1,-299,-146)" fill="gray" text-rendering="geometricPrecision" shape-rendering="geometricPrecision" stroke="gray" stroke-miterlimit="1.45">
      <rect fill="none" x="677.1616" width="60" height="10" y="357.1536" clip-path="url(#clipPath2)"/>
    </g>
    <g font-size="10px" stroke-linecap="butt" transform="matrix(1,0,0,1,-299,-146)" text-rendering="geometricPrecision" font-family="sans-serif" shape-rendering="geometricPrecision" stroke-miterlimit="1.45">
      <text x="704.3031" xml:space="preserve" y="366.0315" clip-path="url(#clipPath2)" stroke="none">0</text>
    </g>
    <g fill="white" text-rendering="geometricPrecision" shape-rendering="geometricPrecision" transform="matrix(1,0,0,1,-299,-146)" stroke="white">
      <rect x="677.1616" width="60" height="10" y="367.1536" clip-path="url(#clipPath2)" stroke="none"/>
    </g>
    <g stroke-linecap="butt" transform="matrix(1,0,0,1,-299,-146)" fill="gray" text-rendering="geometricPrecision" shape-rendering="geometricPrecision" stroke="gray" stroke-miterlimit="1.45">
      <rect fill="none" x="677.1616" width="60" height="10" y="367.1536" clip-path="url(#clipPath2)"/>
    </g>
    <g font-size="10px" stroke-linecap="butt" transform="matrix(1,0,0,1,-299,-146)" text-rendering="geometricPrecision" font-family="sans-serif" shape-rendering="geometricPrecision" stroke-miterlimit="1.45">
      <text x="695.7278" xml:space="preserve" y="376.0315" clip-path="url(#clipPath2)" stroke="none">8192</text>
    </g>
    <g fill="white" text-rendering="geometricPrecision" shape-rendering="geometricPrecision" transform="matrix(1,0,0,1,-299,-146)" stroke="white">
      <rect x="677.1616" width="60" height="10" y="377.1536" clip-path="url(#clipPath2)" stroke="none"/>
    </g>
    <g stroke-linecap="butt" transform="matrix(1,0,0,1,-299,-146)" fill="gray" text-rendering="geometricPrecision" shape-rendering="geometricPrecision" stroke="gray" stroke-miterlimit="1.45">
      <rect fill="none" x="677.1616" width="60" height="10" y="377.1536" clip-path="url(#clipPath2)"/>
    </g>
    <g fill="white" text-rendering="geometricPrecision" shape-rendering="geometricPrecision" transform="matrix(1,0,0,1,-299,-146)" stroke="white">
      <path d="M692.0972 447.1537 Q692.0972 437.1537 702.0972 437.1537 L742.0972 437.1537 Q752.0972 437.1537 752.0972 447.1537 L752.0972 447.1537 Q752.0972 457.1537 742.0972 457.1537 L702.0972 457.1537 Q692.0972 457.1537 692.0972 447.1537 Z" stroke="none" clip-path="url(#clipPath2)"/>
    </g>
    <g stroke-linecap="butt" transform="matrix(1,0,0,1,-299,-146)" fill="gray" text-rendering="geometricPrecision" shape-rendering="geometricPrecision" stroke="gray" stroke-miterlimit="1.45">
      <path fill="none" d="M692.0972 447.1537 Q692.0972 437.1537 702.0972 437.1537 L742.0972 437.1537 Q752.0972 437.1537 752.0972 447.1537 L752.0972 447.1537 Q752.0972 457.1537 742.0972 457.1537 L702.0972 457.1537 Q692.0972 457.1537 692.0972 447.1537 Z" clip-path="url(#clipPath2)"/>
    </g>
    <g stroke-linecap="butt" font-size="10px" transform="matrix(1,0,0,1,-299,-146)" fill="rgb(0,170,0)" text-rendering="geometricPrecision" font-family="sans-serif" shape-rendering="geometricPrecision" stroke="rgb(0,170,0)" stroke-miterlimit="1.45">
      <text x="702.8978" xml:space="preserve" y="451.0315" clip-path="url(#clipPath2)" stroke="none">sendto()</text>
    </g>
    <g fill="white" text-rendering="geometricPrecision" shape-rendering="geometricPrecision" transform="matrix(1,0,0,1,-299,-146)" stroke="white">
      <rect x="618.6198" width="40" height="20" y="172.9077" clip-path="url(#clipPath2)" stroke="none"/>
    </g>
    <g stroke-linecap="butt" transform="matrix(1,0,0,1,-299,-146)" fill="gray" text-rendering="geometricPrecision" shape-rendering="geometricPrecision" stroke="gray" stroke-miterlimit="1.45">
      <rect fill="none" x="618.6198" width="40" height="20" y="172.9077" clip-path="url(#clipPath2)"/>
    </g>
    <g font-size="10px" stroke-linecap="butt" transform="matrix(1,0,0,1,-299,-146)" text-rendering="geometricPrecision" font-family="sans-serif" shape-rendering="geometricPrecision" stroke-miterlimit="1.45">
      <text x="629.8546" xml:space="preserve" y="186.7856" clip-path="url(#clipPath2)" stroke="none">XSK</text>
    </g>
    <g fill="white" text-rendering="geometricPrecision" shape-rendering="geometricPrecision" transform="matrix(1,0,0,1,-299,-146)" stroke="white">
      <rect x="391.4853" width="398.7011" height="7.4453" y="477.454" clip-path="url(#clipPath2)" stroke="none"/>
    </g>
    <g stroke-linecap="butt" transform="matrix(1,0,0,1,-299,-146)" fill="rgb(204,204,0)" text-rendering="geometricPrecision" shape-rendering="geometricPrecision" stroke-dasharray="6,2" stroke="rgb(204,204,0)" stroke-miterlimit="1.45">
      <rect fill="none" x="391.4853" width="398.7011" height="7.4453" y="477.454" clip-path="url(#clipPath2)"/>
    </g>
    <g fill="white" text-rendering="geometricPrecision" shape-rendering="geometricPrecision" transform="matrix(1,0,0,1,-299,-146)" stroke="white">
      <rect x="558.6198" width="60" height="20" y="305.0307" clip-path="url(#clipPath2)" stroke="none"/>
    </g>
    <g stroke-linecap="butt" transform="matrix(1,0,0,1,-299,-146)" fill="gray" text-rendering="geometricPrecision" shape-rendering="geometricPrecision" stroke="gray" stroke-miterlimit="1.45">
      <rect fill="none" x="558.6198" width="60" height="20" y="305.0307" clip-path="url(#clipPath2)"/>
    </g>
    <g font-size="10px" stroke-linecap="butt" transform="matrix(1,0,0,1,-299,-146)" text-rendering="geometricPrecision" font-family="sans-serif" shape-rendering="geometricPrecision" stroke-miterlimit="1.45">
      <text x="584.602" xml:space="preserve" y="318.9085" clip-path="url(#clipPath2)" stroke="none">...</text>
    </g>
    <g fill="white" text-rendering="geometricPrecision" shape-rendering="geometricPrecision" transform="matrix(1,0,0,1,-299,-146)" stroke="white">
      <rect x="432.1053" width="60" height="40" y="505.1997" clip-path="url(#clipPath2)" stroke="none"/>
    </g>
    <g stroke-linecap="butt" transform="matrix(1,0,0,1,-299,-146)" fill="gray" text-rendering="geometricPrecision" shape-rendering="geometricPrecision" stroke="gray" stroke-miterlimit="1.45">
      <rect fill="none" x="432.1053" width="60" height="40" y="505.1997" clip-path="url(#clipPath2)"/>
    </g>
    <g stroke-linecap="butt" font-size="10px" transform="matrix(1,0,0,1,-299,-146)" fill="rgb(102,102,255)" text-rendering="geometricPrecision" font-family="sans-serif" shape-rendering="geometricPrecision" stroke="rgb(102,102,255)" stroke-miterlimit="1.45">
      <text x="447.6832" xml:space="preserve" y="529.0776" clip-path="url(#clipPath2)" stroke="none">Driver</text>
    </g>
    <g stroke-linecap="butt" transform="matrix(1,0,0,1,-299,-146)" fill="rgb(102,153,255)" text-rendering="geometricPrecision" shape-rendering="geometricPrecision" stroke-dasharray="6,2" stroke="rgb(102,153,255)" stroke-miterlimit="1.45">
      <path fill="none" d="M538.6478 427.1537 L443.966 427.1537 L443.966 567.2115" clip-path="url(#clipPath2)"/>
    </g>
    <g stroke-linecap="butt" transform="matrix(1,0,0,1,-299,-146)" fill="rgb(102,153,255)" text-rendering="geometricPrecision" shape-rendering="geometricPrecision" stroke-dasharray="6,2" stroke="rgb(102,153,255)" stroke-miterlimit="1.45">
      <path d="M443.966 575.2115 L448.966 563.2115 L443.966 566.2115 L438.966 563.2115 Z" stroke="none" clip-path="url(#clipPath2)"/>
    </g>
    <g stroke-linecap="butt" transform="matrix(1,0,0,1,-299,-146)" fill="rgb(255,153,153)" text-rendering="geometricPrecision" shape-rendering="geometricPrecision" stroke="rgb(255,153,153)" stroke-width="2" stroke-miterlimit="1.45">
      <path fill="none" d="M492.1053 595.1997 L592.1013 595.1997 L592.1013 446.1537" clip-path="url(#clipPath2)"/>
      <path d="M592.1013 437.1537 L586.4763 450.6537 L592.1013 447.2787 L597.7263 450.6537 Z" clip-path="url(#clipPath2)" stroke="none"/>
    </g>
    <g font-size="10px" stroke-linecap="butt" transform="matrix(1,0,0,1,-299,-146)" text-rendering="geometricPrecision" font-family="sans-serif" shape-rendering="geometricPrecision" stroke-miterlimit="1.45">
      <text x="499.1053" xml:space="preserve" y="584.9976" clip-path="url(#clipPath2)" stroke="none">#4</text>
    </g>
    <g stroke-linecap="butt" transform="matrix(1,0,0,1,-299,-146)" fill="rgb(102,153,255)" text-rendering="geometricPrecision" shape-rendering="geometricPrecision" stroke-dasharray="6,2" stroke="rgb(102,153,255)" stroke-miterlimit="1.45">
      <path fill="none" d="M443.966 397.1443 L443.966 567.2158" clip-path="url(#clipPath2)"/>
      <path d="M443.966 575.2158 L448.966 563.2158 L443.966 566.2158 L438.966 563.2158 Z" clip-path="url(#clipPath2)" stroke="none"/>
    </g>
    <g font-size="10px" stroke-linecap="butt" transform="matrix(1,0,0,1,-299,-146)" text-rendering="geometricPrecision" font-family="sans-serif" shape-rendering="geometricPrecision" stroke-miterlimit="1.45">
      <text x="449.718" xml:space="preserve" y="414.8378" clip-path="url(#clipPath2)" stroke="none">#2</text>
    </g>
    <g stroke-linecap="butt" transform="matrix(1,0,0,1,-299,-146)" fill="gray" text-rendering="geometricPrecision" shape-rendering="geometricPrecision" stroke-dasharray="6,2" stroke="gray" stroke-miterlimit="1.45">
      <path fill="none" d="M404.3395 362.1537 L440.0656 362.1537" clip-path="url(#clipPath2)"/>
    </g>
    <g stroke-linecap="round" transform="matrix(1,0,0,1,-299,-146)" fill="rgb(102,153,255)" text-rendering="geometricPrecision" shape-rendering="geometricPrecision" stroke-dasharray="4,3,0,3" stroke="rgb(102,153,255)" stroke-miterlimit="1.45">
      <path fill="none" d="M500.078 362.1537 L519.3489 362.1537 L519.3489 403.6537 L530.5822 403.6537" clip-path="url(#clipPath2)"/>
      <path d="M538.5822 403.6537 L526.5822 398.6537 L529.5822 403.6537 L526.5822 408.6537 Z" clip-path="url(#clipPath2)" stroke="none"/>
    </g>
    <g stroke-linecap="butt" transform="matrix(1,0,0,1,-299,-146)" fill="gray" text-rendering="geometricPrecision" shape-rendering="geometricPrecision" stroke-dasharray="6,2" stroke="gray" stroke-miterlimit="1.45">
      <path fill="none" d="M470.078 357.1596 L470.078 318.6487" clip-path="url(#clipPath2)"/>
      <path fill="none" d="M500.078 372.1537 L530.5822 372.1537" clip-path="url(#clipPath2)" stroke="rgb(102,153,255)"/>
      <path fill="rgb(102,153,255)" d="M538.5822 372.1537 L526.5822 367.1537 L529.5822 372.1537 L526.5822 377.1537 Z" clip-path="url(#clipPath2)" stroke="none"/>
      <path fill="none" d="M500.0796 382.1537 L530.6202 382.1537" clip-path="url(#clipPath2)" stroke="rgb(102,153,255)"/>
      <path fill="rgb(102,153,255)" d="M538.6202 382.1537 L526.6202 377.1537 L529.6202 382.1537 L526.6202 387.1537 Z" clip-path="url(#clipPath2)" stroke="none"/>
      <path fill="none" stroke-dasharray="none" d="M558.5841 206.3108 L412.6556 206.3108 L412.6556 270.6559" clip-path="url(#clipPath2)" stroke="rgb(102,153,255)"/>
      <path fill="rgb(102,153,255)" stroke-dasharray="none" d="M412.6556 278.6559 L417.6556 266.6559 L412.6556 269.6559 L407.6556 266.6559 Z" clip-path="url(#clipPath2)" stroke="none"/>
    </g>
    <g font-size="10px" stroke-linecap="butt" transform="matrix(1,0,0,1,-299,-146)" text-rendering="geometricPrecision" font-family="sans-serif" shape-rendering="geometricPrecision" stroke-miterlimit="1.45">
      <text x="544.924" xml:space="preserve" y="200.1099" clip-path="url(#clipPath2)" stroke="none">#1</text>
    </g>
    <g stroke-linecap="butt" transform="matrix(1,0,0,1,-299,-146)" fill="rgb(102,153,255)" text-rendering="geometricPrecision" shape-rendering="geometricPrecision" stroke="rgb(102,153,255)" stroke-miterlimit="1.45">
      <path fill="none" d="M618.6198 202.714 L709.9208 202.714 L709.9208 270.6622" clip-path="url(#clipPath2)"/>
      <path d="M709.9208 278.6622 L714.9208 266.6622 L709.9208 269.6622 L704.9208 266.6622 Z" clip-path="url(#clipPath2)" stroke="none"/>
    </g>
    <g font-size="10px" stroke-linecap="butt" transform="matrix(1,0,0,1,-299,-146)" text-rendering="geometricPrecision" font-family="sans-serif" shape-rendering="geometricPrecision" stroke-miterlimit="1.45">
      <text x="622.6623" xml:space="preserve" y="214.5758" clip-path="url(#clipPath2)" stroke="none">#6</text>
    </g>
    <g stroke-linecap="butt" transform="matrix(1,0,0,1,-299,-146)" fill="rgb(102,153,255)" text-rendering="geometricPrecision" shape-rendering="geometricPrecision" stroke="rgb(102,153,255)" stroke-miterlimit="1.45">
      <path fill="none" d="M618.6015 202.714 L642.8918 202.714 L642.8918 225.0307 L588.6198 225.0307 L588.6198 237.0404" clip-path="url(#clipPath2)"/>
      <path d="M588.6198 245.0404 L593.6198 233.0404 L588.6198 236.0404 L583.6198 233.0404 Z" clip-path="url(#clipPath2)" stroke="none"/>
      <path fill="none" stroke-dasharray="6,2" d="M707.1616 318.6537 L707.1616 357.1161" clip-path="url(#clipPath2)" stroke="gray"/>
      <path fill="none" stroke-dasharray="6,2" d="M677.1311 362.1537 L661.5599 362.1537 L661.5599 367.587 L646.652 367.587" clip-path="url(#clipPath2)" stroke="rgb(255,153,153)"/>
      <path fill="rgb(255,153,153)" stroke-dasharray="6,2" d="M638.652 367.587 L650.652 372.587 L647.652 367.587 L650.652 362.587 Z" clip-path="url(#clipPath2)" stroke="none"/>
      <path fill="none" stroke-dasharray="6,2" d="M677.1268 372.1537 L659.3727 372.1537 L659.3727 407.011 L646.6461 407.011" clip-path="url(#clipPath2)" stroke="rgb(255,153,153)"/>
      <path fill="rgb(255,153,153)" stroke-dasharray="6,2" d="M638.6461 407.011 L650.6461 412.011 L647.6461 407.011 L650.6461 402.011 Z" clip-path="url(#clipPath2)" stroke="none"/>
      <path fill="none" d="M722.0972 457.1762 L722.0972 497.1713" clip-path="url(#clipPath2)"/>
      <path d="M722.0972 505.1713 L727.0972 493.1713 L722.0972 496.1713 L717.0972 493.1713 Z" clip-path="url(#clipPath2)" stroke="none"/>
      <path fill="none" d="M658.6061 182.9077 L786.6562 182.9077 L786.6562 447.1537 L760.0666 447.1537" clip-path="url(#clipPath2)"/>
      <path d="M752.0666 447.1537 L764.0666 452.1537 L761.0666 447.1537 L764.0666 442.1537 Z" clip-path="url(#clipPath2)" stroke="none"/>
    </g>
    <g font-size="10px" stroke-linecap="butt" transform="matrix(1,0,0,1,-299,-146)" text-rendering="geometricPrecision" font-family="sans-serif" shape-rendering="geometricPrecision" stroke-miterlimit="1.45">
      <text x="662.934" xml:space="preserve" y="174.2896" clip-path="url(#clipPath2)" stroke="none">#3</text>
    </g>
    <g stroke-linecap="butt" transform="matrix(1,0,0,1,-299,-146)" fill="gray" text-rendering="geometricPrecision" shape-rendering="geometricPrecision" stroke-dasharray="6,2" stroke="gray" stroke-miterlimit="1.45">
      <path fill="none" d="M588.6198 325.0307 L588.6198 349.1223" clip-path="url(#clipPath2)"/>
      <path d="M588.6198 357.1223 L593.6198 345.1223 L588.6198 348.1223 L583.6198 345.1223 Z" clip-path="url(#clipPath2)" stroke="none"/>
      <path fill="none" stroke-dasharray="none" d="M412.8254 318.6537 L412.8254 467.3038 L437.5293 467.3038 L437.5293 497.2132" clip-path="url(#clipPath2)" stroke="rgb(102,153,255)"/>
      <path fill="rgb(102,153,255)" stroke-dasharray="none" d="M437.5293 505.2132 L442.5293 493.2132 L437.5293 496.2132 L432.5293 493.2132 Z" clip-path="url(#clipPath2)" stroke="none"/>
      <path fill="none" stroke-dasharray="none" d="M482.5853 575.1704 L482.5853 553.1997" clip-path="url(#clipPath2)" stroke="rgb(255,153,153)"/>
      <path fill="rgb(255,153,153)" stroke-dasharray="none" d="M482.5853 545.1997 L477.5853 557.1997 L482.5853 554.1997 L487.5853 557.1997 Z" clip-path="url(#clipPath2)" stroke="none"/>
      <path fill="none" stroke-dasharray="none" d="M692.1125 525.1997 L500.0844 525.1997" clip-path="url(#clipPath2)" stroke="rgb(102,153,255)"/>
      <path fill="rgb(102,153,255)" stroke-dasharray="none" d="M492.0844 525.1997 L504.0844 530.1997 L501.0844 525.1997 L504.0844 520.1997 Z" clip-path="url(#clipPath2)" stroke="none"/>
      <path fill="none" stroke-dasharray="none" d="M474.0692 505.1711 L474.0692 456.4919 L686.0372 456.4919 L686.0372 405.1537" clip-path="url(#clipPath2)" stroke="rgb(255,153,153)"/>
      <path fill="rgb(255,153,153)" stroke-dasharray="none" d="M686.0372 397.1537 L681.0372 409.1537 L686.0372 406.1537 L691.0372 409.1537 Z" clip-path="url(#clipPath2)" stroke="none"/>
    </g>
    <g font-size="10px" stroke-linecap="butt" transform="matrix(1,0,0,1,-299,-146)" text-rendering="geometricPrecision" font-family="sans-serif" shape-rendering="geometricPrecision" stroke-miterlimit="1.45">
      <text x="476.074" xml:space="preserve" y="500.2056" clip-path="url(#clipPath2)" stroke="none">#5</text>
    </g>
    <g stroke-linecap="butt" transform="matrix(1,0,0,1,-299,-146)" fill="rgb(102,153,255)" text-rendering="geometricPrecision" shape-rendering="geometricPrecision" stroke="rgb(102,153,255)" stroke-miterlimit="1.45">
      <path fill="none" d="M462.1053 545.1785 L462.1053 567.2191" clip-path="url(#clipPath2)"/>
      <path d="M462.1053 575.2191 L467.1053 563.2191 L462.1053 566.2191 L457.1053 563.2191 Z" clip-path="url(#clipPath2)" stroke="none"/>
    </g>
  </g>
</svg>
